{"glyphs":{"0":{"ha":587,"x_min":43,"x_max":544,"o":"m 544 440 q 524 251 544 334 q 469 109 503 167 q 390 19 435 50 q 296 -12 345 -12 q 196 19 242 -12 q 116 107 150 50 q 63 250 82 165 q 43 440 43 334 q 63 633 43 549 q 117 775 83 718 q 197 863 151 833 q 296 893 243 893 q 392 863 347 893 q 471 775 437 833 q 524 633 505 718 q 544 440 544 549 m 289 68 q 353 99 326 68 q 399 182 380 130 q 427 301 418 234 q 436 438 436 368 q 427 577 436 509 q 399 697 417 644 q 353 782 380 750 q 289 814 326 814 q 229 781 255 814 q 185 695 203 749 q 158 573 168 642 q 149 433 149 505 q 153 341 149 386 q 164 255 157 296 q 184 180 172 214 q 211 121 195 146 q 246 82 227 96 q 289 68 265 68 m 380 477 l 380 388 q 348 401 368 396 q 296 406 328 406 q 237 400 258 406 q 205 387 216 395 l 205 476 q 238 464 216 469 q 296 458 260 458 q 347 464 326 458 q 380 477 367 469 z "},"1":{"ha":311,"x_min":-3,"x_max":288,"o":"m 220 913 q 214 793 216 857 q 211 661 212 729 q 211 520 210 592 q 211 376 211 448 q 212 237 211 306 q 218 101 214 169 q 236 40 220 64 q 288 3 253 15 l 288 0 l 43 0 l 43 3 q 92 41 77 15 q 110 104 107 68 q 118 307 115 213 q 121 489 121 400 q 120 654 121 589 q 116 757 120 720 q 101 809 111 795 q 72 824 91 824 q 55 822 66 824 q 34 817 45 819 q 14 812 23 814 q 1 810 5 810 q -3 812 -3 810 q 9 822 -3 815 q 43 839 22 829 l 220 913 z "},"2":{"ha":456,"x_min":11,"x_max":429,"o":"m 268 72 q 314 80 294 72 q 349 101 334 88 q 372 132 363 115 q 384 167 380 149 l 387 167 l 387 0 q 333 0 367 0 q 261 -1 300 -1 l 113 -1 q 41 0 76 -1 l 11 85 q 61 180 30 130 q 129 287 93 231 q 200 400 164 342 q 266 516 237 458 q 314 630 296 574 q 332 738 332 686 q 325 777 332 760 q 305 804 317 793 q 277 820 293 814 q 243 825 260 825 q 203 818 223 825 q 167 797 183 811 q 141 762 151 783 q 131 713 131 741 q 138 661 131 688 l 135 659 l 39 814 q 134 878 79 857 q 242 899 188 899 q 313 889 279 899 q 372 859 347 879 q 413 807 398 838 q 429 735 429 777 q 414 641 429 691 q 376 535 400 590 q 319 422 351 480 q 251 304 287 363 q 179 187 216 245 q 109 72 142 128 l 268 72 z "},"3":{"ha":468,"x_min":30,"x_max":426,"o":"m 153 531 q 226 544 197 532 q 272 578 255 556 q 297 633 290 601 q 304 707 304 665 q 296 767 304 741 q 274 809 288 793 q 242 834 260 826 q 204 843 224 843 q 166 838 182 843 q 141 823 151 832 q 127 802 132 814 q 123 779 123 791 q 137 736 123 758 q 179 701 151 715 l 178 698 l 30 711 q 47 801 30 763 q 91 865 64 840 q 151 902 118 890 q 214 914 183 914 q 289 901 254 914 q 350 860 324 887 q 391 794 376 833 q 406 704 406 755 q 376 575 406 628 q 297 492 347 522 q 391 408 356 461 q 426 279 426 355 q 410 152 426 208 q 365 58 394 96 q 296 0 336 20 q 208 -20 256 -20 q 145 -6 177 -20 q 88 34 113 7 q 46 104 62 62 q 30 204 30 146 l 178 245 l 179 241 q 138 204 155 227 q 121 161 121 181 q 127 116 121 136 q 146 81 134 96 q 174 59 157 67 q 210 52 190 52 q 293 107 262 52 q 324 277 324 163 q 316 352 324 319 q 288 409 308 385 q 236 445 269 432 q 153 459 203 458 l 153 531 z "},"4":{"ha":548,"x_min":-3,"x_max":527,"o":"m 400 289 q 448 297 427 289 q 485 318 469 305 q 510 349 500 332 q 524 384 520 366 l 527 384 l 527 216 l 401 216 q 403 158 402 187 q 406 101 404 130 q 425 40 409 64 q 475 3 441 15 l 475 0 l 231 0 l 231 3 q 280 41 265 15 q 298 104 296 68 q 300 161 299 134 q 302 216 301 189 l 111 216 q 28 217 66 216 l -3 302 q 37 358 15 323 q 83 437 59 393 q 132 530 107 481 q 180 627 157 578 q 294 868 235 739 l 408 913 q 400 703 400 817 q 399 464 399 590 q 399 376 399 419 q 400 289 399 332 m 95 289 l 305 289 q 308 391 307 342 q 309 489 309 440 l 309 715 q 262 617 287 669 q 210 510 237 565 q 154 399 182 455 q 95 289 125 343 z "},"5":{"ha":458,"x_min":30,"x_max":426,"o":"m 162 551 q 263 558 216 566 q 347 514 311 549 q 405 414 383 478 q 426 252 426 349 q 409 135 426 186 q 363 50 393 84 q 294 -2 334 16 q 208 -20 254 -20 q 146 -5 178 -20 q 89 38 115 9 q 46 112 63 68 q 30 218 30 157 l 185 245 l 186 241 q 143 205 157 227 q 130 163 130 184 q 134 124 130 143 q 148 91 138 106 q 173 67 158 77 q 211 58 189 58 q 254 70 233 58 q 290 105 274 81 q 315 165 305 129 q 324 250 324 201 q 319 351 324 310 q 301 419 313 393 q 270 460 289 446 q 224 478 251 474 q 160 480 197 483 q 79 471 124 477 l 56 899 q 220 900 142 900 q 379 899 299 899 l 379 732 l 376 732 q 363 767 372 750 q 340 798 355 785 q 306 819 326 811 q 260 827 286 827 l 148 827 l 162 551 z "},"6":{"ha":532,"x_min":43,"x_max":500,"o":"m 280 -11 q 199 10 235 -11 q 138 66 164 31 q 93 147 111 101 q 64 243 75 193 q 48 345 53 294 q 43 440 43 395 q 63 633 43 549 q 119 775 83 718 q 201 863 154 833 q 303 893 248 893 q 368 878 338 893 q 421 838 398 862 q 457 785 444 814 q 471 730 471 756 q 444 673 471 695 l 356 614 l 354 618 q 378 653 370 633 q 385 693 385 673 q 378 739 385 716 q 360 779 372 761 q 331 808 348 797 q 296 819 315 819 q 252 803 272 819 q 215 761 231 788 q 186 697 199 734 q 166 618 174 661 q 153 528 157 575 q 149 433 149 480 q 151 353 149 395 q 159 270 153 311 q 174 191 164 229 q 197 124 183 153 q 232 78 212 96 q 280 61 252 61 q 332 82 309 61 q 371 137 355 103 q 394 212 386 170 q 402 295 402 254 q 397 369 402 334 q 380 432 391 405 q 352 476 369 460 q 311 492 334 492 q 293 491 303 492 q 273 484 282 489 q 257 471 264 479 q 251 450 251 463 q 257 419 251 436 q 275 382 262 403 l 182 459 q 199 503 185 484 q 234 534 214 522 q 276 554 254 547 q 316 560 298 560 q 398 538 363 560 q 455 479 433 516 q 489 395 478 443 q 500 296 500 348 q 485 186 500 241 q 443 88 471 132 q 373 17 414 44 q 280 -11 332 -11 z "},"7":{"ha":513,"x_min":14,"x_max":543,"o":"m 244 464 q 290 642 267 554 q 333 823 312 730 q 261 820 298 822 q 190 815 224 819 q 126 806 156 812 q 73 789 96 800 q 36 764 50 779 q 20 728 22 749 l 14 728 q 19 781 16 751 q 26 838 22 811 q 34 900 29 869 l 543 900 l 542 897 q 476 859 503 885 q 434 796 450 833 q 385 640 406 715 q 344 489 363 565 q 298 313 320 404 q 253 117 276 222 q 249 46 242 77 q 290 3 256 16 l 288 0 l 30 0 l 31 3 q 100 44 72 16 q 144 115 128 73 q 170 200 157 155 q 196 289 183 244 q 220 378 208 334 q 244 464 233 422 z "},"8":{"ha":528,"x_min":42,"x_max":486,"o":"m 258 52 q 315 68 291 52 q 354 112 338 85 q 378 173 370 138 q 385 245 385 208 q 380 312 385 279 q 365 374 375 345 q 340 427 355 404 q 306 465 325 451 q 228 443 259 461 q 178 394 197 425 q 152 319 159 363 q 144 222 144 276 q 175 95 144 137 q 258 52 205 52 m 264 913 q 340 900 304 913 q 405 860 377 886 q 449 794 433 833 q 465 704 465 755 q 436 575 465 628 q 357 492 406 522 q 450 388 415 454 q 486 225 486 321 q 470 120 486 165 q 424 43 454 74 q 353 -4 395 12 q 260 -20 311 -20 q 172 -4 212 -20 q 103 43 132 12 q 58 120 74 74 q 42 225 42 165 q 77 388 42 321 q 171 492 113 454 q 92 575 121 522 q 62 704 62 628 q 79 794 62 755 q 123 860 95 833 q 187 900 151 886 q 264 913 224 913 m 264 843 q 220 830 239 843 q 188 795 201 817 q 170 746 176 774 q 163 689 163 718 q 168 637 163 663 q 180 588 172 611 q 200 548 188 566 q 229 519 212 530 q 293 537 267 523 q 335 575 319 551 q 357 632 351 600 q 363 707 363 665 q 355 767 363 741 q 333 809 347 793 q 301 834 319 826 q 264 843 283 843 z "},"9":{"ha":532,"x_min":33,"x_max":489,"o":"m 252 893 q 333 872 298 893 q 395 816 368 851 q 439 735 421 781 q 468 639 457 689 q 484 538 479 589 q 489 442 489 487 q 469 249 489 334 q 414 107 449 165 q 331 19 378 50 q 229 -11 284 -11 q 164 5 195 -11 q 111 44 134 20 q 75 97 88 68 q 62 153 62 126 q 89 210 62 187 l 176 268 l 178 264 q 155 229 162 249 q 147 189 147 210 q 154 144 147 166 q 173 103 161 121 q 201 75 184 85 q 237 64 217 64 q 300 97 273 64 q 346 185 328 130 q 374 309 364 239 q 383 450 383 378 q 381 529 383 487 q 374 612 379 571 q 359 691 368 653 q 335 758 349 729 q 300 804 321 787 q 252 821 279 821 q 200 800 222 821 q 162 746 177 779 q 138 670 146 712 q 130 587 130 629 q 136 513 130 549 q 152 450 141 477 q 181 406 163 422 q 221 390 198 390 q 240 392 229 390 q 259 398 250 393 q 275 411 269 403 q 281 432 281 419 q 276 463 281 446 q 257 500 270 479 l 351 423 q 333 379 347 398 q 299 348 319 360 q 257 329 279 335 q 216 322 235 322 q 134 344 169 322 q 77 403 100 366 q 43 487 54 439 q 33 586 33 534 q 47 696 33 641 q 90 794 62 751 q 159 866 118 838 q 252 893 200 893 z "}," ":{"ha":208,"x_min":0,"x_max":0,"o":""},"!":{"ha":260,"x_min":48,"x_max":212,"o":"m 48 896 l 48 899 l 212 899 l 212 896 q 197 847 203 879 q 185 772 191 814 q 177 679 180 729 q 170 576 173 629 q 165 472 168 524 q 161 373 163 420 q 157 289 159 327 q 152 226 155 250 l 104 226 q 101 292 102 252 q 97 378 99 331 q 92 478 94 426 q 86 583 90 530 q 79 685 83 635 q 71 776 75 734 q 61 849 66 818 q 48 896 55 880 m 70 62 q 87 105 70 87 q 131 123 105 123 q 175 105 157 123 q 193 62 193 87 q 175 18 193 36 q 131 0 157 0 q 87 18 105 0 q 70 62 70 36 z "},"\"":{"ha":368,"x_min":25,"x_max":340,"o":"m 243 578 q 239 689 242 640 q 230 777 235 738 q 218 846 225 816 q 203 900 212 876 l 340 900 q 328 845 334 876 q 316 776 321 814 q 307 688 311 737 q 300 578 302 640 l 243 578 m 66 578 q 61 689 64 640 q 53 777 58 738 q 41 846 47 816 q 25 900 34 876 l 163 900 q 150 845 157 876 q 138 776 144 814 q 129 688 133 737 q 123 578 125 640 l 66 578 z "},"#":{"ha":574,"x_min":32,"x_max":547,"o":"m 319 267 q 296 267 309 267 q 267 268 284 267 q 228 268 250 268 q 172 268 205 268 l 121 0 l 34 0 l 85 268 l 32 268 l 32 345 q 100 340 57 342 l 152 613 l 96 613 l 96 690 q 126 688 109 688 q 166 686 143 687 l 208 900 l 294 900 l 252 684 q 304 684 282 684 q 344 684 327 684 q 374 684 361 684 q 399 684 387 684 l 441 900 l 528 900 l 486 686 q 547 690 521 687 l 547 607 q 514 609 532 608 q 471 610 495 610 l 420 340 q 454 343 438 342 q 483 345 469 344 l 483 262 q 448 264 467 263 q 405 265 429 264 l 354 0 l 267 0 l 319 267 m 186 339 q 238 339 216 339 q 277 339 260 339 q 308 339 294 339 q 332 339 321 339 l 385 612 q 362 612 374 612 q 333 613 350 612 q 294 613 317 613 q 239 613 271 613 l 186 339 z "},"$":{"ha":448,"x_min":25,"x_max":423,"o":"m 195 60 q 231 68 214 60 q 260 91 248 77 q 279 123 273 105 q 286 159 286 140 q 269 254 286 209 q 224 341 251 298 q 167 425 198 383 q 110 511 136 467 q 66 602 83 555 q 48 704 48 650 q 63 778 48 743 q 104 840 77 813 q 171 883 132 867 q 259 899 210 899 q 340 877 298 899 q 423 814 382 855 l 328 659 l 325 661 q 332 713 332 688 q 324 762 332 741 q 304 798 316 783 q 278 819 292 812 q 250 827 264 827 q 210 819 229 827 q 179 798 192 811 q 158 766 165 785 q 151 728 151 748 q 169 641 151 686 q 215 551 187 597 q 274 459 242 506 q 333 366 306 412 q 379 272 361 319 q 397 180 397 226 q 384 106 397 141 q 343 45 370 71 q 277 3 316 18 q 189 -12 239 -12 q 109 10 151 -12 q 25 73 66 32 l 121 208 l 123 206 q 116 182 118 194 q 114 159 114 170 q 121 119 114 138 q 139 88 128 101 q 165 67 151 75 q 195 60 180 60 m 193 955 l 241 955 l 241 -87 l 193 -87 l 193 955 z "},"%":{"ha":929,"x_min":27,"x_max":901,"o":"m 130 645 q 155 487 130 541 q 227 433 180 433 q 296 487 273 433 q 319 645 319 541 q 296 802 319 749 q 227 855 273 855 q 155 802 180 855 q 130 645 130 749 m 27 645 q 42 760 27 710 q 85 845 58 810 q 148 897 112 879 q 227 914 184 914 q 302 897 267 914 q 364 845 338 879 q 406 760 391 810 q 421 645 421 710 q 406 529 421 580 q 364 445 391 479 q 302 392 338 410 q 227 374 267 374 q 148 392 184 374 q 85 445 112 410 q 42 529 58 479 q 27 645 27 580 m 704 781 l 793 781 l 261 152 l 172 151 l 704 781 m 609 252 q 634 94 609 147 q 706 40 659 40 q 775 94 752 40 q 798 252 798 147 q 775 409 798 355 q 706 462 752 462 q 634 409 659 462 q 609 252 609 355 m 507 252 q 522 367 507 317 q 564 451 537 417 q 628 503 591 486 q 706 521 664 521 q 782 503 746 521 q 844 451 817 486 q 885 367 870 417 q 901 252 901 317 q 885 136 901 186 q 844 51 870 85 q 782 -1 817 17 q 706 -19 746 -19 q 628 -1 664 -19 q 564 51 591 17 q 522 136 537 85 q 507 252 507 186 z "},"&":{"ha":751,"x_min":20,"x_max":734,"o":"m 587 586 q 650 587 624 586 q 693 589 676 588 q 725 593 713 591 l 698 505 q 692 510 697 505 q 675 519 688 514 q 641 529 663 525 q 586 534 619 534 l 537 534 q 537 520 537 522 q 536 520 536 519 q 536 519 536 521 q 536 505 536 518 q 537 400 536 446 q 537 312 537 353 q 538 231 538 271 q 538 143 538 191 q 554 75 538 96 q 589 55 570 55 q 611 62 600 55 q 631 82 622 69 q 645 114 640 96 q 650 153 650 132 q 646 182 650 171 l 648 184 l 734 38 q 653 -6 690 7 q 583 -19 615 -19 q 519 0 547 -19 l 20 0 l 20 3 q 75 46 58 16 q 94 117 91 77 q 102 313 100 222 q 104 489 104 404 q 103 640 104 565 q 94 796 102 715 q 73 859 91 833 q 20 897 54 885 l 20 900 l 407 900 q 398 863 404 885 q 387 813 393 843 q 371 742 380 784 q 366 793 374 770 q 336 826 358 815 q 275 844 307 840 q 204 850 243 848 q 198 717 200 781 q 195 586 196 653 q 217 586 201 586 q 256 586 233 586 q 305 587 279 587 q 357 587 332 587 q 406 587 383 587 q 444 587 429 587 q 443 651 444 622 q 440 702 442 680 q 435 735 438 723 q 429 747 433 747 l 429 751 l 619 839 q 587 797 602 817 q 561 749 572 777 q 545 683 551 722 q 539 586 539 644 l 587 586 m 203 65 q 258 67 226 66 q 326 70 290 68 q 396 74 361 71 q 458 81 431 77 q 446 127 450 103 q 442 175 442 151 q 443 248 442 216 q 444 307 444 279 q 445 362 444 335 q 446 421 446 389 q 446 464 446 449 q 446 489 446 479 q 445 508 446 499 q 445 531 445 516 q 407 531 430 531 q 358 532 385 532 q 306 532 332 532 q 257 533 279 532 q 217 533 234 533 q 195 534 201 534 q 197 297 195 415 q 203 65 199 180 z "},"'":{"ha":190,"x_min":25,"x_max":163,"o":"m 66 578 q 61 689 64 640 q 53 777 58 738 q 41 846 47 816 q 25 900 34 876 l 163 900 q 150 845 157 876 q 138 776 144 814 q 129 688 133 737 q 123 578 125 640 l 66 578 z "},"(":{"ha":321,"x_min":45,"x_max":304,"o":"m 304 893 q 304 882 304 891 q 304 864 304 873 q 304 846 304 854 q 303 838 304 838 q 255 822 277 838 q 216 778 233 806 q 185 711 198 749 q 162 627 172 672 q 149 532 153 582 q 144 432 144 482 q 154 288 144 357 q 184 163 164 218 q 234 76 203 109 q 304 43 264 43 l 304 -12 q 266 -17 286 -17 q 198 1 229 -17 q 143 51 168 19 q 100 125 118 82 q 69 220 81 169 q 51 327 57 271 q 45 439 45 382 q 51 553 45 496 q 69 660 57 609 q 100 755 81 711 q 143 830 119 798 q 198 880 168 862 q 265 898 229 898 q 304 893 286 898 z "},")":{"ha":321,"x_min":17,"x_max":277,"o":"m 17 893 q 56 898 36 898 q 123 880 93 898 q 178 830 154 862 q 221 755 203 798 q 252 660 240 711 q 271 553 264 609 q 277 439 277 496 q 271 327 277 382 q 252 220 264 271 q 222 125 240 169 q 179 51 203 82 q 123 1 154 19 q 56 -17 92 -17 q 17 -12 36 -17 l 17 43 q 88 76 58 43 q 138 163 118 109 q 167 288 157 218 q 177 432 177 357 q 173 532 177 482 q 159 627 168 582 q 137 711 150 672 q 106 778 123 749 q 66 822 88 806 q 18 838 44 838 q 17 846 17 838 q 17 864 17 854 q 17 882 17 873 q 17 893 17 891 z "},"*":{"ha":637,"x_min":30,"x_max":606,"o":"m 30 366 l 30 503 q 70 493 47 499 q 122 482 93 488 q 186 471 151 476 q 264 465 221 467 q 215 535 238 504 q 171 590 191 566 q 134 632 151 614 q 104 665 117 650 l 218 730 q 233 686 225 711 q 253 631 241 661 q 279 566 264 602 q 317 490 295 530 q 355 566 340 530 q 382 631 371 602 q 402 686 394 661 q 417 730 410 711 l 532 665 q 500 632 518 650 q 461 590 482 614 q 415 535 439 566 q 364 464 391 504 q 445 471 409 466 q 511 481 481 475 q 564 493 541 488 q 606 503 588 499 l 606 366 q 564 375 587 370 q 510 387 540 381 q 444 398 481 393 q 363 405 408 403 q 414 333 390 364 q 460 278 439 302 q 499 236 481 254 q 532 203 517 218 l 417 138 q 402 181 410 157 q 382 235 394 205 q 355 300 371 265 q 317 376 340 335 q 279 300 295 335 q 252 235 264 265 q 233 181 241 205 q 218 138 224 157 l 104 203 q 135 236 117 218 q 172 278 152 254 q 216 333 193 302 q 266 405 239 364 q 187 398 222 403 q 122 387 151 393 q 71 375 94 381 q 30 366 48 370 z "},"+":{"ha":395,"x_min":36,"x_max":358,"o":"m 149 527 l 245 527 q 236 478 239 508 q 232 401 233 448 q 307 404 276 401 q 358 414 338 406 l 358 317 q 309 325 339 322 q 232 330 279 328 q 236 252 233 281 q 245 205 239 222 l 149 205 q 155 253 152 223 q 160 330 159 283 q 83 326 113 329 q 36 317 53 323 l 36 414 q 84 406 54 410 q 161 401 114 403 q 159 476 161 445 q 149 527 157 507 z "},",":{"ha":208,"x_min":28,"x_max":175,"o":"m 28 -195 q 40 -99 37 -142 q 44 -22 43 -56 q 42 38 44 12 q 37 86 40 64 l 175 86 q 150 -1 163 45 q 122 -91 138 -40 q 85 -195 105 -141 l 28 -195 z "},"-":{"ha":389,"x_min":54,"x_max":335,"o":"m 335 428 l 335 304 q 284 318 316 313 q 197 323 252 323 q 105 322 138 323 q 54 310 71 320 l 54 427 q 107 414 73 420 q 198 408 142 408 q 281 411 248 408 q 335 428 314 413 z "},".":{"ha":199,"x_min":32,"x_max":169,"o":"m 32 48 q 37 75 32 62 q 52 97 43 87 q 73 112 61 106 q 100 117 85 117 q 126 112 114 117 q 149 97 139 106 q 163 75 158 87 q 169 48 169 62 q 163 22 169 34 q 149 0 158 9 q 126 -14 139 -9 q 100 -20 114 -20 q 52 0 71 -20 q 32 48 32 20 z "},"/":{"ha":328,"x_min":34,"x_max":294,"o":"m 208 900 l 294 900 l 121 0 l 34 0 l 208 900 z "},":":{"ha":252,"x_min":52,"x_max":200,"o":"m 52 104 q 58 131 52 119 q 72 153 63 144 q 94 168 81 163 q 120 174 106 174 q 147 168 134 174 q 169 153 159 163 q 184 131 178 144 q 189 104 189 119 q 184 78 189 90 q 169 57 178 66 q 147 42 159 47 q 120 37 134 37 q 72 56 92 37 q 52 104 52 76 m 63 460 q 68 487 63 474 q 83 509 74 499 q 104 524 92 518 q 131 529 117 529 q 158 524 145 529 q 180 509 170 518 q 195 487 189 499 q 200 460 200 474 q 195 433 200 446 q 180 412 189 421 q 158 397 170 403 q 131 392 145 392 q 83 412 102 392 q 63 460 63 431 z "},";":{"ha":260,"x_min":56,"x_max":202,"o":"m 56 -195 q 67 -99 64 -142 q 71 -22 71 -56 q 69 38 71 12 q 64 86 67 64 l 202 86 q 177 -1 191 45 q 149 -91 165 -40 q 113 -195 132 -141 l 56 -195 m 60 460 q 66 487 60 474 q 80 509 71 499 q 102 524 90 518 q 128 529 114 529 q 155 524 142 529 q 177 509 168 518 q 192 487 186 499 q 197 460 197 474 q 192 433 197 446 q 177 412 186 421 q 155 397 168 403 q 128 392 142 392 q 80 412 100 392 q 60 460 60 431 z "},"<":{"ha":515,"x_min":24,"x_max":450,"o":"m 24 359 q 165 432 98 398 q 222 461 193 446 q 277 489 251 475 q 326 512 304 502 q 361 529 347 523 q 389 543 376 536 q 412 557 401 549 q 431 575 423 565 q 445 600 439 585 l 450 600 l 450 433 l 444 433 q 428 451 438 446 q 406 456 418 456 q 383 452 395 456 q 363 444 372 448 q 340 433 355 440 q 307 417 326 427 q 267 398 288 408 q 224 378 245 388 q 116 326 174 354 q 224 273 174 297 q 267 253 245 263 q 307 234 288 243 q 340 217 326 224 q 363 207 355 210 q 383 199 372 203 q 406 195 395 195 q 428 200 418 195 q 444 218 438 205 l 450 218 l 450 52 l 445 52 q 431 76 439 66 q 412 94 423 86 q 389 108 401 102 q 361 122 376 115 q 326 139 347 128 q 277 162 304 149 q 222 190 251 175 q 165 219 193 205 q 24 292 98 252 l 24 359 z "},"=":{"ha":492,"x_min":64,"x_max":427,"o":"m 427 469 l 427 372 q 360 381 402 377 q 248 385 318 385 q 131 384 175 385 q 64 378 87 382 l 64 468 q 134 459 90 463 q 250 456 178 456 q 357 457 315 456 q 427 469 400 459 m 427 279 l 427 182 q 360 192 402 188 q 248 195 318 195 q 131 194 175 195 q 64 189 87 193 l 64 279 q 134 270 90 274 q 250 267 178 267 q 357 268 315 267 q 427 279 400 270 z "},">":{"ha":515,"x_min":65,"x_max":491,"o":"m 491 292 q 350 219 416 252 q 293 190 321 205 q 237 162 264 175 q 189 139 211 149 q 154 122 168 128 q 126 108 139 115 q 102 94 113 102 q 83 76 92 86 q 70 52 75 66 l 65 52 l 65 218 l 71 218 q 87 200 77 205 q 109 195 97 195 q 132 199 120 195 q 151 207 143 203 q 174 217 159 210 q 208 234 189 224 q 248 253 227 243 q 291 273 269 263 q 399 326 340 297 q 291 378 340 354 q 248 398 269 388 q 208 417 227 408 q 174 433 189 427 q 151 444 159 440 q 132 452 143 448 q 109 456 120 456 q 87 451 97 456 q 71 433 77 446 l 65 433 l 65 600 l 70 600 q 83 575 75 585 q 102 557 92 565 q 126 543 113 549 q 154 529 139 536 q 189 512 168 523 q 237 489 211 502 q 293 461 264 475 q 350 432 321 446 q 491 359 416 398 l 491 292 z "},"?":{"ha":501,"x_min":26,"x_max":473,"o":"m 161 183 q 177 286 161 241 q 217 368 193 331 q 268 437 240 405 q 319 504 296 469 q 358 577 342 538 q 374 667 374 616 q 363 729 374 703 q 334 773 352 756 q 293 799 315 791 q 247 808 270 808 q 196 796 218 808 q 159 765 174 784 q 136 724 144 747 q 128 678 128 701 q 133 647 128 662 q 146 621 137 632 q 168 603 155 610 q 199 596 181 596 q 226 598 212 596 l 127 528 q 49 600 73 559 q 26 686 26 642 q 43 765 26 726 q 90 834 60 804 q 159 883 119 864 q 242 901 198 901 q 336 887 293 901 q 409 844 378 872 q 456 772 439 815 q 473 673 473 730 q 463 582 473 621 q 434 512 452 543 q 395 457 417 481 q 349 411 372 433 q 303 367 326 389 q 263 318 281 345 q 235 259 246 292 q 224 183 224 227 l 161 183 m 123 48 q 129 75 123 62 q 143 97 134 87 q 165 112 153 106 q 191 117 177 117 q 218 112 205 117 q 240 97 231 106 q 255 75 250 87 q 260 48 260 62 q 255 22 260 34 q 240 0 250 9 q 218 -14 231 -9 q 191 -20 205 -20 q 143 0 163 -20 q 123 48 123 20 z "},"@":{"ha":830,"x_min":31,"x_max":804,"o":"m 804 342 q 788 253 804 292 q 749 185 773 213 q 695 143 725 158 q 635 128 665 128 q 566 154 597 128 q 522 236 534 180 q 502 190 513 212 q 475 152 491 168 q 438 126 460 136 q 387 117 416 117 q 319 131 347 117 q 273 171 291 146 q 245 229 254 196 q 237 298 237 261 q 242 354 237 325 q 257 411 247 383 q 283 465 268 439 q 317 509 298 490 q 360 539 336 528 q 412 551 385 551 q 455 544 433 551 q 501 524 477 538 q 519 532 509 530 q 542 534 530 534 q 571 529 558 534 q 585 517 585 524 q 584 501 585 516 q 582 464 583 486 q 580 415 581 441 q 577 365 578 389 q 576 324 576 342 q 575 302 575 307 q 590 223 575 250 q 629 196 605 196 q 656 203 642 196 q 682 228 670 211 q 702 273 694 245 q 709 340 709 300 q 692 449 709 395 q 639 543 674 502 q 551 610 604 585 q 427 635 498 635 q 303 608 357 635 q 214 534 250 580 q 160 432 178 489 q 142 315 142 374 q 159 213 142 262 q 211 126 176 164 q 298 65 245 88 q 420 42 350 42 q 498 48 463 42 q 566 65 533 54 l 603 -9 q 519 -31 562 -23 q 432 -39 475 -39 q 273 -15 346 -39 q 146 56 199 9 q 62 169 92 102 q 31 322 31 237 q 62 492 31 418 q 148 616 94 566 q 275 692 201 666 q 432 718 348 718 q 576 694 509 718 q 694 622 644 669 q 774 504 745 574 q 804 342 804 433 m 387 178 q 430 198 412 178 q 458 245 448 217 q 474 307 469 274 q 481 365 479 339 l 486 494 q 447 501 466 501 q 396 484 418 501 q 358 438 374 467 q 334 374 342 410 q 326 301 326 338 q 330 254 326 276 q 341 215 334 231 q 360 188 349 198 q 387 178 371 178 z "},"A":{"ha":524,"x_min":-54,"x_max":539,"o":"m 347 101 q 341 172 344 137 q 334 244 338 208 q 301 247 319 245 q 258 251 283 248 q 219 255 237 253 q 189 258 202 256 q 184 216 186 239 q 179 168 182 193 q 173 116 176 142 q 165 64 170 90 q 158 21 161 43 q 148 -21 154 -1 q 132 -58 142 -41 q 104 -88 121 -75 q 62 -108 87 -100 q 0 -115 37 -115 l -54 -27 l -52 -25 q -6 -37 -27 -37 q 38 -9 22 -37 q 64 68 55 18 q 81 164 73 109 q 96 277 90 219 q 109 391 103 336 q 119 489 114 447 q 135 646 127 568 q 146 810 142 724 q 138 860 149 838 q 103 892 127 882 l 93 897 l 92 900 l 428 900 l 427 897 l 416 892 q 381 860 392 882 q 374 810 371 838 q 386 646 378 724 q 404 489 394 568 q 425 307 414 400 q 454 104 436 213 q 483 41 463 68 q 538 3 502 15 l 539 0 l 295 0 l 294 3 q 339 40 327 15 q 347 101 351 64 m 259 303 q 297 303 279 303 q 328 304 314 304 l 314 464 q 310 499 313 477 q 305 550 308 522 q 299 610 302 578 q 294 673 296 642 q 279 833 286 747 l 246 833 q 231 678 238 751 q 224 615 227 647 q 218 555 221 583 q 213 503 215 526 q 209 464 210 479 q 201 377 204 416 q 194 303 198 338 l 259 303 z "},"B":{"ha":513,"x_min":37,"x_max":483,"o":"m 109 313 q 109 357 109 332 q 110 408 109 382 q 110 459 110 434 q 111 504 111 484 q 110 537 111 518 q 110 575 110 555 q 109 613 109 594 q 109 646 109 631 q 108 712 109 675 q 102 786 108 750 q 81 852 96 822 q 37 896 66 882 l 37 899 l 229 899 q 300 886 266 899 q 359 848 334 873 q 400 786 385 823 q 415 702 415 749 q 391 611 415 650 q 326 549 367 572 q 390 505 361 531 q 440 445 419 479 q 472 369 460 411 q 483 277 483 327 q 462 160 483 212 q 406 73 441 109 q 325 19 371 37 q 229 0 279 0 l 37 0 l 37 3 q 82 41 68 15 q 98 104 96 68 q 106 212 103 161 q 109 313 109 264 m 212 75 q 289 93 257 75 q 342 139 321 111 q 372 204 363 168 q 382 275 382 240 q 371 355 382 315 q 338 427 360 395 q 283 479 316 458 q 206 499 250 499 l 206 288 q 209 183 206 235 q 212 75 212 132 m 209 825 q 204 763 205 795 q 202 698 202 730 q 202 634 202 665 q 203 575 203 602 q 254 587 233 575 q 289 617 275 599 q 308 659 302 636 q 314 704 314 682 q 308 746 314 724 q 289 785 302 767 q 256 813 276 802 q 209 825 236 825 z "},"C":{"ha":570,"x_min":45,"x_max":548,"o":"m 486 261 l 548 130 q 447 24 507 60 q 318 -12 386 -12 q 209 19 259 -12 q 123 107 159 50 q 65 250 86 165 q 45 440 45 334 q 68 633 45 549 q 133 775 92 718 q 231 863 174 833 q 352 893 287 893 q 427 878 392 893 q 489 838 463 862 q 531 785 515 814 q 547 730 547 756 q 519 673 547 695 l 432 614 l 430 618 q 454 653 446 633 q 461 693 461 673 q 452 739 461 716 q 428 779 444 761 q 391 808 413 797 q 345 819 370 819 q 286 803 313 819 q 237 761 258 788 q 199 697 216 734 q 172 618 183 661 q 156 528 161 575 q 151 433 151 480 q 160 296 151 362 q 190 177 170 229 q 240 93 210 125 q 311 62 270 62 q 372 77 344 62 q 421 120 399 93 q 459 183 444 146 q 484 261 474 219 l 486 261 z "},"D":{"ha":561,"x_min":33,"x_max":515,"o":"m 287 900 q 375 876 334 900 q 448 805 416 852 q 497 688 479 758 q 515 528 515 618 q 490 308 515 406 q 426 142 466 210 q 333 37 385 73 q 224 0 280 0 l 33 0 l 33 3 q 82 41 67 15 q 100 104 98 68 q 108 307 105 213 q 111 489 111 400 q 109 646 111 568 q 100 810 108 724 q 80 864 97 842 q 33 897 64 887 l 33 900 l 287 900 m 208 75 q 273 93 243 75 q 325 143 302 111 q 365 218 348 175 q 392 311 381 261 q 408 416 403 361 q 414 526 414 471 q 405 633 414 580 q 379 729 397 686 q 335 798 362 772 q 271 825 308 825 l 208 825 q 204 696 205 761 q 203 639 203 669 q 202 578 203 609 q 202 519 202 548 q 201 464 201 490 q 204 281 201 372 q 208 101 208 191 l 208 75 z "},"E":{"ha":443,"x_min":28,"x_max":415,"o":"m 212 50 q 283 56 251 52 q 344 74 315 60 q 373 103 363 83 q 380 146 382 122 l 382 146 q 397 80 391 107 q 408 35 404 52 q 415 0 412 14 l 28 0 l 28 3 q 81 41 62 15 q 102 104 99 67 q 111 306 109 210 q 113 489 113 403 q 112 640 113 565 q 102 796 111 715 q 81 859 99 833 q 28 897 62 885 l 28 900 l 415 900 q 408 865 412 886 q 397 820 404 848 q 382 754 391 793 l 380 754 q 373 797 382 778 q 344 826 363 817 q 283 844 315 840 q 212 850 251 848 q 206 683 208 766 q 203 519 204 601 q 247 519 226 519 q 286 521 267 519 q 340 542 321 524 q 364 585 359 559 l 366 585 l 366 399 l 364 399 q 339 443 359 425 q 284 464 319 460 q 247 466 267 466 q 203 467 227 466 l 203 464 q 206 256 203 363 q 212 50 208 149 z "},"F":{"ha":440,"x_min":28,"x_max":422,"o":"m 385 309 q 356 351 378 335 q 304 373 334 368 q 258 378 282 376 q 204 382 233 380 q 205 248 205 315 q 210 115 206 182 q 231 44 213 73 q 287 3 250 16 l 287 0 l 28 0 l 28 3 q 83 46 67 16 q 102 117 99 77 q 110 313 107 222 q 113 489 113 404 q 112 640 113 565 q 103 796 111 715 q 81 859 100 833 q 28 897 63 885 l 28 900 l 422 900 q 410 847 416 873 q 397 800 404 825 q 385 755 391 774 l 382 755 q 372 804 387 786 q 333 832 357 823 q 276 845 308 842 q 213 850 244 848 q 206 656 208 751 q 204 464 204 560 l 204 435 q 257 437 233 435 q 306 444 281 439 q 360 466 340 450 q 385 509 379 483 l 387 509 l 387 309 l 385 309 z "},"G":{"ha":631,"x_min":47,"x_max":609,"o":"m 419 618 q 443 653 435 633 q 450 693 450 673 q 441 739 450 716 q 417 779 433 761 q 380 808 402 797 q 334 819 359 819 q 279 803 304 819 q 234 761 254 788 q 199 697 214 734 q 174 618 184 661 q 158 528 163 575 q 153 433 153 480 q 163 296 153 362 q 191 177 172 229 q 239 93 210 125 q 307 62 268 62 q 385 78 351 62 q 441 120 418 94 q 445 274 445 208 q 439 387 444 340 q 418 441 435 419 q 371 474 402 464 l 371 477 l 609 477 l 609 474 q 539 376 539 452 q 538 313 539 349 q 536 239 537 277 q 536 165 536 201 q 539 101 536 130 q 558 40 543 64 q 609 3 574 15 l 609 0 l 473 0 q 446 31 453 9 q 287 -12 373 -12 q 192 19 236 -12 q 116 107 148 50 q 66 250 84 165 q 47 440 47 334 q 70 633 47 549 q 132 775 92 718 q 225 863 172 833 q 341 893 279 893 q 416 878 381 893 q 478 838 452 862 q 520 785 505 814 q 536 730 536 756 q 509 673 536 695 l 421 614 l 419 618 z "},"H":{"ha":631,"x_min":-10,"x_max":604,"o":"m 604 897 q 551 869 569 888 q 528 823 534 851 q 523 643 524 732 q 521 464 521 553 q 523 271 521 366 q 528 79 525 175 q 551 32 534 52 q 604 3 569 13 l 604 0 l 345 0 l 345 3 q 396 32 380 13 q 417 79 412 52 q 426 289 422 192 q 430 474 429 385 q 388 477 414 476 q 319 479 361 479 q 243 477 271 479 q 201 473 216 475 l 201 464 q 201 370 201 420 q 200 269 201 320 q 200 170 200 218 q 199 79 199 121 q 196 12 198 46 q 179 -51 193 -23 q 134 -97 165 -79 q 44 -115 102 -115 l -10 -30 l -8 -27 q 19 -33 7 -31 q 41 -35 31 -35 q 64 -30 55 -35 q 81 -12 74 -25 q 91 22 87 1 q 98 75 95 43 q 104 165 101 117 q 108 265 106 214 q 111 364 110 315 q 112 455 112 413 q 108 638 112 548 q 98 829 104 728 q 74 870 91 853 q 25 897 56 888 l 25 900 l 283 900 l 283 897 q 231 870 249 888 q 208 824 214 852 q 203 679 205 751 q 201 535 201 607 q 245 532 216 534 q 319 531 273 531 q 386 532 359 531 q 430 534 413 533 q 426 679 429 606 q 418 829 423 751 q 394 870 411 853 q 345 897 377 888 l 345 900 l 604 900 l 604 897 z "},"I":{"ha":310,"x_min":33,"x_max":277,"o":"m 277 897 q 208 798 208 874 q 204 679 205 739 q 203 625 203 653 q 202 570 203 597 q 202 515 202 542 q 201 464 201 488 q 202 281 201 372 q 208 101 202 191 q 227 40 210 64 q 277 3 243 15 l 277 0 l 33 0 l 33 3 q 82 41 67 15 q 100 104 97 68 q 107 307 104 213 q 111 489 111 400 q 110 646 111 568 q 100 810 109 724 q 80 864 97 842 q 33 897 64 887 l 33 900 l 277 900 l 277 897 z "},"J":{"ha":444,"x_min":1,"x_max":424,"o":"m 159 43 q 214 67 195 43 q 242 139 233 91 q 253 261 252 187 q 254 435 254 335 q 253 617 254 526 q 243 810 252 709 q 223 864 241 842 q 176 897 206 887 l 176 900 l 424 900 l 424 897 q 354 798 354 874 q 351 660 352 729 q 350 598 350 630 q 349 533 349 566 q 348 469 349 500 q 348 410 348 437 q 347 299 348 355 q 340 194 346 244 q 322 100 334 143 q 288 24 310 56 q 232 -26 265 -8 q 149 -45 198 -45 q 85 -35 113 -45 q 39 -7 58 -24 q 10 33 20 10 q 1 81 1 56 q 8 125 1 103 q 31 169 15 147 l 154 203 l 156 200 q 115 161 127 182 q 102 115 102 139 q 106 90 102 102 q 118 66 110 77 q 136 50 125 56 q 159 43 146 43 z "},"K":{"ha":524,"x_min":33,"x_max":648,"o":"m 277 897 q 208 798 208 874 q 205 710 206 755 q 203 624 203 671 q 201 530 202 576 q 234 594 219 566 q 263 651 248 623 q 296 713 279 680 q 338 792 314 746 q 373 852 355 825 q 413 900 391 880 q 462 932 435 920 q 524 945 489 943 l 564 785 l 559 783 q 507 809 533 809 q 468 794 487 809 q 433 755 449 779 q 367 656 401 708 q 302 556 333 605 q 347 430 322 496 q 398 297 371 363 q 453 164 425 230 q 509 39 481 98 q 526 5 517 22 q 545 -23 534 -11 q 567 -44 555 -36 q 594 -52 578 -52 q 617 -47 605 -52 q 645 -32 630 -43 l 648 -34 l 600 -149 q 528 -136 557 -149 q 476 -100 498 -123 q 439 -47 454 -77 q 411 16 423 -18 q 381 95 397 51 q 349 184 366 138 q 315 274 332 229 q 286 357 299 319 l 250 469 q 221 421 233 441 q 201 387 209 400 q 202 243 201 315 q 208 101 203 172 q 226 40 210 64 q 277 3 243 15 l 277 0 l 33 0 l 33 3 q 82 41 67 15 q 100 104 97 68 q 107 307 104 213 q 111 489 111 400 q 110 646 111 568 q 100 810 109 724 q 80 864 97 842 q 33 897 64 887 l 33 900 l 277 900 l 277 897 z "},"L":{"ha":511,"x_min":28,"x_max":514,"o":"m 351 64 q 344 118 349 87 q 335 180 340 148 q 326 246 330 213 q 319 307 321 279 q 335 435 311 380 q 419 522 359 490 l 514 389 l 512 386 q 486 392 498 391 q 464 393 474 393 q 421 370 436 391 q 406 311 406 349 q 412 235 407 275 q 423 156 417 196 q 434 76 429 115 q 439 0 439 37 l 28 0 l 28 3 q 83 46 67 16 q 102 117 100 77 q 111 313 109 222 q 113 489 113 404 q 111 640 113 565 q 103 796 109 715 q 80 859 98 833 q 28 897 63 885 l 28 900 l 287 900 l 287 897 q 231 856 248 884 q 210 785 213 827 q 207 720 208 756 q 205 641 206 683 q 204 554 205 600 q 204 464 204 509 q 206 256 204 359 q 212 51 208 153 q 240 53 223 52 q 275 56 256 54 q 313 59 294 57 q 351 64 333 61 z "},"M":{"ha":770,"x_min":-35,"x_max":778,"o":"m 73 75 q 81 164 77 122 q 87 249 84 207 q 94 333 90 290 q 101 423 97 376 q 105 477 103 448 q 110 535 108 506 q 114 594 112 565 q 118 651 116 624 q 125 778 122 714 q 126 786 126 782 q 126 793 126 789 q 50 897 126 870 l 51 900 l 187 900 q 202 889 195 900 q 215 860 209 878 q 227 821 222 842 q 237 779 233 800 q 245 741 241 758 q 250 715 248 724 q 269 651 258 685 q 290 581 279 616 q 312 509 300 545 q 333 440 323 473 q 382 283 357 363 q 453 520 420 412 q 480 612 467 566 q 505 697 494 658 q 525 767 516 737 q 536 810 533 796 q 543 842 541 826 q 551 871 545 858 q 569 892 557 884 q 604 900 581 900 l 701 900 l 702 897 q 640 810 640 876 q 640 804 640 807 q 640 798 640 802 q 644 739 642 781 q 650 641 646 698 q 659 514 654 583 q 669 374 663 446 q 683 232 675 302 q 699 101 690 161 q 724 40 705 64 q 777 3 743 15 l 778 0 l 533 0 l 532 3 q 579 41 567 15 q 591 104 591 68 q 588 209 589 159 q 584 307 586 259 q 578 399 581 354 q 570 489 574 445 l 561 614 q 527 498 547 559 q 486 376 507 437 q 446 258 465 315 q 415 152 427 200 q 406 118 410 136 q 397 87 401 101 q 388 64 393 73 q 376 55 382 55 q 365 64 370 55 q 355 86 359 73 q 346 118 350 100 q 336 152 341 135 q 305 256 322 201 q 271 370 288 312 q 235 487 253 428 q 201 600 217 545 q 186 337 195 468 q 174 79 178 207 q 172 35 173 58 q 166 -10 171 12 q 153 -51 162 -32 q 127 -84 144 -70 q 84 -107 111 -99 q 19 -115 58 -115 l -35 -30 l -33 -27 q -6 -33 -18 -31 q 16 -35 6 -35 q 39 -30 30 -35 q 55 -12 49 -25 q 65 22 62 1 q 73 75 69 43 z "},"N":{"ha":633,"x_min":-11,"x_max":605,"o":"m 469 0 l 466 0 l 469 0 m 97 75 q 110 251 106 163 q 113 428 113 339 q 112 588 113 509 q 103 755 110 667 q 77 845 98 808 q 15 897 56 883 l 15 900 l 148 900 q 151 887 147 897 q 163 861 155 878 q 188 813 172 844 q 236 708 209 767 q 291 589 262 650 q 346 469 319 528 q 394 365 372 411 q 428 290 415 319 q 441 260 441 261 q 444 377 443 318 q 445 489 445 436 q 444 646 445 568 q 435 810 442 724 q 415 864 431 842 q 367 897 398 887 l 367 900 l 605 900 l 605 897 q 535 798 535 874 q 534 720 535 769 q 530 611 532 671 q 526 486 528 551 q 522 357 524 420 q 520 241 520 295 q 522 151 519 187 q 541 57 523 96 q 589 3 558 18 l 589 0 l 469 0 q 470 3 470 1 q 468 14 471 6 q 460 36 466 22 q 443 73 454 50 q 401 168 426 113 q 349 282 376 222 q 295 400 322 342 q 247 506 269 459 q 212 583 225 553 q 199 615 199 613 q 197 532 197 572 q 197 464 197 492 q 198 269 197 365 q 198 79 199 174 q 195 12 197 46 q 178 -51 193 -23 q 133 -97 164 -79 q 43 -115 102 -115 l -11 -30 l -9 -27 q 18 -33 6 -31 q 40 -35 31 -35 q 64 -30 54 -35 q 80 -12 73 -25 q 91 22 87 1 q 97 75 94 43 z "},"O":{"ha":634,"x_min":47,"x_max":588,"o":"m 588 440 q 566 251 588 334 q 507 109 544 167 q 421 19 469 50 q 320 -12 373 -12 q 211 19 261 -12 q 125 107 161 50 q 67 250 88 165 q 47 440 47 334 q 68 633 47 549 q 126 775 89 718 q 213 863 163 833 q 320 893 262 893 q 424 863 375 893 q 509 775 473 833 q 567 633 546 718 q 588 440 588 549 m 313 68 q 386 99 355 68 q 438 182 418 130 q 470 301 459 234 q 480 438 480 368 q 470 577 480 509 q 438 697 459 644 q 386 782 417 750 q 313 814 354 814 q 243 781 273 814 q 193 695 214 749 q 163 573 173 642 q 153 433 153 505 q 157 341 153 386 q 170 255 161 296 q 192 180 179 214 q 223 121 205 146 q 263 82 241 96 q 313 68 286 68 z "},"P":{"ha":502,"x_min":33,"x_max":460,"o":"m 33 900 l 300 900 q 362 883 333 900 q 413 833 391 866 q 447 753 435 801 q 460 642 460 705 q 455 551 460 600 q 439 452 450 501 q 409 356 428 402 q 361 276 389 311 q 293 223 332 242 q 203 208 254 204 q 205 154 204 181 q 208 101 206 127 q 227 40 210 64 q 277 3 243 15 l 277 0 l 33 0 l 33 3 q 82 41 67 15 q 100 104 97 68 q 107 307 104 213 q 111 489 111 400 q 110 646 111 568 q 100 810 109 724 q 80 864 97 842 q 33 897 64 887 l 33 900 m 201 464 q 202 375 201 419 q 203 286 202 331 q 318 375 284 286 q 351 642 351 464 q 330 780 351 732 q 266 827 309 827 q 237 827 252 827 q 208 825 221 827 l 208 798 q 204 679 205 739 q 203 625 203 653 q 202 570 203 597 q 202 515 202 542 q 201 464 201 488 z "},"Q":{"ha":638,"x_min":47,"x_max":607,"o":"m 604 -157 q 584 -117 599 -142 q 538 -69 570 -92 q 455 -29 507 -45 q 323 -12 403 -12 q 284 -15 303 -12 q 249 -20 265 -18 q 222 -24 233 -23 q 205 -22 210 -25 q 202 -11 200 -19 q 217 15 205 -2 q 147 75 178 37 q 94 168 116 114 q 59 290 71 222 q 47 440 47 359 q 68 633 47 549 q 126 775 89 718 q 213 863 163 833 q 320 893 262 893 q 424 863 375 893 q 509 775 473 833 q 567 633 546 718 q 588 440 588 549 q 579 314 588 373 q 553 206 570 255 q 513 118 536 157 q 462 52 490 79 q 514 41 492 47 q 549 31 535 36 q 576 19 566 24 l 607 -156 l 604 -157 m 302 62 q 313 62 305 62 q 386 94 355 62 q 438 180 418 127 q 470 300 459 233 q 480 438 480 368 q 475 532 480 486 q 461 621 471 579 q 438 700 452 663 q 405 762 424 736 q 363 804 387 789 q 313 819 340 819 q 264 803 286 819 q 224 761 242 788 q 193 697 207 734 q 171 618 180 661 q 157 528 161 575 q 153 433 153 480 q 162 300 153 365 q 190 184 171 235 q 236 99 208 132 q 302 62 264 66 z "},"R":{"ha":522,"x_min":33,"x_max":596,"o":"m 456 45 q 471 9 463 26 q 490 -22 479 -8 q 513 -43 500 -35 q 542 -52 526 -52 q 565 -47 553 -52 q 593 -32 578 -43 l 596 -34 l 547 -149 q 472 -136 504 -149 q 418 -99 441 -122 q 381 -45 396 -76 q 357 22 367 -14 l 255 399 q 245 396 253 397 q 230 394 238 395 q 213 392 221 393 q 203 391 205 391 q 204 320 203 357 q 205 246 204 283 q 206 172 205 208 q 208 101 207 135 q 227 40 210 64 q 277 3 243 15 l 277 0 l 33 0 l 33 3 q 82 41 67 15 q 100 104 97 68 q 107 307 104 213 q 111 489 111 400 q 110 646 111 568 q 100 810 109 724 q 80 864 97 842 q 33 897 64 887 l 33 900 l 273 900 q 352 887 315 900 q 415 848 389 873 q 458 784 442 822 q 473 696 473 746 q 437 528 473 596 q 340 429 400 460 q 392 241 366 335 q 456 45 418 146 m 201 525 q 201 498 201 511 q 201 469 201 485 q 324 526 286 469 q 361 696 361 583 q 337 794 361 760 q 262 827 312 827 q 235 827 250 827 q 208 825 219 827 l 208 798 q 204 700 205 749 q 202 611 203 658 q 201 525 201 564 z "},"S":{"ha":441,"x_min":22,"x_max":420,"o":"m 192 60 q 229 68 212 60 q 258 91 245 77 q 277 123 270 105 q 283 159 283 140 q 266 254 283 209 q 222 341 248 298 q 164 425 195 383 q 107 511 134 467 q 63 602 81 555 q 45 704 45 650 q 60 778 45 743 q 102 840 75 813 q 168 883 129 867 q 256 899 207 899 q 337 877 295 899 q 420 814 379 855 l 325 659 l 322 661 q 329 713 329 688 q 321 762 329 741 q 301 798 313 783 q 275 819 290 812 q 248 827 261 827 q 208 819 226 827 q 176 798 189 811 q 155 766 163 785 q 148 728 148 748 q 166 641 148 686 q 212 551 184 597 q 271 459 239 506 q 331 366 303 412 q 376 272 358 319 q 395 180 395 226 q 381 106 395 141 q 340 45 367 71 q 275 3 313 18 q 186 -12 236 -12 q 106 10 148 -12 q 22 73 64 32 l 118 208 l 121 206 q 113 182 115 194 q 111 159 111 170 q 118 119 111 138 q 137 88 125 101 q 162 67 148 75 q 192 60 177 60 z "},"T":{"ha":492,"x_min":21,"x_max":471,"o":"m 21 900 q 135 895 79 897 q 248 893 191 893 q 360 895 304 893 q 471 900 415 897 l 471 864 q 469 755 471 829 l 465 755 q 449 792 465 778 q 409 813 433 806 q 355 824 385 821 q 298 828 326 827 q 297 774 298 808 q 296 697 296 740 q 295 608 296 655 q 294 516 294 561 q 293 432 294 471 q 293 366 293 393 q 294 233 293 299 q 299 101 294 167 q 318 40 301 64 q 369 3 334 15 l 369 0 l 124 0 l 124 3 q 174 41 159 15 q 191 104 189 68 q 197 209 195 159 q 200 307 199 259 q 202 399 201 354 q 202 489 202 445 q 201 655 202 572 q 194 828 201 737 q 138 824 168 827 q 84 813 109 821 q 43 792 59 806 q 26 755 26 778 l 23 755 q 21 819 22 792 q 21 864 21 846 l 21 900 z "},"U":{"ha":629,"x_min":20,"x_max":602,"o":"m 602 897 q 532 798 532 874 q 528 679 530 739 q 527 625 528 653 q 527 570 527 597 q 526 515 526 542 q 526 464 526 488 q 526 370 526 413 q 527 286 526 328 q 527 202 527 245 q 527 111 527 160 q 546 71 529 87 q 602 47 564 54 l 602 43 l 433 -20 q 428 2 430 -12 q 426 34 427 16 q 348 -1 389 9 q 267 -12 306 -12 q 207 0 235 -12 q 155 37 178 12 q 118 98 132 61 q 100 184 103 135 q 94 332 96 256 q 92 485 93 407 q 89 645 92 564 q 81 810 87 726 q 63 864 78 842 q 20 897 48 887 l 20 900 l 264 900 l 264 897 q 216 861 233 885 q 198 798 198 836 q 195 652 196 725 q 194 587 194 621 q 193 519 193 553 q 192 452 193 485 q 192 389 192 418 q 198 224 192 287 q 218 126 205 161 q 253 79 232 91 q 304 67 275 67 q 363 77 331 67 q 426 109 395 87 q 429 309 428 216 q 430 489 430 401 q 429 646 430 568 q 420 810 428 724 q 400 864 416 842 q 352 897 383 887 l 352 900 l 602 900 l 602 897 z "},"V":{"ha":501,"x_min":-28,"x_max":530,"o":"m 128 3 l 138 7 q 173 40 163 18 q 182 90 184 62 q 162 254 174 176 q 136 411 149 332 q 101 593 120 499 q 57 796 81 687 q 29 859 48 832 q -27 897 9 885 l -28 900 l 216 900 l 217 897 q 173 860 184 885 q 164 799 161 836 q 191 618 175 709 q 222 436 206 528 q 235 341 228 393 q 251 240 243 289 q 266 341 258 289 q 280 436 274 393 q 311 618 296 528 q 338 799 327 709 q 329 860 341 836 q 285 897 317 885 l 286 900 l 530 900 l 529 897 q 473 859 492 885 q 445 796 454 832 q 401 593 420 687 q 366 411 382 499 q 340 254 353 332 q 320 90 328 176 q 328 40 317 62 q 363 7 339 18 l 374 3 l 374 0 l 127 0 l 128 3 z "},"W":{"ha":812,"x_min":-28,"x_max":840,"o":"m 439 3 l 449 7 q 484 32 473 15 q 492 70 494 49 q 475 226 486 151 q 452 376 464 302 q 427 525 439 450 q 406 680 415 600 q 384 525 396 600 q 359 376 372 450 q 337 226 347 302 q 319 70 326 151 q 328 32 317 49 q 362 7 338 15 l 373 3 l 374 0 l 127 0 l 127 3 l 138 7 q 173 40 162 18 q 181 90 183 62 q 161 254 174 176 q 135 411 149 332 q 100 593 119 499 q 56 796 81 687 q 28 859 47 832 q -28 897 9 885 l -28 900 l 216 900 l 216 897 q 172 860 184 885 q 163 799 160 836 q 190 605 174 703 q 221 409 205 507 q 235 303 227 361 q 250 193 242 246 q 266 303 258 246 q 279 409 273 361 q 311 605 295 507 q 337 799 326 703 q 329 859 340 834 q 287 895 317 884 l 283 897 l 283 900 l 529 900 l 528 897 l 524 895 q 483 859 494 884 q 475 799 471 834 q 501 605 486 703 q 532 409 517 507 q 546 303 538 361 q 562 193 553 246 q 577 303 569 246 q 591 409 585 361 q 622 605 606 507 q 648 799 637 703 q 640 860 652 836 q 595 897 628 885 l 596 900 l 840 900 l 840 897 q 784 859 803 885 q 755 796 764 832 q 712 593 731 687 q 677 411 692 499 q 651 254 663 332 q 631 90 638 176 q 639 40 628 62 q 673 7 650 18 l 684 3 l 685 0 l 438 0 l 439 3 z "},"X":{"ha":533,"x_min":-27,"x_max":556,"o":"m -27 900 l 217 900 l 218 897 q 182 864 191 887 q 183 810 174 842 q 220 690 201 748 q 261 575 240 633 q 297 690 280 633 q 330 810 315 748 q 328 864 337 842 q 290 897 319 887 l 291 900 l 536 900 l 535 897 q 433 798 458 874 q 390 679 411 739 q 371 625 380 653 q 351 570 361 597 q 333 515 342 542 q 315 464 323 488 q 313 456 314 460 q 310 448 311 452 q 375 284 340 368 q 450 104 409 201 q 491 41 466 68 q 555 3 517 15 l 556 0 l 312 0 l 311 3 q 349 40 342 15 q 344 101 355 64 q 307 210 326 155 q 267 319 288 264 q 233 210 250 264 q 201 101 216 155 q 199 40 191 64 q 238 3 208 15 l 237 0 l -7 0 l -6 3 q 57 41 33 15 q 95 104 81 68 q 162 284 132 201 q 218 448 192 368 l 213 464 q 194 515 204 488 q 172 570 183 542 q 150 625 161 597 q 129 679 139 653 q 81 798 105 739 q -26 897 51 874 l -27 900 z "},"Y":{"ha":495,"x_min":-31,"x_max":526,"o":"m 123 3 q 174 49 155 11 q 194 147 193 87 l 196 224 q 179 321 189 274 q 158 413 170 368 q 135 504 147 459 q 112 594 123 549 q 84 691 99 641 q 54 796 69 741 q 25 858 43 831 q -31 897 6 885 l -31 900 l 213 900 l 214 897 q 169 860 181 885 q 161 799 156 836 q 179 700 168 747 q 202 605 191 652 q 226 510 214 558 q 248 411 238 463 q 269 510 257 463 q 293 605 281 558 q 316 700 305 652 q 334 799 327 747 q 326 860 338 836 q 281 897 314 885 l 282 900 l 526 900 l 526 897 q 470 858 489 885 q 441 796 452 831 q 411 691 426 741 q 383 594 396 641 q 361 510 372 551 q 338 426 349 468 q 318 340 328 383 q 302 250 309 296 l 300 151 q 301 103 300 125 q 309 63 302 81 q 328 30 315 45 q 366 3 341 14 l 366 0 l 123 0 l 123 3 z "},"Z":{"ha":460,"x_min":-9,"x_max":475,"o":"m 193 464 q 235 642 216 554 q 272 823 254 730 q 189 818 231 821 q 113 806 147 815 q 56 778 78 796 q 35 728 35 760 l 29 728 q 30 781 29 751 q 31 838 30 811 q 34 900 33 869 l 475 900 l 475 897 q 412 859 437 885 q 375 796 388 833 q 329 640 347 715 q 291 489 310 564 q 248 313 269 403 q 204 117 227 222 q 201 77 200 94 q 280 82 240 79 q 354 95 321 85 q 409 123 387 104 q 433 172 431 141 l 439 172 q 433 119 437 149 q 427 62 430 89 q 419 0 423 31 l -9 0 l -8 3 q 57 44 32 16 q 95 115 83 73 q 121 200 108 155 q 147 289 134 244 q 171 378 159 334 q 193 464 183 422 z "},"[":{"ha":346,"x_min":37,"x_max":328,"o":"m 191 77 q 236 78 213 77 q 277 81 259 79 q 319 84 299 82 l 328 0 l 37 0 l 37 3 q 75 41 62 15 q 91 104 89 67 q 100 263 98 185 q 101 418 101 342 q 100 603 101 511 q 91 796 100 695 q 75 859 89 833 q 37 897 62 885 l 37 900 l 328 900 l 319 816 q 277 819 299 818 q 236 821 259 821 q 191 823 213 822 l 191 77 z "},"\\":{"ha":328,"x_min":33,"x_max":294,"o":"m 294 0 l 207 0 l 33 900 l 120 900 l 294 0 z "},"]":{"ha":345,"x_min":18,"x_max":309,"o":"m 155 823 q 110 821 132 822 q 68 819 87 821 q 27 816 47 818 l 18 900 l 309 900 l 309 897 q 271 859 284 885 q 255 796 257 833 q 245 603 245 695 q 245 418 245 511 q 246 263 245 342 q 255 103 248 184 q 271 40 257 66 q 309 3 284 14 l 309 -1 l 18 -1 l 27 83 q 68 80 47 81 q 110 78 87 79 q 155 77 132 77 l 155 823 z "},"^":{"ha":421,"x_min":17,"x_max":404,"o":"m 271 576 q 316 370 294 469 q 336 284 326 328 q 357 199 347 240 q 378 121 368 157 q 398 57 389 84 q 401 49 400 52 q 404 45 401 46 q 383 54 399 49 q 331 59 367 59 q 290 57 313 59 q 297 77 296 65 q 298 106 298 89 q 291 178 298 135 q 270 274 283 220 q 242 390 258 327 q 210 524 227 453 q 178 390 194 453 q 150 274 163 327 q 130 178 138 220 q 122 106 122 135 q 123 77 122 89 q 130 57 124 65 q 90 59 106 59 q 38 54 54 59 q 17 45 22 49 q 20 49 19 46 q 22 57 20 52 q 42 121 31 84 q 63 199 52 157 q 84 284 73 240 q 104 370 95 328 q 149 576 127 469 l 271 576 z "},"_":{"ha":511,"x_min":20,"x_max":491,"o":"m 491 46 l 491 -51 q 403 -42 458 -45 q 258 -38 348 -38 q 107 -39 164 -38 q 20 -45 51 -40 l 20 45 q 110 37 53 41 q 259 33 168 33 q 400 35 345 33 q 491 46 456 37 z "},"`":{"ha":191,"x_min":7,"x_max":161,"o":"m 161 707 l 105 694 q 77 790 94 740 q 45 881 60 840 q 7 975 26 929 l 144 975 q 150 893 147 937 q 155 808 153 856 q 161 707 158 760 z "},"a":{"ha":463,"x_min":37,"x_max":444,"o":"m 168 456 l 53 527 q 80 604 62 575 q 120 648 98 633 q 166 668 142 663 q 215 673 191 673 q 341 612 299 673 q 382 434 382 552 q 381 327 382 372 q 381 250 381 282 q 381 198 381 218 q 380 164 380 177 q 380 142 380 151 q 380 127 380 134 q 382 92 380 111 q 391 55 385 73 q 410 24 397 38 q 444 3 422 10 l 444 0 l 338 0 q 315 26 323 9 q 302 62 307 42 q 290 40 298 54 q 267 13 281 26 q 232 -10 252 -1 q 186 -20 212 -20 q 119 -4 147 -20 q 73 38 91 12 q 45 99 54 64 q 37 170 37 133 q 51 263 37 216 q 93 346 66 309 q 157 406 119 383 q 240 429 194 429 q 284 425 263 429 q 279 513 284 479 q 265 568 275 548 q 241 594 256 587 q 208 602 227 602 q 180 596 191 602 q 162 581 169 591 q 152 559 155 572 q 149 532 149 547 q 154 494 149 513 q 170 458 160 474 l 168 456 m 197 52 q 240 72 223 52 q 266 119 256 91 q 280 180 276 148 q 284 238 284 212 l 284 368 q 245 374 264 374 q 197 358 218 374 q 161 317 176 342 q 140 257 147 291 q 132 188 132 223 q 136 136 132 161 q 149 93 140 112 q 169 63 157 75 q 197 52 181 52 z "},"b":{"ha":568,"x_min":-5,"x_max":526,"o":"m 12 0 l 12 3 q 67 46 51 16 q 86 117 83 77 q 90 313 87 222 q 94 489 94 404 q 93 636 94 576 q 90 738 93 697 q 82 802 87 779 q 65 838 76 826 q 37 853 54 850 q -5 856 20 856 l -5 859 l 193 913 q 189 862 191 894 q 187 793 188 831 q 185 715 186 756 q 184 636 184 675 q 294 673 241 673 q 387 651 345 673 q 461 587 430 629 q 509 484 492 545 q 526 347 526 424 q 512 204 526 270 q 470 91 498 139 q 400 17 442 43 q 302 -10 357 -10 q 263 -8 286 -10 q 216 -5 241 -7 q 163 -2 191 -3 q 109 0 136 0 l 12 0 m 184 423 q 185 241 183 336 q 191 59 187 147 q 244 54 220 56 q 290 52 269 52 q 345 71 320 52 q 387 127 370 90 q 415 220 405 165 q 425 347 425 275 q 388 543 425 477 q 276 608 352 608 q 234 601 256 608 q 184 578 211 594 l 184 570 l 184 423 z "},"c":{"ha":498,"x_min":41,"x_max":483,"o":"m 423 191 l 456 99 q 380 10 425 40 q 281 -20 336 -20 q 186 3 230 -20 q 110 70 142 26 q 60 178 78 114 q 41 326 41 243 q 59 474 41 410 q 106 583 76 538 q 177 650 136 627 q 267 673 218 673 q 352 657 316 673 q 412 615 387 642 q 454 549 437 587 q 483 466 471 511 l 351 397 l 349 400 q 368 434 362 417 q 374 467 374 450 q 370 512 374 488 q 355 555 366 536 q 325 588 344 575 q 276 602 306 602 q 223 585 248 602 q 181 534 199 568 q 153 449 163 500 q 143 326 143 397 q 181 121 143 190 q 287 52 219 52 q 333 62 312 52 q 372 92 355 73 q 401 136 389 111 q 420 191 413 161 l 423 191 z "},"d":{"ha":541,"x_min":43,"x_max":532,"o":"m 450 423 q 450 268 449 343 q 456 115 451 193 q 477 44 458 73 q 532 3 495 16 l 532 0 l 407 0 q 374 26 385 9 q 357 62 363 42 q 345 42 353 54 q 323 19 336 30 q 291 -1 310 7 q 248 -10 273 -9 q 159 16 197 -11 q 95 91 121 43 q 56 204 69 138 q 43 347 43 270 q 59 484 43 424 q 103 587 75 545 q 170 651 131 629 q 256 673 209 673 q 282 670 268 673 q 311 660 296 667 q 337 641 325 652 q 358 614 350 630 q 357 723 358 677 q 348 798 357 768 q 320 842 340 827 q 261 856 300 856 l 261 859 l 458 913 q 454 848 456 889 q 452 758 453 806 q 451 661 451 710 q 450 570 450 611 l 450 423 m 259 52 q 323 89 295 52 q 354 201 351 126 q 357 265 356 235 q 358 324 358 295 q 359 381 359 353 q 359 440 359 410 q 349 535 359 501 q 325 585 339 569 q 297 604 311 601 q 273 608 282 608 q 145 347 145 608 q 153 220 145 275 q 177 127 161 165 q 213 71 192 90 q 259 52 233 52 z "},"e":{"ha":475,"x_min":43,"x_max":439,"o":"m 290 231 l 439 218 q 421 112 439 157 q 377 38 404 68 q 318 -5 351 9 q 254 -20 286 -20 q 171 3 210 -20 q 104 71 132 26 q 59 179 75 115 q 43 327 43 243 q 59 475 43 410 q 104 583 75 539 q 171 650 132 627 q 254 673 210 673 q 323 653 292 673 q 378 594 355 633 q 417 497 402 555 q 435 364 431 439 l 148 264 q 187 102 157 153 q 264 52 218 52 q 302 60 287 52 q 327 82 317 68 q 341 114 337 96 q 346 149 346 131 q 332 192 346 171 q 290 228 318 213 l 290 231 m 144 324 q 193 343 164 332 q 267 375 222 355 q 310 398 292 387 q 342 418 328 410 q 314 557 336 512 q 254 602 292 602 q 173 532 202 602 q 144 327 144 463 l 144 324 z "},"f":{"ha":374,"x_min":19,"x_max":387,"o":"m 97 405 q 97 459 97 434 q 96 510 96 485 q 95 561 96 535 q 94 615 94 586 q 63 617 75 616 q 43 620 51 618 q 30 623 35 621 l 30 663 l 94 663 q 131 874 94 808 q 235 941 168 941 q 305 928 267 941 q 387 884 342 915 l 300 739 l 298 740 q 302 769 302 751 q 297 809 302 791 q 283 840 292 827 q 263 860 274 853 q 241 867 252 867 q 222 861 231 867 q 206 832 213 854 q 195 771 199 811 q 191 663 191 730 l 239 663 q 302 664 276 663 q 345 667 328 665 q 377 670 365 668 l 350 582 q 328 596 342 589 q 294 606 316 602 q 238 611 273 611 l 190 611 q 189 471 189 549 q 189 290 189 393 q 189 247 189 267 q 189 205 189 227 q 191 159 190 184 q 194 101 192 134 q 213 40 196 64 q 264 3 229 15 l 264 0 l 19 0 l 19 3 q 69 41 54 15 q 86 104 84 68 q 92 205 90 161 q 95 285 94 250 q 97 350 96 321 q 97 405 97 378 z "},"g":{"ha":536,"x_min":42,"x_max":522,"o":"m 441 1 q 426 -155 441 -93 q 384 -256 410 -218 q 320 -310 357 -294 q 243 -326 284 -326 q 190 -316 218 -326 q 138 -284 162 -306 q 98 -227 114 -262 q 82 -141 82 -191 q 83 -122 82 -132 q 85 -102 84 -113 l 241 -68 l 241 -71 q 194 -117 209 -91 q 178 -170 178 -142 q 182 -197 178 -183 q 193 -222 185 -211 q 212 -241 200 -234 q 240 -249 223 -249 q 264 -247 252 -249 q 287 -237 276 -245 q 307 -211 298 -229 q 322 -164 315 -194 q 332 -87 328 -134 q 336 24 336 -41 q 241 -12 287 -12 q 161 11 197 -12 q 98 75 124 33 q 57 177 71 117 q 42 314 42 237 q 58 457 42 391 q 105 570 73 522 q 183 645 136 618 q 294 671 231 671 q 342 667 313 671 q 402 661 372 663 l 522 661 l 522 658 q 466 615 484 645 q 448 544 448 585 q 448 462 448 508 q 446 365 447 416 q 445 262 446 314 q 443 161 444 210 q 441 72 442 113 q 441 1 441 30 m 337 238 q 335 420 338 326 q 329 602 333 514 q 312 607 321 605 q 298 610 304 610 q 235 590 264 610 q 186 534 207 571 q 155 441 166 496 q 144 314 144 386 q 258 54 144 54 q 294 60 274 54 q 336 82 314 66 l 336 92 l 337 238 z "},"h":{"ha":576,"x_min":-5,"x_max":568,"o":"m 498 401 q 498 320 498 357 q 499 247 498 283 q 501 174 500 211 q 505 94 503 138 q 522 37 507 60 q 568 3 537 14 l 568 0 l 349 0 l 349 3 q 389 39 377 14 q 403 97 401 64 q 407 277 407 212 q 405 409 407 349 q 394 511 403 469 q 366 577 385 553 q 313 600 347 600 q 263 587 287 600 q 222 551 240 574 q 194 495 205 528 q 184 423 184 463 l 184 362 q 185 228 184 294 q 190 94 186 161 q 205 37 192 60 q 246 3 218 14 l 246 0 l 19 0 l 19 3 q 68 39 54 14 q 86 97 83 64 q 90 303 87 208 q 94 489 94 399 q 93 636 94 576 q 90 738 93 697 q 82 802 87 779 q 65 838 76 826 q 37 853 54 850 q -5 856 20 856 l -5 859 l 193 913 q 189 850 190 886 q 186 773 187 814 q 186 686 186 732 q 186 594 186 640 q 217 634 200 618 q 253 657 235 649 q 288 669 271 666 q 320 673 305 673 q 394 655 361 673 q 450 603 427 637 q 486 518 473 569 q 498 401 498 468 z "},"i":{"ha":294,"x_min":12,"x_max":277,"o":"m 110 351 q 110 458 110 414 q 106 531 109 502 q 98 578 104 561 q 81 603 92 595 q 53 614 70 612 q 12 616 36 616 l 12 619 l 209 673 q 201 510 201 600 q 201 326 201 421 q 201 262 201 288 q 201 213 201 236 q 203 164 201 190 q 207 101 204 139 q 226 40 210 64 q 277 3 242 15 l 277 0 l 32 0 l 32 3 q 81 41 66 15 q 99 104 96 68 q 102 158 100 135 q 105 201 104 182 q 107 236 106 220 q 109 269 108 252 q 110 306 109 286 q 110 351 110 325 m 83 838 q 101 881 83 863 q 144 899 119 899 q 188 881 170 899 q 206 838 206 863 q 188 794 206 812 q 144 777 170 777 q 101 794 119 777 q 83 838 83 812 z "},"j":{"ha":269,"x_min":5,"x_max":202,"o":"m 103 296 q 103 427 103 373 q 100 515 102 480 q 91 571 97 551 q 74 601 85 591 q 46 613 63 611 q 5 616 29 616 l 5 619 l 202 673 q 194 485 195 587 q 194 271 194 383 q 194 182 194 228 q 191 90 194 136 q 180 -1 188 43 q 157 -87 173 -46 q 116 -165 141 -129 q 53 -231 91 -201 l 12 -176 q 59 -109 41 -146 q 87 -28 77 -71 q 101 58 98 14 q 105 145 105 102 q 104 227 106 188 q 103 296 103 265 m 77 838 q 94 881 77 863 q 138 899 112 899 q 181 881 163 899 q 199 838 199 863 q 181 794 199 812 q 138 777 163 777 q 94 794 112 777 q 77 838 77 812 z "},"k":{"ha":555,"x_min":-3,"x_max":546,"o":"m 194 913 q 186 703 186 817 q 186 464 186 589 l 186 360 q 220 427 202 391 q 256 497 236 458 q 296 577 275 536 q 331 638 313 610 q 371 685 349 665 q 420 717 393 705 q 482 730 447 728 l 522 588 l 517 584 q 485 604 502 600 q 458 608 469 608 q 422 594 438 608 q 391 553 406 579 q 355 496 374 526 q 321 441 337 466 q 286 383 303 412 l 421 154 q 456 104 440 121 q 493 87 471 87 q 542 104 512 87 l 546 100 l 484 -41 q 428 -20 450 -35 q 390 17 406 -5 q 360 65 374 38 q 329 125 347 93 l 233 310 l 187 232 q 189 166 188 202 q 192 101 190 130 q 211 40 195 64 q 262 3 227 15 l 262 0 l 17 0 l 17 3 q 66 41 52 15 q 84 104 81 68 q 92 307 89 213 q 95 489 95 400 q 95 636 95 576 q 92 738 94 697 q 83 802 89 779 q 66 838 77 826 q 38 853 55 850 q -3 856 21 856 l -3 859 l 194 913 z "},"l":{"ha":278,"x_min":-3,"x_max":262,"o":"m 194 913 q 186 703 186 817 q 186 464 186 590 q 186 281 186 372 q 192 101 186 191 q 211 40 195 64 q 262 3 227 15 l 262 0 l 17 0 l 17 3 q 66 41 52 15 q 84 104 81 68 q 92 307 89 213 q 95 489 95 400 q 95 636 95 576 q 92 738 94 697 q 83 802 89 779 q 66 838 77 826 q 38 853 55 850 q -3 856 21 856 l -3 859 l 194 913 z "},"m":{"ha":844,"x_min":17,"x_max":842,"o":"m 479 432 q 483 348 481 392 q 485 259 484 304 q 486 168 486 214 q 486 79 486 123 q 490 50 486 62 q 501 29 494 37 q 518 14 508 20 q 542 3 528 8 l 542 0 l 337 0 l 337 3 q 372 31 361 14 q 384 82 382 47 q 386 138 385 110 q 387 192 387 166 q 388 240 387 218 q 388 277 388 262 q 386 409 388 349 q 377 511 385 469 q 355 577 370 553 q 314 600 340 600 q 267 587 290 600 q 228 551 245 574 q 202 495 212 528 q 192 423 192 463 l 192 362 q 192 293 192 330 q 193 220 193 257 q 195 148 194 184 q 198 79 196 112 q 204 50 199 62 q 216 29 208 37 q 234 14 223 20 q 261 3 245 8 l 261 0 l 27 0 l 27 3 q 77 31 62 14 q 94 82 92 47 q 97 150 96 115 q 99 219 98 184 q 101 286 100 253 q 102 347 102 318 q 100 463 102 416 q 91 537 99 509 q 66 576 83 565 q 17 588 49 588 l 17 591 l 201 673 q 195 636 195 657 q 194 594 194 616 q 224 634 208 618 q 257 657 240 649 q 291 669 274 666 q 321 673 307 673 q 398 648 365 673 q 450 574 431 623 q 485 623 466 604 q 523 653 503 642 q 561 669 542 665 q 595 673 579 673 q 720 604 674 673 q 766 401 766 534 q 766 318 766 358 q 767 239 766 278 q 769 160 768 199 q 772 79 770 121 q 779 50 774 62 q 792 29 783 37 q 813 14 801 20 q 842 3 825 8 l 842 0 l 617 0 l 617 3 q 657 31 644 14 q 671 82 669 47 q 672 138 671 110 q 674 192 673 166 q 674 240 674 218 q 675 277 675 262 q 673 409 675 349 q 663 511 671 469 q 639 577 655 553 q 594 600 623 600 q 551 588 572 600 q 515 553 530 576 q 489 500 499 531 q 479 432 479 469 z "},"n":{"ha":547,"x_min":12,"x_max":536,"o":"m 467 401 q 467 314 467 354 q 468 237 467 275 q 470 159 469 199 q 473 74 471 120 q 490 30 475 48 q 536 3 505 12 l 536 0 l 325 0 l 325 3 q 359 31 349 11 q 372 77 370 51 q 375 191 374 140 q 376 277 376 241 q 374 409 376 349 q 366 511 373 469 q 346 577 359 553 q 309 600 333 600 q 267 587 286 600 q 232 551 247 574 q 209 495 218 528 q 200 423 200 463 l 200 335 q 201 204 200 269 q 206 74 203 140 q 220 30 208 48 q 256 3 232 12 l 256 0 l 35 0 l 35 3 q 85 31 70 11 q 102 77 100 51 q 108 203 106 144 q 110 319 110 262 q 109 449 110 397 q 98 531 107 500 q 69 575 89 562 q 12 588 49 588 l 12 591 l 195 673 q 189 630 190 654 q 189 581 189 606 q 218 627 202 609 q 252 655 235 645 q 285 669 269 665 q 316 673 302 673 q 427 604 387 673 q 467 401 467 535 z "},"o":{"ha":491,"x_min":43,"x_max":448,"o":"m 144 327 q 172 121 144 191 q 248 52 199 52 q 322 121 297 52 q 347 327 347 191 q 322 532 347 463 q 248 600 297 600 q 172 532 199 600 q 144 327 144 463 m 43 327 q 59 475 43 410 q 102 583 75 539 q 167 650 130 627 q 248 673 204 673 q 326 650 289 673 q 389 583 362 627 q 432 475 416 539 q 448 327 448 410 q 432 179 448 243 q 389 71 416 115 q 326 3 362 26 q 248 -20 289 -20 q 167 3 204 -20 q 102 71 130 26 q 59 179 75 115 q 43 327 43 243 z "},"p":{"ha":550,"x_min":11,"x_max":507,"o":"m 94 239 q 93 394 94 319 q 87 547 92 469 q 66 617 85 589 q 11 659 48 646 l 11 662 l 136 662 q 169 636 158 652 q 186 600 180 620 q 199 620 190 608 q 222 643 208 632 q 256 663 236 654 q 302 672 276 671 q 391 646 353 673 q 455 571 429 619 q 494 458 481 524 q 507 315 507 392 q 491 178 507 238 q 447 75 475 117 q 380 11 419 33 q 294 -11 341 -11 q 266 -8 281 -11 q 236 2 251 -5 q 207 21 220 9 q 185 47 194 32 q 186 -61 185 -16 q 195 -136 186 -106 q 223 -180 203 -165 q 282 -194 243 -194 l 282 -197 l 85 -252 q 89 -186 87 -227 q 91 -96 90 -144 q 93 1 92 -48 q 93 92 93 51 l 94 239 m 291 610 q 254 601 272 610 q 223 573 237 591 q 200 526 209 554 q 189 461 191 498 q 186 397 187 427 q 185 338 185 367 q 184 281 184 309 q 184 222 184 252 q 195 127 184 161 q 220 77 205 93 q 251 58 235 61 q 277 54 267 54 q 405 315 405 54 q 397 442 405 387 q 373 534 389 497 q 337 591 358 572 q 291 610 316 610 z "},"q":{"ha":548,"x_min":41,"x_max":551,"o":"m 313 671 q 361 667 332 671 q 421 661 391 663 l 534 661 l 534 658 q 480 615 496 645 q 460 544 464 585 q 456 348 459 439 q 453 172 453 258 q 453 25 453 85 q 456 -77 454 -36 q 465 -141 459 -117 q 482 -177 471 -165 q 510 -192 493 -189 q 551 -195 526 -195 l 551 -198 l 354 -252 q 357 -201 356 -233 q 359 -132 359 -170 q 361 -55 360 -95 q 361 24 361 -14 q 306 -3 333 6 q 253 -12 279 -12 q 167 11 206 -12 q 100 75 128 33 q 56 177 72 117 q 41 314 41 237 q 58 457 41 391 q 109 570 75 522 q 193 645 142 618 q 313 671 244 671 m 363 238 q 361 420 363 326 q 355 602 359 514 q 338 607 347 605 q 324 610 330 610 q 250 590 283 610 q 193 534 216 571 q 156 441 169 496 q 142 314 142 386 q 271 54 142 54 q 313 60 290 54 q 362 82 336 66 l 362 92 l 363 238 z "},"r":{"ha":413,"x_min":10,"x_max":415,"o":"m 187 581 q 240 648 207 624 q 310 673 273 673 q 365 657 338 673 q 415 610 392 642 l 342 491 l 340 492 q 345 522 345 503 q 342 549 345 534 q 333 575 339 563 q 319 594 328 587 q 297 602 310 602 q 263 589 281 602 q 232 553 246 576 q 208 497 218 530 q 199 423 199 465 q 199 248 199 334 q 205 74 199 161 q 254 3 208 20 l 254 0 l 34 0 l 34 3 q 84 31 68 11 q 101 77 99 51 q 106 203 104 144 q 109 319 109 262 q 107 463 109 406 q 97 553 106 519 q 67 601 87 587 q 10 615 47 615 l 10 618 l 194 673 q 188 630 189 654 q 187 581 187 606 z "},"s":{"ha":356,"x_min":28,"x_max":330,"o":"m 162 52 q 185 58 174 52 q 203 75 195 64 q 216 97 212 85 q 220 123 220 110 q 207 177 220 148 q 173 237 193 205 q 130 302 153 268 q 86 372 106 336 q 52 447 66 408 q 39 525 39 485 q 53 584 39 557 q 89 631 66 611 q 141 662 112 650 q 202 673 171 673 q 270 658 237 673 q 330 609 304 643 l 258 501 l 256 503 q 260 526 260 513 q 256 553 260 539 q 244 577 252 566 q 225 595 236 588 q 202 602 215 602 q 175 596 188 602 q 152 582 161 591 q 136 560 142 573 q 130 531 130 547 q 143 476 130 506 q 178 412 157 446 q 223 342 199 378 q 269 269 248 306 q 303 196 290 232 q 317 125 317 159 q 305 66 317 93 q 271 20 292 39 q 223 -9 250 1 q 167 -20 196 -20 q 91 0 128 -20 q 28 66 54 20 l 100 153 l 102 151 q 96 127 96 141 q 101 101 96 114 q 115 77 106 87 q 136 59 123 66 q 162 52 148 52 z "},"t":{"ha":366,"x_min":16,"x_max":372,"o":"m 224 656 q 288 657 262 656 q 331 660 314 659 q 363 663 351 661 l 336 575 q 314 589 328 583 q 280 600 302 595 q 224 604 258 604 l 175 604 q 174 556 174 581 q 174 505 174 531 q 175 400 174 446 q 175 312 175 353 q 176 231 176 271 q 176 143 176 191 q 192 75 176 96 q 227 55 208 55 q 249 62 238 55 q 269 82 260 69 q 283 114 277 96 q 288 153 288 132 q 284 182 288 171 l 286 184 l 372 38 q 291 -6 328 7 q 220 -19 253 -19 q 161 -2 187 -19 q 117 41 135 14 q 90 103 99 68 q 80 175 80 138 q 81 248 80 216 q 82 307 81 279 q 83 362 82 335 q 83 421 83 389 q 83 527 83 481 q 83 608 83 572 q 50 610 63 609 q 30 613 37 612 q 16 616 21 614 l 16 656 l 82 656 q 79 718 81 696 q 73 751 77 740 q 62 765 68 762 q 46 768 56 768 l 46 771 l 203 846 q 185 754 191 802 q 177 656 180 707 l 224 656 z "},"u":{"ha":574,"x_min":-10,"x_max":575,"o":"m 478 320 q 479 179 478 234 q 490 93 481 125 q 518 50 498 62 q 575 38 538 38 l 575 35 l 391 -20 q 397 23 397 -1 q 398 73 398 47 q 358 26 380 44 q 315 -2 337 8 q 270 -16 292 -12 q 230 -20 248 -20 q 124 56 162 -20 q 85 279 85 131 q 84 430 85 371 q 75 524 83 490 q 46 571 66 557 q -10 584 27 584 l -10 587 l 208 669 q 198 650 202 660 q 192 625 195 640 q 188 589 189 610 q 185 539 186 569 q 184 469 184 509 q 184 376 184 429 q 185 244 184 303 q 194 142 187 184 q 216 76 201 100 q 258 53 231 53 q 304 66 282 53 q 344 108 327 80 q 371 179 361 136 q 381 279 381 221 q 380 430 381 371 q 370 524 379 490 q 342 571 361 557 q 286 584 323 584 l 286 587 l 503 669 q 494 647 498 659 q 487 618 490 635 q 483 576 484 601 q 480 516 481 552 q 478 433 479 481 q 478 320 478 385 z "},"v":{"ha":453,"x_min":-18,"x_max":471,"o":"m 109 3 l 117 6 q 146 34 138 16 q 154 77 155 53 q 137 187 148 135 q 115 293 126 239 q 88 422 102 356 q 54 564 73 488 q 30 618 47 595 q -18 650 14 641 l -18 653 l 195 653 l 196 650 q 158 619 168 641 q 151 567 147 597 q 175 431 160 498 q 203 294 190 363 q 215 229 209 263 q 229 157 222 195 q 242 229 235 194 q 254 294 248 263 q 278 431 267 363 q 299 567 290 498 q 292 619 302 597 q 254 650 281 641 l 254 653 l 471 653 l 471 650 q 423 617 439 640 q 399 564 407 595 q 366 422 380 488 q 339 293 351 356 q 316 187 327 239 q 299 77 305 135 q 306 34 297 53 q 336 6 315 16 l 345 3 l 346 0 l 108 0 l 109 3 z "},"w":{"ha":727,"x_min":-18,"x_max":745,"o":"m 109 3 l 117 6 q 147 34 138 16 q 155 77 156 53 q 138 187 149 135 q 115 293 127 239 q 89 422 103 356 q 55 564 74 488 q 31 618 47 595 q -17 650 14 641 l -18 653 l 196 653 l 197 650 q 158 619 169 641 q 151 567 148 597 q 176 411 161 489 q 204 253 191 332 q 216 182 210 220 q 229 102 222 144 q 242 182 236 144 q 254 253 249 220 q 279 411 268 332 q 300 567 290 489 q 293 619 303 597 q 254 650 282 641 l 255 653 l 472 653 l 472 650 q 447 638 458 646 q 427 608 432 627 q 424 567 421 590 q 448 411 433 489 q 477 253 463 332 q 489 182 482 220 q 502 102 495 144 q 515 182 509 144 q 527 253 522 220 q 552 411 541 332 q 572 567 563 489 q 565 619 576 597 q 527 650 555 641 l 528 653 l 745 653 l 745 650 q 696 617 713 640 q 673 564 680 595 q 639 422 654 488 q 612 293 624 356 q 589 187 600 239 q 572 77 578 135 q 579 34 570 53 q 609 6 588 16 l 618 3 l 619 0 l 381 0 l 382 3 l 390 6 q 420 34 411 16 q 427 77 429 53 q 410 209 421 147 q 388 334 399 270 q 376 412 382 372 q 363 492 370 452 q 351 412 357 452 q 340 334 345 372 q 317 209 328 270 q 300 77 306 147 q 307 34 298 53 q 336 6 315 16 l 346 3 l 347 0 l 109 0 l 109 3 z "},"x":{"ha":516,"x_min":-3,"x_max":519,"o":"m 8 653 l 233 653 l 235 650 q 202 617 208 640 q 208 563 196 595 q 232 498 219 529 q 258 435 245 467 q 285 498 272 467 q 309 563 298 529 q 315 617 321 595 q 282 650 309 640 l 284 653 l 502 653 l 500 650 q 443 614 467 638 q 404 551 419 589 q 370 478 388 515 q 338 409 355 446 q 305 337 321 372 q 362 224 332 280 q 424 104 393 168 q 464 42 441 69 q 518 3 486 15 l 519 0 l 296 0 l 294 3 q 328 40 323 15 q 318 101 332 64 q 289 170 304 137 q 259 237 275 203 q 232 170 245 203 q 205 101 219 137 q 196 40 192 64 q 229 3 200 15 l 228 0 l -3 0 l -3 3 q 57 42 32 15 q 100 104 81 68 q 158 224 130 168 q 211 337 186 280 q 178 409 195 372 q 146 478 161 446 q 113 551 129 515 q 71 614 97 589 q 10 650 45 638 l 8 653 z "},"y":{"ha":566,"x_min":11,"x_max":552,"o":"m 374 291 q 372 435 374 363 q 368 579 371 507 q 352 623 366 605 q 311 650 339 641 l 311 653 l 552 653 l 552 650 q 502 622 517 642 q 485 576 487 602 q 479 435 481 501 q 477 307 477 370 q 477 214 477 252 q 477 143 477 176 q 477 77 477 111 q 477 1 477 44 q 462 -155 477 -93 q 421 -256 447 -218 q 360 -310 395 -294 q 286 -326 326 -326 q 224 -316 257 -326 q 163 -284 191 -306 q 116 -227 135 -262 q 98 -141 98 -191 q 99 -122 98 -132 q 101 -102 100 -113 l 270 -68 l 271 -71 q 213 -117 231 -91 q 194 -170 194 -142 q 198 -197 194 -183 q 213 -222 203 -211 q 238 -241 222 -234 q 276 -249 254 -249 q 300 -247 288 -249 q 323 -237 312 -245 q 342 -211 334 -229 q 358 -164 351 -194 q 368 -87 364 -134 q 372 24 372 -41 q 277 -12 323 -12 q 197 4 233 -12 q 134 51 160 20 q 93 125 107 81 q 78 226 78 169 q 78 299 78 269 q 78 356 78 330 q 78 404 79 381 q 78 451 78 426 q 76 507 77 476 q 74 579 75 537 q 57 623 72 605 q 11 650 42 641 l 11 653 l 243 653 l 243 650 q 198 622 212 642 q 182 576 184 602 q 180 481 181 528 q 180 393 180 435 q 180 315 180 351 q 180 253 180 279 q 208 104 180 155 q 294 54 237 54 q 330 60 310 54 q 372 82 350 66 l 372 92 l 374 291 z "},"z":{"ha":435,"x_min":18,"x_max":424,"o":"m 170 350 q 210 501 193 441 q 234 586 227 561 q 167 582 201 585 q 105 571 133 579 q 59 547 77 563 q 42 504 41 531 l 37 503 q 37 550 37 524 q 39 599 37 576 q 41 653 39 626 l 424 653 l 424 649 q 358 608 382 635 q 319 543 334 580 q 295 462 304 506 q 275 372 286 418 q 243 243 260 308 q 210 102 227 178 q 207 85 208 94 q 207 68 206 76 q 274 72 240 68 q 335 83 307 75 q 381 107 363 92 q 401 150 399 123 l 407 151 q 402 104 405 130 q 397 55 399 78 q 390 0 394 28 l 18 0 l 18 3 q 74 39 52 14 q 108 100 96 65 q 140 225 124 160 q 170 350 155 290 z "},"{":{"ha":309,"x_min":18,"x_max":289,"o":"m 77 283 q 73 341 77 314 q 62 387 69 368 q 43 418 54 407 q 18 429 33 429 l 18 465 q 43 476 33 465 q 62 507 54 487 q 73 553 69 526 q 77 611 77 579 q 88 722 77 668 q 121 819 99 777 q 175 887 142 861 q 250 913 207 913 q 289 909 270 913 l 289 903 l 289 874 q 289 860 289 865 q 288 854 289 854 q 240 832 260 854 q 205 775 219 810 q 183 695 191 740 q 176 604 176 650 q 172 556 176 579 q 159 512 168 532 q 138 474 151 491 q 109 447 125 457 q 159 382 142 425 q 176 290 176 339 q 183 199 176 244 q 205 119 191 154 q 240 62 219 83 q 288 40 260 40 q 289 34 289 40 q 289 20 289 28 l 289 -9 l 289 -15 q 250 -20 270 -20 q 175 6 207 -20 q 121 75 142 33 q 88 172 99 117 q 77 283 77 226 z "},"|":{"ha":245,"x_min":79,"x_max":166,"o":"m 79 955 l 166 955 l 166 -87 l 79 -87 l 79 955 z "},"}":{"ha":309,"x_min":19,"x_max":290,"o":"m 231 283 q 220 172 231 226 q 187 75 209 117 q 133 6 165 33 q 58 -20 101 -20 q 19 -15 38 -20 l 19 -9 l 19 20 q 19 34 19 28 q 20 40 19 40 q 68 62 47 40 q 103 119 89 83 q 124 199 117 154 q 132 290 132 244 q 149 382 132 339 q 199 447 166 425 q 170 474 183 457 q 149 512 157 491 q 136 556 140 532 q 132 604 132 579 q 124 695 132 650 q 103 775 117 740 q 68 832 89 810 q 20 854 47 854 q 19 860 19 854 q 19 874 19 865 l 19 903 l 19 909 q 58 913 38 913 q 133 887 101 913 q 187 819 165 861 q 220 722 209 777 q 231 611 231 668 q 235 553 231 579 q 246 507 239 526 q 264 476 254 487 q 290 465 275 465 l 290 429 q 264 418 275 429 q 246 387 254 407 q 235 341 239 368 q 231 283 231 314 z "},"~":{"ha":491,"x_min":31,"x_max":475,"o":"m 342 553 q 288 557 314 553 q 234 567 261 562 q 179 576 207 572 q 120 581 151 581 q 79 573 96 581 q 58 551 62 566 l 31 559 q 43 611 32 589 q 71 646 54 632 q 113 666 89 660 q 163 673 136 673 q 220 668 191 673 q 279 659 250 664 q 335 649 308 654 q 385 645 363 645 q 426 652 410 645 q 448 674 442 659 l 475 666 q 463 614 473 636 q 434 579 452 593 q 393 559 416 566 q 342 553 369 553 z "},"":{"ha":260,"x_min":49,"x_max":212,"o":"m 49 3 q 61 50 56 19 q 72 123 67 81 q 80 215 76 165 q 87 317 84 264 q 93 421 90 369 q 97 521 95 473 q 101 608 100 568 q 104 673 103 647 l 153 673 q 157 611 155 649 q 161 526 159 572 q 166 427 163 479 q 171 323 168 375 q 177 220 174 271 q 186 127 181 170 q 198 53 191 85 q 212 3 204 20 l 212 0 l 49 0 l 49 3 m 71 838 q 88 881 71 863 q 132 899 106 899 q 175 881 157 899 q 193 838 193 863 q 175 794 193 812 q 132 777 157 777 q 88 794 106 777 q 71 838 71 812 z "},"":{"ha":500,"x_min":34,"x_max":475,"o":"m 246 -18 q 161 14 200 -12 q 94 82 123 39 q 50 188 66 126 q 34 326 34 249 q 50 469 34 406 q 94 576 66 532 q 162 645 123 621 q 246 672 201 669 l 246 781 l 292 781 l 292 671 q 362 648 333 665 q 413 605 392 631 q 449 543 435 578 q 475 466 464 507 l 343 397 l 342 399 q 361 433 355 416 q 367 467 367 450 q 363 507 367 486 q 352 546 360 528 q 329 579 344 565 q 292 599 315 593 l 292 52 q 335 67 315 55 q 369 99 354 80 q 395 144 385 119 q 413 198 406 170 l 449 99 q 292 -18 391 -9 l 292 -130 l 246 -130 l 246 -18 m 136 326 q 164 140 136 208 q 246 56 193 72 l 246 599 q 166 520 197 587 q 136 326 136 453 z "},"":{"ha":560,"x_min":35,"x_max":537,"o":"m 411 406 q 336 425 383 417 q 213 432 290 432 q 216 245 214 338 q 220 66 218 153 l 359 79 q 333 108 341 94 q 324 134 324 123 q 361 214 324 181 q 475 264 398 246 l 537 151 l 534 149 q 511 164 524 159 q 484 170 498 170 q 456 165 470 170 q 432 151 443 160 q 414 130 421 142 q 408 102 408 117 q 414 77 408 90 q 427 52 420 64 q 441 26 435 39 q 447 0 447 13 l 37 0 l 37 3 q 92 46 75 16 q 111 117 108 77 q 116 280 114 203 q 119 431 118 357 q 68 425 89 429 q 35 412 48 421 l 35 509 q 70 500 49 504 q 120 493 91 496 q 121 569 121 532 q 121 644 121 606 q 137 760 121 709 q 180 844 153 810 q 243 896 207 878 q 320 913 279 913 q 380 899 351 913 q 431 857 408 884 q 467 792 453 830 q 481 708 480 754 l 366 635 l 364 638 q 388 673 380 654 q 395 713 395 693 q 389 759 395 736 q 372 799 383 781 q 346 828 361 817 q 313 839 330 839 q 269 821 288 839 q 238 775 250 804 q 219 710 225 746 q 212 636 212 673 l 213 490 q 333 492 286 490 q 411 509 381 494 l 411 406 z "},"":{"ha":591,"x_min":39,"x_max":555,"o":"m 106 327 q 110 391 106 361 q 121 447 113 421 q 76 487 96 469 q 39 517 56 504 l 107 585 q 155 524 125 559 q 218 585 181 564 q 297 605 254 605 q 375 584 338 605 q 437 522 411 563 q 465 555 452 540 q 486 585 477 571 l 555 517 q 516 486 537 503 q 470 444 496 468 q 484 327 484 393 q 480 264 484 294 q 470 210 477 235 q 517 168 496 186 q 555 136 538 150 l 491 73 q 468 100 481 85 q 438 133 455 115 q 376 70 412 91 q 297 48 340 48 q 216 69 253 48 q 153 131 179 90 q 124 99 137 113 q 102 73 112 85 l 39 136 q 75 167 54 150 q 120 208 95 184 q 106 327 106 259 m 194 327 q 221 173 194 226 q 297 120 248 120 q 371 173 347 120 q 396 327 396 226 q 371 480 396 428 q 297 532 347 532 q 221 480 248 532 q 194 327 194 428 z "},"":{"ha":593,"x_min":18,"x_max":576,"o":"m 420 0 l 167 0 l 167 5 q 223 52 203 15 q 245 147 243 90 q 246 164 246 156 q 246 182 246 173 q 156 179 191 181 q 100 168 121 176 l 100 272 q 156 261 122 267 q 241 254 190 256 q 235 288 238 271 q 229 322 232 305 q 150 319 181 321 q 100 309 119 316 l 100 412 q 145 403 118 407 q 212 396 173 399 q 187 495 200 446 q 161 594 174 544 q 134 691 149 641 q 103 796 119 741 q 74 858 93 831 q 19 897 56 885 l 18 900 l 262 900 l 263 897 q 218 860 231 885 q 210 799 205 836 q 229 689 218 741 q 252 585 240 636 q 276 480 264 533 q 297 370 288 428 q 318 480 307 428 q 342 585 330 533 q 366 689 355 636 q 384 799 376 741 q 376 860 388 836 q 331 897 363 885 l 332 900 l 576 900 l 575 897 q 520 858 538 885 q 491 796 501 831 q 460 691 475 741 q 433 594 446 641 q 406 494 420 543 q 380 394 393 445 q 444 399 417 395 q 490 413 471 403 l 490 302 q 439 314 470 309 q 363 321 409 319 q 357 287 360 304 q 351 253 354 271 q 433 257 400 254 q 490 273 467 261 l 490 162 q 435 174 469 169 q 350 181 401 179 l 350 151 q 351 105 350 127 q 359 64 352 83 q 380 31 366 46 q 420 5 394 16 l 420 0 z "},"":{"ha":251,"x_min":82,"x_max":169,"o":"m 82 955 l 169 955 l 169 521 l 82 521 l 82 955 m 82 347 l 169 347 l 169 -87 l 82 -87 l 82 347 z "},"":{"ha":393,"x_min":46,"x_max":349,"o":"m 180 52 q 203 58 193 52 q 222 75 214 64 q 234 97 230 85 q 239 123 239 110 q 225 163 239 142 q 192 209 212 185 q 148 259 172 233 q 104 313 124 286 q 71 370 84 341 q 57 430 57 399 q 76 499 57 468 q 126 550 96 530 q 99 584 112 567 q 77 620 87 602 q 62 657 68 638 q 57 695 57 675 q 71 754 57 727 q 107 801 85 781 q 160 832 130 821 q 220 843 189 843 q 289 828 255 843 q 349 779 322 813 l 276 671 l 274 673 q 278 696 278 684 q 274 723 278 709 q 262 747 270 736 q 244 765 254 758 q 220 772 233 772 q 193 767 206 772 q 170 752 180 762 q 154 730 160 743 q 148 701 148 717 q 162 659 148 682 q 197 610 176 635 q 242 557 218 585 q 287 502 266 530 q 322 445 308 473 q 336 391 336 417 q 315 316 336 348 q 263 267 295 285 q 291 231 277 249 q 314 195 304 213 q 330 160 324 178 q 336 125 336 142 q 323 66 336 93 q 290 20 311 39 q 241 -9 269 1 q 185 -20 214 -20 q 109 0 146 -20 q 46 66 72 20 l 119 153 l 121 151 q 115 127 115 141 q 120 101 115 114 q 133 77 125 87 q 154 59 142 66 q 180 52 166 52 m 239 388 q 220 436 239 410 q 176 492 202 463 q 156 468 163 483 q 148 436 148 454 q 166 386 148 413 q 210 328 184 359 q 231 354 223 338 q 239 388 239 370 z "},"":{"ha":437,"x_min":33,"x_max":404,"o":"m 267 812 q 273 839 267 827 q 287 861 278 852 q 309 876 296 871 q 335 882 321 882 q 362 876 349 882 q 384 861 374 871 q 399 839 393 852 q 404 812 404 827 q 399 786 404 798 q 384 765 393 774 q 362 750 374 755 q 335 745 349 745 q 287 764 307 745 q 267 812 267 784 m 33 812 q 38 839 33 827 q 53 861 43 852 q 74 876 62 871 q 100 882 86 882 q 127 876 115 882 q 149 861 140 871 q 164 839 159 852 q 170 812 170 827 q 164 786 170 798 q 149 765 159 774 q 127 750 140 755 q 100 745 115 745 q 52 764 72 745 q 33 812 33 784 z "},"":{"ha":628,"x_min":50,"x_max":578,"o":"m 328 307 q 264 322 294 307 q 214 366 235 337 q 180 436 192 394 q 168 534 168 479 q 179 631 168 589 q 211 702 191 673 q 258 746 231 731 q 317 761 286 761 q 376 749 351 761 q 417 717 400 738 q 446 668 435 696 q 466 605 458 640 l 367 553 l 366 555 q 380 581 376 568 q 384 606 384 593 q 381 640 384 622 q 372 672 379 657 q 354 697 366 688 q 324 707 342 707 q 267 665 290 707 q 244 534 244 623 q 268 405 244 449 q 332 361 291 361 q 363 370 349 361 q 388 393 377 378 q 407 428 399 408 q 419 471 414 448 l 446 397 q 328 307 402 307 m 578 534 q 556 381 578 449 q 498 267 534 313 q 415 195 463 220 q 317 170 368 170 q 211 195 260 170 q 126 266 162 219 q 71 380 91 312 q 50 534 50 448 q 71 691 50 623 q 127 806 92 760 q 212 876 163 852 q 317 899 260 899 q 418 876 370 899 q 501 806 466 852 q 557 691 536 760 q 578 534 578 623 m 309 230 q 398 255 360 230 q 461 323 436 281 q 498 420 486 366 q 511 532 511 474 q 498 646 511 591 q 460 745 486 702 q 398 814 435 788 q 309 840 360 840 q 228 813 262 840 q 169 743 193 787 q 134 642 146 699 q 122 527 122 586 q 134 416 122 469 q 168 321 145 362 q 227 255 191 279 q 309 230 262 230 z "},"":{"ha":366,"x_min":37,"x_max":340,"o":"m 220 737 q 216 803 220 777 q 206 843 213 829 q 189 863 199 858 q 165 869 179 869 q 133 852 142 869 q 123 814 123 836 q 127 785 123 800 q 139 758 132 770 l 49 810 q 69 865 56 844 q 99 896 82 885 q 134 911 115 907 q 171 914 153 914 q 265 871 234 914 q 296 744 296 828 q 296 638 296 677 q 295 576 296 598 q 295 543 295 553 q 295 526 295 532 q 296 500 295 513 q 302 474 298 486 q 316 451 307 461 q 340 437 325 441 l 340 434 l 258 434 q 241 453 247 441 q 233 479 236 465 q 223 465 229 473 q 207 448 217 456 q 183 433 197 439 q 150 427 169 427 q 99 438 120 427 q 64 466 77 448 q 43 507 50 484 q 37 555 37 530 q 47 622 37 589 q 78 682 58 655 q 126 724 98 708 q 189 741 155 741 q 220 737 203 741 m 158 471 q 188 485 176 471 q 207 519 200 499 q 217 563 214 540 q 220 604 220 586 l 220 696 q 192 701 206 701 q 158 690 173 701 q 133 660 143 679 q 117 617 123 642 q 112 568 112 593 q 115 532 112 549 q 123 501 117 514 q 138 479 129 488 q 158 471 146 471 z "},"":{"ha":540,"x_min":20,"x_max":484,"o":"m 20 361 q 106 431 66 398 q 141 460 123 446 q 175 488 159 475 q 204 513 191 502 q 226 531 218 524 q 242 545 235 538 q 257 559 250 551 q 269 577 264 567 q 277 602 274 587 l 280 602 l 280 435 l 277 435 q 267 452 273 448 q 254 457 261 457 q 240 453 247 457 q 228 446 233 450 q 214 434 223 441 q 193 418 205 427 q 169 399 182 409 q 142 378 155 389 q 77 326 112 355 q 142 274 112 298 q 169 254 155 264 q 193 234 182 243 q 214 218 205 225 q 228 208 223 211 q 240 200 233 203 q 254 196 247 196 q 267 201 261 196 q 277 218 273 205 l 280 218 l 280 52 l 277 52 q 269 76 274 66 q 257 94 264 86 q 243 108 251 102 q 226 122 235 115 q 204 139 218 128 q 175 162 191 149 q 141 191 159 176 q 106 220 123 205 q 20 292 66 254 l 20 361 m 224 361 q 310 431 269 398 q 345 460 327 446 q 379 488 363 475 q 408 513 395 502 q 429 531 421 524 q 446 545 438 538 q 460 559 454 551 q 472 577 467 567 q 481 602 477 587 l 484 602 l 484 435 l 480 435 q 471 452 477 448 q 457 457 465 457 q 443 453 450 457 q 431 446 436 450 q 417 434 427 441 q 397 418 408 427 q 372 399 385 409 q 346 378 359 389 q 280 326 315 355 q 346 274 315 298 q 372 254 359 264 q 397 234 385 243 q 417 218 408 225 q 431 208 427 211 q 443 200 436 203 q 457 196 450 196 q 471 201 465 196 q 480 218 477 205 l 484 218 l 484 52 l 481 52 q 472 76 477 66 q 461 94 467 86 q 446 108 454 102 q 429 122 438 115 q 408 139 421 128 q 378 162 394 149 q 345 191 362 176 q 310 220 327 205 q 224 292 269 254 l 224 361 z "},"":{"ha":475,"x_min":47,"x_max":410,"o":"m 410 409 l 410 174 l 359 174 l 359 332 q 304 336 336 334 q 231 337 273 337 q 114 336 157 337 q 47 330 70 335 l 47 420 q 116 412 72 416 q 232 408 160 408 l 353 408 q 410 409 382 408 z "},"":{"ha":465,"x_min":51,"x_max":414,"o":"m 414 421 l 414 324 q 347 333 389 330 q 235 337 304 337 q 118 336 161 337 q 51 330 74 335 l 51 420 q 120 412 76 416 q 236 408 164 408 q 344 410 301 408 q 414 421 387 412 z "},"":{"ha":628,"x_min":50,"x_max":578,"o":"m 578 534 q 556 381 578 449 q 498 267 534 313 q 415 195 463 220 q 317 170 368 170 q 211 195 260 170 q 126 266 162 219 q 71 380 91 312 q 50 534 50 448 q 71 691 50 623 q 127 806 92 760 q 212 876 163 852 q 317 899 260 899 q 418 876 370 899 q 501 806 466 852 q 557 691 536 760 q 578 534 578 623 m 207 781 l 320 781 q 357 774 340 781 q 387 755 374 768 q 407 723 399 742 q 414 680 414 704 q 397 594 414 629 q 351 545 380 560 q 373 488 362 515 q 394 431 383 460 q 417 372 406 402 q 444 309 429 342 l 446 301 q 494 405 478 345 q 511 532 511 466 q 498 646 511 591 q 460 745 486 702 q 398 814 435 788 q 309 840 360 840 q 228 813 262 840 q 169 743 193 787 q 134 642 146 699 q 122 527 122 586 q 134 416 122 469 q 168 321 145 362 q 227 255 191 279 q 309 230 262 230 q 366 239 340 230 q 413 267 391 249 q 408 274 410 270 q 404 284 406 279 l 311 530 q 307 528 310 529 q 299 527 303 528 q 292 527 295 527 q 287 526 288 526 l 289 380 q 321 332 291 342 l 321 330 l 207 330 l 207 332 q 230 351 223 337 q 238 382 237 364 q 242 484 241 437 q 243 575 243 530 q 243 654 243 615 q 239 736 242 693 q 229 763 237 751 q 207 780 221 774 l 207 781 m 286 593 q 286 579 286 586 q 286 565 286 572 q 344 593 326 565 q 361 680 361 622 q 350 728 361 711 q 315 745 338 745 q 302 745 309 745 q 289 744 294 745 l 289 730 q 288 681 288 705 q 287 636 287 660 q 286 593 286 612 z "},"":{"ha":354,"x_min":36,"x_max":317,"o":"m 317 906 l 317 782 q 266 796 298 791 q 179 802 234 802 q 87 800 121 802 q 36 788 54 798 l 36 905 q 90 892 55 898 q 180 886 124 886 q 263 889 231 886 q 317 906 296 891 z "},"":{"ha":365,"x_min":29,"x_max":336,"o":"m 182 868 q 239 859 212 868 q 288 831 267 849 q 322 785 309 812 q 336 722 336 758 q 322 659 336 686 q 288 613 309 631 q 238 585 266 595 q 182 576 211 576 q 126 585 154 576 q 77 613 99 595 q 42 659 56 631 q 29 722 29 686 q 42 785 29 758 q 77 831 56 812 q 126 859 98 849 q 182 868 153 868 m 182 627 q 223 635 206 627 q 252 657 241 644 q 270 687 264 670 q 275 721 275 703 q 269 757 275 739 q 252 788 263 774 q 223 810 240 802 q 182 819 205 819 q 142 810 159 819 q 113 789 125 802 q 95 758 101 775 q 89 722 89 741 q 95 688 89 705 q 112 658 100 671 q 141 636 123 645 q 182 627 159 628 z "},"":{"ha":419,"x_min":48,"x_max":370,"o":"m 161 527 l 257 527 q 249 478 252 508 q 244 401 245 448 q 319 404 288 401 q 370 414 350 406 l 370 317 q 321 325 351 322 q 244 330 292 328 q 249 252 245 281 q 257 205 252 222 l 161 205 q 168 253 164 223 q 172 330 171 283 q 95 326 125 329 q 48 317 65 323 l 48 414 q 96 406 66 410 q 173 401 126 403 q 171 476 173 445 q 161 527 169 507 m 349 155 l 349 31 q 297 45 330 39 q 210 50 265 50 q 118 48 152 50 q 67 37 85 47 l 67 154 q 121 141 86 146 q 212 135 155 135 q 295 137 262 135 q 349 155 328 140 z "},"":{"ha":365,"x_min":23,"x_max":326,"o":"m 205 312 q 241 318 226 312 q 267 333 256 323 q 285 355 278 342 q 294 380 292 367 l 297 380 l 296 261 q 256 261 281 261 q 201 260 231 260 q 145 260 173 260 q 96 260 118 260 l 45 260 l 23 321 q 58 389 37 353 q 104 465 79 425 q 154 545 129 504 q 199 628 178 587 q 232 708 219 669 q 244 785 244 748 q 227 832 244 817 q 188 847 210 847 q 159 842 174 847 q 134 827 145 837 q 116 802 123 817 q 109 767 109 787 q 110 749 109 759 q 113 730 111 740 l 111 728 l 43 839 q 110 884 72 869 q 187 899 149 899 q 240 892 214 899 q 284 870 265 885 q 315 834 303 856 q 326 783 326 812 q 316 716 326 752 q 290 641 307 680 q 251 561 273 602 q 204 477 229 519 q 154 394 180 435 q 106 312 129 352 l 205 312 z "},"":{"ha":374,"x_min":35,"x_max":325,"o":"m 121 646 q 168 655 149 646 q 198 679 186 663 q 214 717 210 694 q 219 768 219 740 q 200 841 219 817 q 156 864 181 864 q 122 850 132 864 q 113 819 113 836 q 119 789 113 804 q 138 765 125 774 l 138 762 l 35 772 q 46 835 35 808 q 77 880 58 862 q 119 906 96 897 q 163 914 142 914 q 221 905 195 914 q 268 876 248 895 q 299 830 288 857 q 311 767 311 802 q 286 677 311 713 q 221 618 262 640 q 296 555 268 595 q 325 456 325 515 q 313 372 325 408 q 279 311 300 336 q 226 273 257 286 q 159 260 195 260 q 115 270 137 260 q 75 298 92 279 q 46 347 57 317 q 35 417 35 376 l 138 446 l 138 443 q 119 417 127 433 q 111 387 111 401 q 125 331 111 351 q 160 310 139 310 q 191 322 176 310 q 215 356 205 335 q 232 403 226 377 q 238 457 238 429 q 232 508 238 484 q 211 552 225 533 q 175 584 197 572 q 121 595 153 595 l 121 646 z "},"":{"ha":191,"x_min":30,"x_max":184,"o":"m 30 707 q 36 808 33 760 q 41 893 39 856 q 47 975 44 937 l 184 975 q 146 881 165 929 q 130 837 138 861 q 114 790 122 814 q 99 741 106 766 q 86 694 92 717 l 30 707 z "},"":{"ha":589,"x_min":8,"x_max":593,"o":"m 104 279 q 106 398 106 348 q 102 489 106 453 q 87 546 98 525 q 58 575 77 567 q 8 584 39 584 l 8 587 l 226 669 q 217 650 220 660 q 210 625 213 640 q 206 589 208 610 q 203 539 204 569 q 202 469 203 509 q 202 376 202 429 q 204 244 202 303 q 213 142 205 184 q 235 76 220 100 q 276 53 250 53 q 323 66 300 53 q 362 108 345 80 q 389 179 379 136 q 399 279 399 221 q 398 430 399 371 q 389 524 397 490 q 360 571 380 557 q 304 584 341 584 l 304 587 l 522 669 q 512 647 516 659 q 505 618 508 635 q 501 576 503 601 q 498 516 499 552 q 497 433 497 481 q 496 320 496 385 q 498 179 496 234 q 508 93 499 125 q 536 50 517 62 q 593 38 556 38 l 593 35 l 410 -20 q 416 23 415 -1 q 416 73 416 47 q 377 26 398 44 q 333 -2 355 8 q 289 -16 311 -12 q 248 -20 267 -20 q 220 -16 233 -20 q 195 -5 208 -12 q 198 -54 197 -28 q 201 -115 199 -81 q 219 -177 203 -152 q 271 -213 236 -201 l 271 -216 l 26 -216 l 26 -213 q 47 -201 37 -209 q 64 -176 56 -194 q 77 -126 71 -158 q 88 -40 83 -94 q 97 91 93 13 q 104 279 100 169 z "},"":{"ha":670,"x_min":26,"x_max":632,"o":"m 280 900 l 632 900 l 632 897 q 584 864 601 887 q 564 810 568 842 q 555 646 557 724 q 554 489 554 568 q 555 399 554 445 q 557 307 555 354 q 560 209 558 259 q 565 104 562 159 q 583 41 568 68 q 632 3 597 15 l 632 0 l 435 0 l 435 3 q 451 40 446 15 q 457 101 456 64 q 458 201 458 149 q 460 307 459 254 q 461 413 460 360 q 462 513 461 465 l 457 814 q 407 813 425 813 q 385 810 389 813 q 376 646 377 724 q 375 489 375 568 q 376 399 375 445 q 378 307 376 354 q 381 209 379 259 q 386 104 383 159 q 390 41 387 68 q 399 3 393 15 l 399 0 l 208 0 l 208 3 q 259 40 243 15 q 278 101 275 64 q 279 180 279 138 q 281 263 280 221 q 282 346 281 304 q 283 425 282 387 q 192 432 231 422 q 125 459 153 441 q 77 499 96 476 q 46 548 58 523 q 31 597 35 572 q 26 642 26 622 q 46 753 26 705 q 101 833 66 801 q 182 883 136 866 q 280 900 229 900 z "},"":{"ha":209,"x_min":36,"x_max":173,"o":"m 36 455 q 41 482 36 469 q 56 504 47 494 q 77 519 65 513 q 104 524 90 524 q 131 519 118 524 q 153 504 143 513 q 168 482 162 494 q 173 455 173 469 q 168 429 173 441 q 153 407 162 416 q 131 393 143 398 q 104 387 118 387 q 56 407 75 387 q 36 455 36 427 z "},"":{"ha":311,"x_min":67,"x_max":329,"o":"m 142 -37 l 138 2 l 195 2 l 197 -33 q 250 -42 226 -35 q 292 -61 275 -49 q 319 -89 309 -73 q 329 -125 329 -105 q 317 -180 329 -156 q 285 -220 304 -203 q 240 -244 265 -236 q 190 -252 216 -252 q 150 -247 170 -252 q 115 -232 131 -242 q 86 -205 98 -221 q 67 -169 73 -190 l 151 -127 l 151 -128 q 146 -157 146 -146 q 155 -180 146 -172 q 188 -189 164 -189 q 207 -186 197 -189 q 224 -175 216 -182 q 237 -155 232 -168 q 241 -125 241 -143 q 223 -87 241 -100 q 171 -75 204 -75 q 164 -75 168 -75 q 157 -76 160 -75 q 148 -77 153 -77 l 142 -37 z "},"":{"ha":275,"x_min":17,"x_max":238,"o":"m 189 913 q 186 828 187 873 q 184 733 184 782 q 183 632 183 684 q 183 529 183 581 q 184 431 183 479 q 188 333 184 382 q 201 289 189 307 q 238 263 214 271 l 238 260 l 50 260 l 50 263 q 85 290 74 271 q 97 334 96 309 q 103 479 101 413 q 105 610 105 546 q 105 728 105 682 q 101 802 104 774 q 91 839 98 829 q 70 850 84 850 q 58 848 66 850 q 43 845 51 846 q 29 841 35 843 q 20 840 22 840 q 17 841 17 840 q 25 848 17 843 q 50 860 34 853 l 189 913 z "},"":{"ha":463,"x_min":35,"x_max":429,"o":"m 137 645 q 162 487 137 541 q 234 433 187 433 q 303 487 280 433 q 326 645 326 541 q 303 802 326 749 q 234 855 280 855 q 162 802 187 855 q 137 645 137 749 m 35 645 q 50 760 35 710 q 92 845 65 810 q 156 897 119 879 q 234 914 192 914 q 310 897 274 914 q 372 845 345 879 q 413 760 398 810 q 429 645 429 710 q 413 529 429 580 q 372 445 398 479 q 310 392 345 410 q 234 374 274 374 q 156 392 192 374 q 92 445 119 410 q 50 529 65 479 q 35 645 35 580 z "},"":{"ha":540,"x_min":57,"x_max":520,"o":"m 317 292 q 231 220 271 254 q 195 191 213 205 q 162 162 178 176 q 133 139 146 149 q 111 122 119 128 q 94 108 102 115 q 80 94 86 102 q 68 76 73 86 q 60 52 62 66 l 57 52 l 57 218 l 60 218 q 70 201 64 205 q 83 196 76 196 q 97 200 90 196 q 109 208 104 203 q 123 218 114 211 q 144 234 132 225 q 169 254 155 243 q 195 274 182 264 q 260 326 225 298 q 195 378 225 355 q 169 399 182 389 q 144 418 155 409 q 123 434 132 427 q 109 446 114 441 q 97 453 104 450 q 83 457 90 457 q 70 452 76 457 q 60 435 64 448 l 57 435 l 57 602 l 60 602 q 68 577 62 587 q 80 559 73 567 q 95 545 87 551 q 111 531 102 538 q 133 513 119 524 q 162 488 146 502 q 195 460 178 475 q 231 431 213 446 q 317 361 271 398 l 317 292 m 520 292 q 434 220 474 254 q 399 191 416 205 q 365 162 381 176 q 336 139 349 149 q 315 122 323 128 q 298 108 306 115 q 283 94 290 102 q 271 76 277 86 q 263 52 266 66 l 260 52 l 260 218 l 264 218 q 273 201 267 205 q 287 196 279 196 q 300 200 294 196 q 313 208 307 203 q 327 218 317 211 q 347 234 336 225 q 372 254 359 243 q 398 274 385 264 q 464 326 429 298 q 398 378 429 355 q 372 399 385 389 q 347 418 359 409 q 327 434 336 427 q 313 446 317 441 q 300 453 307 450 q 287 457 294 457 q 273 452 279 457 q 264 435 267 448 l 260 435 l 260 602 l 263 602 q 271 577 266 587 q 283 559 277 567 q 298 545 290 551 q 315 531 306 538 q 336 513 323 524 q 365 488 349 502 q 399 460 381 475 q 434 431 416 446 q 520 361 475 398 l 520 292 z "},"":{"ha":929,"x_min":23,"x_max":899,"o":"m 195 913 q 192 828 193 873 q 190 733 191 782 q 189 632 189 684 q 189 529 189 581 q 190 431 189 479 q 194 333 191 382 q 208 289 195 307 q 244 263 220 271 l 244 260 l 56 260 l 56 263 q 91 290 80 271 q 103 334 102 309 q 109 479 107 413 q 111 610 111 546 q 111 728 111 682 q 107 802 111 774 q 97 839 104 829 q 76 850 90 850 q 64 848 72 850 q 49 845 57 846 q 35 841 41 843 q 26 840 28 840 q 23 841 23 840 q 32 848 23 843 q 56 860 40 853 l 195 913 m 633 781 l 722 781 l 292 152 l 203 151 l 633 781 m 808 205 q 842 211 827 205 q 869 226 858 216 q 887 248 880 236 q 897 273 894 260 l 899 273 l 899 153 l 809 153 q 810 113 810 132 q 812 73 810 94 q 826 30 814 47 q 862 3 838 12 l 862 1 l 686 1 l 686 3 q 722 31 711 12 q 734 76 733 50 q 736 115 736 97 q 738 153 737 134 l 541 153 l 519 214 q 547 255 531 229 q 580 312 563 280 q 615 378 597 343 q 650 448 633 413 q 732 621 690 528 l 814 654 q 808 503 808 584 q 807 331 807 422 q 807 268 807 298 q 808 205 807 237 m 589 205 l 740 205 q 742 349 742 281 l 742 511 q 709 440 726 478 q 672 363 691 403 q 631 284 652 324 q 589 205 610 243 z "},"":{"ha":954,"x_min":23,"x_max":918,"o":"m 195 913 q 192 828 193 873 q 190 733 191 782 q 189 632 189 684 q 189 529 189 581 q 190 431 189 479 q 194 333 191 382 q 208 289 195 307 q 244 263 220 271 l 244 260 l 56 260 l 56 263 q 91 290 80 271 q 103 334 102 309 q 109 479 107 413 q 111 610 111 546 q 111 728 111 682 q 107 802 111 774 q 97 839 104 829 q 76 850 90 850 q 64 848 72 850 q 49 845 57 846 q 35 841 41 843 q 26 840 28 840 q 23 841 23 840 q 32 848 23 843 q 56 860 40 853 l 195 913 m 634 781 l 723 781 l 294 152 l 205 151 l 634 781 m 798 53 q 833 59 818 53 q 859 74 848 64 q 877 96 870 83 q 886 121 884 108 l 889 121 l 888 2 q 848 2 873 2 q 793 1 823 1 q 738 1 765 1 q 688 1 710 1 l 637 1 l 615 62 q 650 130 629 94 q 696 205 671 166 q 746 286 721 245 q 791 369 770 328 q 824 449 811 410 q 836 526 836 489 q 819 573 836 557 q 780 588 802 588 q 751 583 766 588 q 726 568 737 578 q 708 543 715 557 q 701 508 701 528 q 702 490 701 500 q 705 471 703 481 l 703 469 l 635 580 q 702 625 664 610 q 779 640 741 640 q 832 633 806 640 q 876 611 857 626 q 907 575 895 597 q 918 524 918 553 q 908 457 918 493 q 882 382 899 421 q 843 301 865 342 q 796 218 821 260 q 746 135 772 176 q 698 53 721 93 l 798 53 z "},"":{"ha":955,"x_min":34,"x_max":928,"o":"m 120 646 q 167 655 149 646 q 197 679 186 663 q 214 717 209 694 q 218 768 218 740 q 199 841 218 817 q 155 864 180 864 q 122 850 132 864 q 112 819 112 836 q 118 789 112 804 q 138 765 125 774 l 138 762 l 34 772 q 46 835 34 808 q 76 880 58 862 q 118 906 95 897 q 163 914 141 914 q 221 905 194 914 q 267 876 248 895 q 298 830 287 857 q 310 767 310 802 q 286 677 310 713 q 220 618 261 640 q 296 555 267 595 q 324 456 324 515 q 312 372 324 408 q 278 311 300 336 q 225 273 256 286 q 158 260 195 260 q 114 270 136 260 q 74 298 92 279 q 45 347 56 317 q 34 417 34 376 l 138 446 l 138 443 q 118 417 126 433 q 111 387 111 401 q 124 331 111 351 q 159 310 138 310 q 190 322 176 310 q 215 356 204 335 q 231 403 225 377 q 237 457 237 429 q 231 508 237 484 q 211 552 224 533 q 174 584 197 572 q 120 595 152 595 l 120 646 m 681 781 l 770 781 l 340 152 l 252 151 l 681 781 m 837 205 q 871 211 856 205 q 898 227 887 217 q 916 249 909 237 q 926 274 923 261 l 928 274 l 928 154 l 838 154 q 839 114 839 132 q 841 74 840 95 q 856 30 844 48 q 891 4 867 12 l 891 1 l 715 1 l 715 4 q 751 32 740 12 q 764 77 762 51 q 766 116 765 98 q 767 154 766 134 l 570 154 l 548 215 q 576 255 560 230 q 609 312 592 281 q 645 379 627 344 q 680 448 663 414 q 761 621 719 529 l 843 654 q 837 504 838 585 q 836 332 836 422 q 836 268 836 299 q 837 205 836 237 m 618 205 l 769 205 q 771 349 771 281 l 771 512 q 738 441 755 479 q 701 364 720 404 q 661 284 682 325 q 618 205 640 244 z "},"":{"ha":501,"x_min":27,"x_max":475,"o":"m 340 699 q 324 595 340 640 q 285 514 308 551 q 233 445 261 477 q 182 378 206 412 q 143 305 159 344 q 127 215 127 266 q 138 152 127 179 q 168 108 149 126 q 209 82 186 91 q 254 74 231 74 q 305 86 283 74 q 342 116 328 98 q 365 158 357 135 q 373 203 373 181 q 369 235 373 220 q 355 261 364 250 q 333 279 347 272 q 302 286 320 286 q 275 284 290 286 l 374 353 q 452 281 429 323 q 475 196 475 240 q 458 117 475 155 q 411 48 441 78 q 342 -1 382 18 q 259 -20 303 -20 q 165 -5 208 -20 q 92 38 123 10 q 45 109 62 67 q 28 209 28 152 q 39 300 28 261 q 67 370 50 339 q 106 425 84 400 q 152 471 129 449 q 198 515 176 493 q 238 564 220 537 q 266 623 255 590 q 277 699 277 655 l 340 699 m 378 833 q 372 807 378 819 q 358 785 367 794 q 336 770 349 775 q 310 764 324 764 q 283 770 296 764 q 261 785 271 775 q 246 807 252 794 q 241 833 241 819 q 246 860 241 848 q 261 881 252 872 q 283 896 271 890 q 310 901 296 901 q 358 882 338 901 q 378 833 378 862 z "},"":{"ha":524,"x_min":-54,"x_max":539,"o":"m 347 101 q 341 172 344 137 q 334 244 338 208 q 301 247 319 245 q 258 251 283 248 q 219 255 237 253 q 189 258 202 256 q 184 216 186 239 q 179 168 182 193 q 173 116 176 142 q 165 64 170 90 q 158 21 161 43 q 148 -21 154 -1 q 132 -58 142 -41 q 104 -88 121 -75 q 62 -108 87 -100 q 0 -115 37 -115 l -54 -27 l -52 -25 q -6 -37 -27 -37 q 38 -9 22 -37 q 64 68 55 18 q 81 164 73 109 q 96 277 90 219 q 109 391 103 336 q 119 489 114 447 q 135 646 127 568 q 146 810 142 724 q 138 860 149 838 q 103 892 127 882 l 93 897 l 92 900 l 428 900 l 427 897 l 416 892 q 381 860 392 882 q 374 810 371 838 q 386 646 378 724 q 404 489 394 568 q 425 307 414 400 q 454 104 436 213 q 483 41 463 68 q 538 3 502 15 l 539 0 l 295 0 l 294 3 q 339 40 327 15 q 347 101 351 64 m 259 303 q 297 303 279 303 q 328 304 314 304 l 314 464 q 310 499 313 477 q 305 550 308 522 q 299 610 302 578 q 294 673 296 642 q 279 833 286 747 l 246 833 q 231 678 238 751 q 224 615 227 647 q 218 555 221 583 q 213 503 215 526 q 209 464 210 479 q 201 377 204 416 q 194 303 198 338 l 259 303 m 318 954 l 262 941 q 234 1037 250 987 q 201 1128 217 1086 q 163 1222 183 1176 l 301 1222 q 307 1140 304 1183 q 312 1055 309 1103 q 318 954 315 1006 z "},"":{"ha":524,"x_min":-54,"x_max":539,"o":"m 347 101 q 341 172 344 137 q 334 244 338 208 q 301 247 319 245 q 258 251 283 248 q 219 255 237 253 q 189 258 202 256 q 184 216 186 239 q 179 168 182 193 q 173 116 176 142 q 165 64 170 90 q 158 21 161 43 q 148 -21 154 -1 q 132 -58 142 -41 q 104 -88 121 -75 q 62 -108 87 -100 q 0 -115 37 -115 l -54 -27 l -52 -25 q -6 -37 -27 -37 q 38 -9 22 -37 q 64 68 55 18 q 81 164 73 109 q 96 277 90 219 q 109 391 103 336 q 119 489 114 447 q 135 646 127 568 q 146 810 142 724 q 138 860 149 838 q 103 892 127 882 l 93 897 l 92 900 l 428 900 l 427 897 l 416 892 q 381 860 392 882 q 374 810 371 838 q 386 646 378 724 q 404 489 394 568 q 425 307 414 400 q 454 104 436 213 q 483 41 463 68 q 538 3 502 15 l 539 0 l 295 0 l 294 3 q 339 40 327 15 q 347 101 351 64 m 259 303 q 297 303 279 303 q 328 304 314 304 l 314 464 q 310 499 313 477 q 305 550 308 522 q 299 610 302 578 q 294 673 296 642 q 279 833 286 747 l 246 833 q 231 678 238 751 q 224 615 227 647 q 218 555 221 583 q 213 503 215 526 q 209 464 210 479 q 201 377 204 416 q 194 303 198 338 l 259 303 m 163 954 q 170 1055 167 1006 q 175 1140 172 1103 q 180 1222 178 1183 l 318 1222 q 280 1128 298 1176 q 264 1084 272 1107 q 248 1037 256 1061 q 232 988 239 1013 q 220 941 225 964 l 163 954 z "},"":{"ha":524,"x_min":-54,"x_max":539,"o":"m 347 101 q 341 172 344 137 q 334 244 338 208 q 301 247 319 245 q 258 251 283 248 q 219 255 237 253 q 189 258 202 256 q 184 216 186 239 q 179 168 182 193 q 173 116 176 142 q 165 64 170 90 q 158 21 161 43 q 148 -21 154 -1 q 132 -58 142 -41 q 104 -88 121 -75 q 62 -108 87 -100 q 0 -115 37 -115 l -54 -27 l -52 -25 q -6 -37 -27 -37 q 38 -9 22 -37 q 64 68 55 18 q 81 164 73 109 q 96 277 90 219 q 109 391 103 336 q 119 489 114 447 q 135 646 127 568 q 146 810 142 724 q 138 860 149 838 q 103 892 127 882 l 93 897 l 92 900 l 428 900 l 427 897 l 416 892 q 381 860 392 882 q 374 810 371 838 q 386 646 378 724 q 404 489 394 568 q 425 307 414 400 q 454 104 436 213 q 483 41 463 68 q 538 3 502 15 l 539 0 l 295 0 l 294 3 q 339 40 327 15 q 347 101 351 64 m 259 303 q 297 303 279 303 q 328 304 314 304 l 314 464 q 310 499 313 477 q 305 550 308 522 q 299 610 302 578 q 294 673 296 642 q 279 833 286 747 l 246 833 q 231 678 238 751 q 224 615 227 647 q 218 555 221 583 q 213 503 215 526 q 209 464 210 479 q 201 377 204 416 q 194 303 198 338 l 259 303 m 286 1198 l 387 985 l 286 985 l 241 1153 l 196 985 l 94 985 l 196 1198 l 286 1198 z "},"":{"ha":524,"x_min":-54,"x_max":539,"o":"m 347 101 q 341 172 344 137 q 334 244 338 208 q 301 247 319 245 q 258 251 283 248 q 219 255 237 253 q 189 258 202 256 q 184 216 186 239 q 179 168 182 193 q 173 116 176 142 q 165 64 170 90 q 158 21 161 43 q 148 -21 154 -1 q 132 -58 142 -41 q 104 -88 121 -75 q 62 -108 87 -100 q 0 -115 37 -115 l -54 -27 l -52 -25 q -6 -37 -27 -37 q 38 -9 22 -37 q 64 68 55 18 q 81 164 73 109 q 96 277 90 219 q 109 391 103 336 q 119 489 114 447 q 135 646 127 568 q 146 810 142 724 q 138 860 149 838 q 103 892 127 882 l 93 897 l 92 900 l 428 900 l 427 897 l 416 892 q 381 860 392 882 q 374 810 371 838 q 386 646 378 724 q 404 489 394 568 q 425 307 414 400 q 454 104 436 213 q 483 41 463 68 q 538 3 502 15 l 539 0 l 295 0 l 294 3 q 339 40 327 15 q 347 101 351 64 m 259 303 q 297 303 279 303 q 328 304 314 304 l 314 464 q 310 499 313 477 q 305 550 308 522 q 299 610 302 578 q 294 673 296 642 q 279 833 286 747 l 246 833 q 231 678 238 751 q 224 615 227 647 q 218 555 221 583 q 213 503 215 526 q 209 464 210 479 q 201 377 204 416 q 194 303 198 338 l 259 303 m 292 1000 q 255 1004 273 1000 q 219 1014 237 1008 q 182 1023 201 1019 q 145 1027 164 1027 q 104 1020 121 1027 q 83 998 87 1013 l 56 1006 q 68 1058 57 1036 q 96 1093 79 1079 q 138 1113 114 1107 q 189 1120 161 1120 q 228 1115 208 1120 q 267 1106 248 1111 q 304 1096 286 1101 q 336 1092 321 1092 q 377 1099 361 1092 q 398 1121 393 1105 l 425 1113 q 413 1061 424 1083 q 385 1026 402 1040 q 343 1006 367 1013 q 292 1000 319 1000 z "},"":{"ha":524,"x_min":-54,"x_max":539,"o":"m 347 101 q 341 172 344 137 q 334 244 338 208 q 301 247 319 245 q 258 251 283 248 q 219 255 237 253 q 189 258 202 256 q 184 216 186 239 q 179 168 182 193 q 173 116 176 142 q 165 64 170 90 q 158 21 161 43 q 148 -21 154 -1 q 132 -58 142 -41 q 104 -88 121 -75 q 62 -108 87 -100 q 0 -115 37 -115 l -54 -27 l -52 -25 q -6 -37 -27 -37 q 38 -9 22 -37 q 64 68 55 18 q 81 164 73 109 q 96 277 90 219 q 109 391 103 336 q 119 489 114 447 q 135 646 127 568 q 146 810 142 724 q 138 860 149 838 q 103 892 127 882 l 93 897 l 92 900 l 428 900 l 427 897 l 416 892 q 381 860 392 882 q 374 810 371 838 q 386 646 378 724 q 404 489 394 568 q 425 307 414 400 q 454 104 436 213 q 483 41 463 68 q 538 3 502 15 l 539 0 l 295 0 l 294 3 q 339 40 327 15 q 347 101 351 64 m 259 303 q 297 303 279 303 q 328 304 314 304 l 314 464 q 310 499 313 477 q 305 550 308 522 q 299 610 302 578 q 294 673 296 642 q 279 833 286 747 l 246 833 q 231 678 238 751 q 224 615 227 647 q 218 555 221 583 q 213 503 215 526 q 209 464 210 479 q 201 377 204 416 q 194 303 198 338 l 259 303 m 290 1059 q 295 1086 290 1074 q 310 1108 300 1099 q 331 1123 319 1118 q 357 1128 343 1128 q 384 1123 372 1128 q 406 1108 397 1118 q 421 1086 416 1099 q 427 1059 427 1074 q 421 1033 427 1045 q 406 1011 416 1021 q 384 997 397 1002 q 357 991 372 991 q 309 1011 329 991 q 290 1059 290 1031 m 55 1059 q 60 1086 55 1074 q 75 1108 66 1099 q 96 1123 84 1118 q 123 1128 109 1128 q 150 1123 137 1128 q 172 1108 162 1118 q 186 1086 181 1099 q 192 1059 192 1074 q 186 1033 192 1045 q 172 1011 181 1021 q 150 997 162 1002 q 123 991 137 991 q 75 1011 94 991 q 55 1059 55 1031 z "},"":{"ha":524,"x_min":-54,"x_max":539,"o":"m 347 101 q 341 172 344 137 q 334 244 338 208 q 301 247 319 245 q 258 251 283 248 q 219 255 237 253 q 189 258 202 256 q 184 216 186 239 q 179 168 182 193 q 173 116 176 142 q 165 64 170 90 q 158 21 161 43 q 148 -21 154 -1 q 132 -58 142 -41 q 104 -88 121 -75 q 62 -108 87 -100 q 0 -115 37 -115 l -54 -27 l -52 -25 q -6 -37 -27 -37 q 38 -9 22 -37 q 64 68 55 18 q 81 164 73 109 q 96 277 90 219 q 109 391 103 336 q 119 489 114 447 q 135 646 127 568 q 146 810 142 724 q 138 860 149 838 q 103 892 127 882 l 93 897 l 92 900 l 428 900 l 427 897 l 416 892 q 381 860 392 882 q 374 810 371 838 q 386 646 378 724 q 404 489 394 568 q 425 307 414 400 q 454 104 436 213 q 483 41 463 68 q 538 3 502 15 l 539 0 l 295 0 l 294 3 q 339 40 327 15 q 347 101 351 64 m 259 303 q 297 303 279 303 q 328 304 314 304 l 314 464 q 310 499 313 477 q 305 550 308 522 q 299 610 302 578 q 294 673 296 642 q 279 833 286 747 l 246 833 q 231 678 238 751 q 224 615 227 647 q 218 555 221 583 q 213 503 215 526 q 209 464 210 479 q 201 377 204 416 q 194 303 198 338 l 259 303 m 241 1277 q 297 1267 270 1277 q 346 1240 325 1258 q 381 1194 368 1221 q 394 1131 394 1166 q 381 1068 394 1095 q 346 1022 368 1040 q 297 994 324 1004 q 241 985 269 985 q 185 994 212 985 q 136 1022 157 1004 q 101 1068 114 1040 q 87 1131 87 1095 q 101 1194 87 1166 q 135 1240 114 1221 q 184 1267 157 1258 q 241 1277 212 1277 m 241 1036 q 282 1044 264 1036 q 311 1066 299 1053 q 328 1096 322 1079 q 334 1130 334 1112 q 328 1166 334 1148 q 310 1197 321 1183 q 281 1219 298 1211 q 241 1227 264 1227 q 200 1219 218 1227 q 171 1198 183 1211 q 153 1167 159 1184 q 147 1131 147 1149 q 153 1097 147 1114 q 170 1067 159 1080 q 199 1045 182 1054 q 241 1036 217 1037 z "},"":{"ha":707,"x_min":-20,"x_max":709,"o":"m 593 755 q 581 798 591 779 q 549 826 570 817 q 486 844 519 840 q 415 850 454 848 q 428 683 420 766 q 444 519 435 601 q 487 519 466 519 q 526 521 507 519 q 577 542 560 524 q 597 585 594 559 l 599 586 l 620 399 l 616 399 q 587 443 608 425 q 530 464 566 460 q 493 466 513 466 q 450 467 473 466 q 474 264 461 363 q 503 65 488 164 q 531 69 514 67 q 567 73 549 71 q 605 80 586 76 q 638 93 623 85 q 661 112 652 100 q 667 141 669 123 l 670 142 q 687 83 680 109 q 699 38 694 56 q 709 0 705 16 l 332 0 l 332 3 q 376 40 364 15 q 385 101 388 64 q 378 172 381 137 q 372 244 375 208 q 338 247 357 245 q 296 251 320 248 q 257 255 274 253 q 226 258 239 256 q 215 181 221 220 q 202 90 210 142 q 187 21 197 54 q 161 -37 177 -11 q 120 -83 144 -63 q 63 -115 96 -102 l -20 25 l -15 28 q 31 17 10 17 q 76 37 59 17 q 101 94 92 56 q 119 186 111 136 q 134 291 127 237 q 146 395 140 344 q 156 489 151 447 q 172 646 164 568 q 184 810 180 724 q 175 860 186 838 q 140 892 165 882 l 130 897 l 130 900 l 612 900 q 608 865 611 886 q 603 821 606 848 q 596 755 600 793 l 593 755 m 296 303 q 334 303 317 303 q 366 304 351 304 l 351 464 q 348 499 350 477 q 343 550 346 522 q 337 610 340 578 q 332 673 334 642 q 316 833 324 747 l 283 833 q 268 678 275 751 q 261 615 264 647 q 255 555 258 583 q 250 503 252 526 q 246 464 248 479 q 238 377 241 416 q 231 303 235 338 l 296 303 z "},"":{"ha":573,"x_min":46,"x_max":549,"o":"m 487 261 l 549 130 q 448 24 509 60 q 319 -12 387 -12 q 211 19 260 -12 q 124 107 161 50 q 67 250 87 165 q 46 440 46 334 q 70 633 46 549 q 134 775 93 718 q 232 863 176 833 q 353 893 288 893 q 429 878 393 893 q 490 838 464 862 q 532 785 517 814 q 548 730 548 756 q 521 673 548 695 l 433 614 l 431 618 q 455 653 448 633 q 463 693 463 673 q 454 739 463 716 q 430 779 445 761 q 393 808 414 797 q 346 819 371 819 q 287 803 314 819 q 238 761 260 788 q 201 697 217 734 q 174 618 184 661 q 157 528 163 575 q 152 433 152 480 q 162 296 152 362 q 192 177 172 229 q 241 93 212 125 q 312 62 271 62 q 373 77 345 62 q 423 120 401 93 q 460 183 445 146 q 485 261 475 219 l 487 261 m 286 -37 l 281 2 l 338 2 l 341 -33 q 394 -42 370 -35 q 436 -61 418 -49 q 463 -89 453 -73 q 473 -125 473 -105 q 460 -180 473 -156 q 429 -220 448 -203 q 384 -244 409 -236 q 334 -252 359 -252 q 294 -247 313 -252 q 258 -232 275 -242 q 230 -205 242 -221 q 211 -169 217 -190 l 294 -127 l 295 -128 q 290 -157 290 -146 q 299 -180 290 -172 q 332 -189 308 -189 q 351 -186 341 -189 q 368 -175 360 -182 q 380 -155 376 -168 q 385 -125 385 -143 q 367 -87 385 -100 q 315 -75 348 -75 q 308 -75 312 -75 q 300 -76 304 -75 q 292 -77 296 -77 l 286 -37 z "},"":{"ha":443,"x_min":28,"x_max":415,"o":"m 212 50 q 283 56 251 52 q 344 74 315 60 q 373 103 363 83 q 380 146 382 122 l 382 146 q 397 80 391 107 q 408 35 404 52 q 415 0 412 14 l 28 0 l 28 3 q 81 41 62 15 q 102 104 99 67 q 111 306 109 210 q 113 489 113 403 q 112 640 113 565 q 102 796 111 715 q 81 859 99 833 q 28 897 62 885 l 28 900 l 415 900 q 408 865 412 886 q 397 820 404 848 q 382 754 391 793 l 380 754 q 373 797 382 778 q 344 826 363 817 q 283 844 315 840 q 212 850 251 848 q 206 683 208 766 q 203 519 204 601 q 247 519 226 519 q 286 521 267 519 q 340 542 321 524 q 364 585 359 559 l 366 585 l 366 399 l 364 399 q 339 443 359 425 q 284 464 319 460 q 247 466 267 466 q 203 467 227 466 l 203 464 q 206 256 203 363 q 212 50 208 149 m 304 954 l 248 941 q 220 1037 237 987 q 188 1128 203 1086 q 150 1222 170 1176 l 288 1222 q 293 1140 290 1183 q 298 1055 296 1103 q 304 954 301 1006 z "},"":{"ha":443,"x_min":28,"x_max":415,"o":"m 212 50 q 283 56 251 52 q 344 74 315 60 q 373 103 363 83 q 380 146 382 122 l 382 146 q 397 80 391 107 q 408 35 404 52 q 415 0 412 14 l 28 0 l 28 3 q 81 41 62 15 q 102 104 99 67 q 111 306 109 210 q 113 489 113 403 q 112 640 113 565 q 102 796 111 715 q 81 859 99 833 q 28 897 62 885 l 28 900 l 415 900 q 408 865 412 886 q 397 820 404 848 q 382 754 391 793 l 380 754 q 373 797 382 778 q 344 826 363 817 q 283 844 315 840 q 212 850 251 848 q 206 683 208 766 q 203 519 204 601 q 247 519 226 519 q 286 521 267 519 q 340 542 321 524 q 364 585 359 559 l 366 585 l 366 399 l 364 399 q 339 443 359 425 q 284 464 319 460 q 247 466 267 466 q 203 467 227 466 l 203 464 q 206 256 203 363 q 212 50 208 149 m 150 954 q 156 1055 153 1006 q 161 1140 159 1103 q 167 1222 164 1183 l 304 1222 q 267 1128 285 1176 q 250 1084 258 1107 q 234 1037 242 1061 q 219 988 226 1013 q 206 941 212 964 l 150 954 z "},"":{"ha":443,"x_min":28,"x_max":415,"o":"m 212 50 q 283 56 251 52 q 344 74 315 60 q 373 103 363 83 q 380 146 382 122 l 382 146 q 397 80 391 107 q 408 35 404 52 q 415 0 412 14 l 28 0 l 28 3 q 81 41 62 15 q 102 104 99 67 q 111 306 109 210 q 113 489 113 403 q 112 640 113 565 q 102 796 111 715 q 81 859 99 833 q 28 897 62 885 l 28 900 l 415 900 q 408 865 412 886 q 397 820 404 848 q 382 754 391 793 l 380 754 q 373 797 382 778 q 344 826 363 817 q 283 844 315 840 q 212 850 251 848 q 206 683 208 766 q 203 519 204 601 q 247 519 226 519 q 286 521 267 519 q 340 542 321 524 q 364 585 359 559 l 366 585 l 366 399 l 364 399 q 339 443 359 425 q 284 464 319 460 q 247 466 267 466 q 203 467 227 466 l 203 464 q 206 256 203 363 q 212 50 208 149 m 272 1198 l 374 985 l 272 985 l 227 1153 l 182 985 l 81 985 l 182 1198 l 272 1198 z "},"":{"ha":443,"x_min":28,"x_max":415,"o":"m 212 50 q 283 56 251 52 q 344 74 315 60 q 373 103 363 83 q 380 146 382 122 l 382 146 q 397 80 391 107 q 408 35 404 52 q 415 0 412 14 l 28 0 l 28 3 q 81 41 62 15 q 102 104 99 67 q 111 306 109 210 q 113 489 113 403 q 112 640 113 565 q 102 796 111 715 q 81 859 99 833 q 28 897 62 885 l 28 900 l 415 900 q 408 865 412 886 q 397 820 404 848 q 382 754 391 793 l 380 754 q 373 797 382 778 q 344 826 363 817 q 283 844 315 840 q 212 850 251 848 q 206 683 208 766 q 203 519 204 601 q 247 519 226 519 q 286 521 267 519 q 340 542 321 524 q 364 585 359 559 l 366 585 l 366 399 l 364 399 q 339 443 359 425 q 284 464 319 460 q 247 466 267 466 q 203 467 227 466 l 203 464 q 206 256 203 363 q 212 50 208 149 m 276 1059 q 281 1086 276 1074 q 296 1108 287 1099 q 317 1123 305 1118 q 344 1128 330 1128 q 371 1123 358 1128 q 393 1108 383 1118 q 408 1086 402 1099 q 413 1059 413 1074 q 408 1033 413 1045 q 393 1011 402 1021 q 371 997 383 1002 q 344 991 358 991 q 296 1011 315 991 q 276 1059 276 1031 m 41 1059 q 47 1086 41 1074 q 61 1108 52 1099 q 83 1123 71 1118 q 109 1128 95 1128 q 136 1123 123 1128 q 158 1108 149 1118 q 173 1086 168 1099 q 178 1059 178 1074 q 173 1033 178 1045 q 158 1011 168 1021 q 136 997 149 1002 q 109 991 123 991 q 61 1011 81 991 q 41 1059 41 1031 z "},"":{"ha":310,"x_min":33,"x_max":277,"o":"m 277 897 q 208 798 208 874 q 204 679 205 739 q 203 625 203 653 q 202 570 203 597 q 202 515 202 542 q 201 464 201 488 q 202 281 201 372 q 208 101 202 191 q 227 40 210 64 q 277 3 243 15 l 277 0 l 33 0 l 33 3 q 82 41 67 15 q 100 104 97 68 q 107 307 104 213 q 111 489 111 400 q 110 646 111 568 q 100 810 109 724 q 80 864 97 842 q 33 897 64 887 l 33 900 l 277 900 l 277 897 m 232 954 l 176 941 q 148 1037 164 987 q 115 1128 131 1086 q 77 1222 97 1176 l 215 1222 q 220 1140 218 1183 q 226 1055 223 1103 q 232 954 229 1006 z "},"":{"ha":310,"x_min":33,"x_max":277,"o":"m 277 897 q 208 798 208 874 q 204 679 205 739 q 203 625 203 653 q 202 570 203 597 q 202 515 202 542 q 201 464 201 488 q 202 281 201 372 q 208 101 202 191 q 227 40 210 64 q 277 3 243 15 l 277 0 l 33 0 l 33 3 q 82 41 67 15 q 100 104 97 68 q 107 307 104 213 q 111 489 111 400 q 110 646 111 568 q 100 810 109 724 q 80 864 97 842 q 33 897 64 887 l 33 900 l 277 900 l 277 897 m 77 954 q 83 1055 81 1006 q 89 1140 86 1103 q 94 1222 92 1183 l 232 1222 q 194 1128 212 1176 q 178 1084 186 1107 q 161 1037 170 1061 q 146 988 153 1013 q 134 941 139 964 l 77 954 z "},"":{"ha":311,"x_min":9,"x_max":302,"o":"m 278 897 q 208 798 208 874 q 205 679 206 739 q 204 625 204 653 q 203 570 203 597 q 202 515 203 542 q 202 464 202 488 q 202 281 202 372 q 208 101 203 191 q 227 40 211 64 q 278 3 243 15 l 278 0 l 33 0 l 33 3 q 83 41 68 15 q 100 104 98 68 q 108 307 105 213 q 111 489 111 400 q 110 646 111 568 q 101 810 109 724 q 81 864 98 842 q 33 897 64 887 l 33 900 l 278 900 l 278 897 m 201 1198 l 302 985 l 201 985 l 156 1153 l 111 985 l 9 985 l 111 1198 l 201 1198 z "},"":{"ha":310,"x_min":-31,"x_max":341,"o":"m 277 897 q 208 798 208 874 q 204 679 205 739 q 203 625 203 653 q 202 570 203 597 q 202 515 202 542 q 201 464 201 488 q 202 281 201 372 q 208 101 202 191 q 227 40 210 64 q 277 3 243 15 l 277 0 l 33 0 l 33 3 q 82 41 67 15 q 100 104 97 68 q 107 307 104 213 q 111 489 111 400 q 110 646 111 568 q 100 810 109 724 q 80 864 97 842 q 33 897 64 887 l 33 900 l 277 900 l 277 897 m 204 1059 q 210 1086 204 1074 q 224 1108 215 1099 q 245 1123 233 1118 q 272 1128 258 1128 q 299 1123 286 1128 q 321 1108 311 1118 q 336 1086 330 1099 q 341 1059 341 1074 q 336 1033 341 1045 q 321 1011 330 1021 q 299 997 311 1002 q 272 991 286 991 q 224 1011 243 991 q 204 1059 204 1031 m -31 1059 q -25 1086 -31 1074 q -11 1108 -20 1099 q 11 1123 -1 1118 q 37 1128 23 1128 q 64 1123 52 1128 q 86 1108 77 1118 q 101 1086 96 1099 q 106 1059 106 1074 q 101 1033 106 1045 q 86 1011 96 1021 q 64 997 77 1002 q 37 991 52 991 q -11 1011 9 991 q -31 1059 -31 1031 z "},"":{"ha":553,"x_min":22,"x_max":507,"o":"m 279 900 q 367 876 326 900 q 440 805 409 852 q 489 688 471 758 q 507 528 507 618 q 483 308 507 406 q 421 142 460 210 q 331 37 382 73 q 225 0 280 0 l 34 0 l 34 3 q 84 41 68 15 q 101 104 99 68 q 108 277 106 197 q 112 434 111 358 q 56 431 78 433 q 22 420 35 428 l 22 538 q 57 528 35 532 q 112 521 79 524 q 110 663 112 592 q 102 810 109 733 q 82 864 98 842 q 34 897 65 887 l 34 900 l 279 900 m 303 414 q 264 427 288 422 q 203 433 240 431 q 206 266 203 349 q 209 101 209 183 l 209 75 q 272 93 243 75 q 322 143 300 111 q 359 218 344 175 q 386 311 375 261 q 401 416 396 361 q 406 526 406 471 q 397 633 406 580 q 371 729 389 686 q 327 798 354 772 q 263 825 300 825 l 209 825 q 206 723 208 775 q 205 675 205 701 q 204 624 204 650 q 203 571 203 597 q 203 519 203 544 q 262 523 237 519 q 303 538 286 526 l 303 414 z "},"":{"ha":632,"x_min":-11,"x_max":605,"o":"m 469 0 l 466 0 l 469 0 m 97 75 q 110 251 106 163 q 113 428 113 339 q 112 588 113 509 q 103 755 110 667 q 77 845 98 808 q 15 897 56 883 l 15 900 l 148 900 q 151 887 147 897 q 163 861 155 878 q 188 813 172 844 q 236 708 209 767 q 291 589 262 650 q 346 469 319 528 q 394 365 372 411 q 428 290 415 319 q 441 260 441 261 q 444 377 443 318 q 445 489 445 436 q 444 646 445 568 q 435 810 442 724 q 415 864 431 842 q 367 897 398 887 l 367 900 l 605 900 l 605 897 q 535 798 535 874 q 534 720 535 769 q 530 611 532 671 q 526 486 528 551 q 522 357 524 420 q 520 241 520 295 q 522 151 519 187 q 541 57 523 96 q 589 3 558 18 l 589 0 l 469 0 q 470 3 470 1 q 468 14 471 6 q 460 36 466 22 q 443 73 454 50 q 401 168 426 113 q 349 282 376 222 q 295 400 322 342 q 247 506 269 459 q 212 583 225 553 q 199 615 199 613 q 197 532 197 572 q 197 464 197 492 q 198 269 197 365 q 198 79 199 174 q 195 12 197 46 q 178 -51 193 -23 q 133 -97 164 -79 q 43 -115 102 -115 l -11 -30 l -9 -27 q 18 -33 6 -31 q 40 -35 31 -35 q 64 -30 54 -35 q 80 -12 73 -25 q 91 22 87 1 q 97 75 94 43 m 344 1000 q 307 1004 325 1000 q 270 1014 288 1008 q 234 1023 252 1019 q 197 1027 216 1027 q 156 1020 172 1027 q 134 998 139 1013 l 107 1006 q 119 1058 109 1036 q 148 1093 130 1079 q 189 1113 165 1107 q 240 1120 213 1120 q 279 1115 259 1120 q 318 1106 299 1111 q 355 1096 338 1101 q 387 1092 373 1092 q 428 1099 412 1092 q 450 1121 444 1105 l 477 1113 q 465 1061 475 1083 q 436 1026 454 1040 q 395 1006 418 1013 q 344 1000 371 1000 z "},"":{"ha":634,"x_min":47,"x_max":588,"o":"m 588 440 q 566 251 588 334 q 507 109 544 167 q 421 19 469 50 q 320 -12 373 -12 q 211 19 261 -12 q 125 107 161 50 q 67 250 88 165 q 47 440 47 334 q 68 633 47 549 q 126 775 89 718 q 213 863 163 833 q 320 893 262 893 q 424 863 375 893 q 509 775 473 833 q 567 633 546 718 q 588 440 588 549 m 313 68 q 386 99 355 68 q 438 182 418 130 q 470 301 459 234 q 480 438 480 368 q 470 577 480 509 q 438 697 459 644 q 386 782 417 750 q 313 814 354 814 q 243 781 273 814 q 193 695 214 749 q 163 573 173 642 q 153 433 153 505 q 157 341 153 386 q 170 255 161 296 q 192 180 179 214 q 223 121 205 146 q 263 82 241 96 q 313 68 286 68 m 395 954 l 338 941 q 310 1037 327 987 q 278 1128 294 1086 q 240 1222 260 1176 l 378 1222 q 383 1140 380 1183 q 389 1055 386 1103 q 395 954 391 1006 z "},"":{"ha":634,"x_min":47,"x_max":588,"o":"m 588 440 q 566 251 588 334 q 507 109 544 167 q 421 19 469 50 q 320 -12 373 -12 q 211 19 261 -12 q 125 107 161 50 q 67 250 88 165 q 47 440 47 334 q 68 633 47 549 q 126 775 89 718 q 213 863 163 833 q 320 893 262 893 q 424 863 375 893 q 509 775 473 833 q 567 633 546 718 q 588 440 588 549 m 313 68 q 386 99 355 68 q 438 182 418 130 q 470 301 459 234 q 480 438 480 368 q 470 577 480 509 q 438 697 459 644 q 386 782 417 750 q 313 814 354 814 q 243 781 273 814 q 193 695 214 749 q 163 573 173 642 q 153 433 153 505 q 157 341 153 386 q 170 255 161 296 q 192 180 179 214 q 223 121 205 146 q 263 82 241 96 q 313 68 286 68 m 240 954 q 246 1055 243 1006 q 252 1140 249 1103 q 257 1222 254 1183 l 395 1222 q 357 1128 375 1176 q 340 1084 349 1107 q 324 1037 332 1061 q 309 988 316 1013 q 296 941 302 964 l 240 954 z "},"":{"ha":634,"x_min":47,"x_max":588,"o":"m 588 440 q 566 251 588 334 q 507 109 544 167 q 421 19 469 50 q 320 -12 373 -12 q 211 19 261 -12 q 125 107 161 50 q 67 250 88 165 q 47 440 47 334 q 68 633 47 549 q 126 775 89 718 q 213 863 163 833 q 320 893 262 893 q 424 863 375 893 q 509 775 473 833 q 567 633 546 718 q 588 440 588 549 m 313 68 q 386 99 355 68 q 438 182 418 130 q 470 301 459 234 q 480 438 480 368 q 470 577 480 509 q 438 697 459 644 q 386 782 417 750 q 313 814 354 814 q 243 781 273 814 q 193 695 214 749 q 163 573 173 642 q 153 433 153 505 q 157 341 153 386 q 170 255 161 296 q 192 180 179 214 q 223 121 205 146 q 263 82 241 96 q 313 68 286 68 m 362 1198 l 464 985 l 362 985 l 317 1153 l 273 985 l 171 985 l 273 1198 l 362 1198 z "},"":{"ha":634,"x_min":47,"x_max":588,"o":"m 588 440 q 566 251 588 334 q 507 109 544 167 q 421 19 469 50 q 320 -12 373 -12 q 211 19 261 -12 q 125 107 161 50 q 67 250 88 165 q 47 440 47 334 q 68 633 47 549 q 126 775 89 718 q 213 863 163 833 q 320 893 262 893 q 424 863 375 893 q 509 775 473 833 q 567 633 546 718 q 588 440 588 549 m 313 68 q 386 99 355 68 q 438 182 418 130 q 470 301 459 234 q 480 438 480 368 q 470 577 480 509 q 438 697 459 644 q 386 782 417 750 q 313 814 354 814 q 243 781 273 814 q 193 695 214 749 q 163 573 173 642 q 153 433 153 505 q 157 341 153 386 q 170 255 161 296 q 192 180 179 214 q 223 121 205 146 q 263 82 241 96 q 313 68 286 68 m 369 1000 q 332 1004 350 1000 q 295 1014 313 1008 q 259 1023 277 1019 q 222 1027 241 1027 q 181 1020 197 1027 q 159 998 164 1013 l 132 1006 q 144 1058 134 1036 q 173 1093 155 1079 q 214 1113 191 1107 q 265 1120 238 1120 q 304 1115 284 1120 q 343 1106 324 1111 q 380 1096 363 1101 q 412 1092 398 1092 q 453 1099 437 1092 q 475 1121 469 1105 l 502 1113 q 490 1061 500 1083 q 461 1026 479 1040 q 420 1006 444 1013 q 369 1000 396 1000 z "},"":{"ha":634,"x_min":47,"x_max":588,"o":"m 588 440 q 566 251 588 334 q 507 109 544 167 q 421 19 469 50 q 320 -12 373 -12 q 211 19 261 -12 q 125 107 161 50 q 67 250 88 165 q 47 440 47 334 q 68 633 47 549 q 126 775 89 718 q 213 863 163 833 q 320 893 262 893 q 424 863 375 893 q 509 775 473 833 q 567 633 546 718 q 588 440 588 549 m 313 68 q 386 99 355 68 q 438 182 418 130 q 470 301 459 234 q 480 438 480 368 q 470 577 480 509 q 438 697 459 644 q 386 782 417 750 q 313 814 354 814 q 243 781 273 814 q 193 695 214 749 q 163 573 173 642 q 153 433 153 505 q 157 341 153 386 q 170 255 161 296 q 192 180 179 214 q 223 121 205 146 q 263 82 241 96 q 313 68 286 68 m 366 1059 q 372 1086 366 1074 q 386 1108 377 1099 q 408 1123 395 1118 q 434 1128 420 1128 q 461 1123 448 1128 q 483 1108 473 1118 q 498 1086 492 1099 q 503 1059 503 1074 q 498 1033 503 1045 q 483 1011 492 1021 q 461 997 473 1002 q 434 991 448 991 q 386 1011 406 991 q 366 1059 366 1031 m 132 1059 q 137 1086 132 1074 q 152 1108 142 1099 q 173 1123 161 1118 q 199 1128 185 1128 q 226 1123 214 1128 q 248 1108 239 1118 q 263 1086 258 1099 q 269 1059 269 1074 q 263 1033 269 1045 q 248 1011 258 1021 q 226 997 239 1002 q 199 991 214 991 q 151 1011 171 991 q 132 1059 132 1031 z "},"":{"ha":446,"x_min":46,"x_max":400,"o":"m 46 475 l 114 543 q 154 491 128 521 q 222 416 179 460 q 292 488 264 458 q 332 543 319 518 l 400 475 q 349 434 379 460 q 273 365 319 409 q 349 295 319 321 q 399 257 380 269 l 332 189 q 291 239 317 209 q 222 314 265 270 q 153 239 178 269 q 115 189 127 209 l 47 257 q 97 297 66 271 q 172 366 127 323 q 101 434 131 407 q 46 475 71 461 z "},"":{"ha":651,"x_min":22,"x_max":633,"o":"m 594 440 q 572 251 594 334 q 513 109 550 167 q 427 19 475 50 q 326 -12 379 -12 q 209 24 262 -12 q 119 127 156 60 l 58 47 l 22 74 l 98 173 q 64 293 76 227 q 53 440 53 360 q 74 633 53 549 q 132 775 95 718 q 219 863 169 833 q 326 893 269 893 q 442 855 389 893 q 533 743 496 817 l 597 828 l 633 802 l 553 696 q 584 581 573 645 q 594 440 594 517 m 159 433 q 173 271 159 347 l 460 648 q 436 715 450 684 q 405 767 422 745 q 366 802 387 789 q 319 814 344 814 q 250 781 279 814 q 199 695 220 749 q 169 573 179 642 q 159 433 159 505 m 319 68 q 392 99 361 68 q 445 182 424 130 q 476 301 465 234 q 486 438 486 368 q 473 591 486 517 l 186 216 q 209 156 195 183 q 238 109 222 128 q 275 79 255 90 q 319 68 295 68 z "},"":{"ha":629,"x_min":20,"x_max":602,"o":"m 602 897 q 532 798 532 874 q 528 679 530 739 q 527 625 528 653 q 527 570 527 597 q 526 515 526 542 q 526 464 526 488 q 526 370 526 413 q 527 286 526 328 q 527 202 527 245 q 527 111 527 160 q 546 71 529 87 q 602 47 564 54 l 602 43 l 433 -20 q 428 2 430 -12 q 426 34 427 16 q 348 -1 389 9 q 267 -12 306 -12 q 207 0 235 -12 q 155 37 178 12 q 118 98 132 61 q 100 184 103 135 q 94 332 96 256 q 92 485 93 407 q 89 645 92 564 q 81 810 87 726 q 63 864 78 842 q 20 897 48 887 l 20 900 l 264 900 l 264 897 q 216 861 233 885 q 198 798 198 836 q 195 652 196 725 q 194 587 194 621 q 193 519 193 553 q 192 452 193 485 q 192 389 192 418 q 198 224 192 287 q 218 126 205 161 q 253 79 232 91 q 304 67 275 67 q 363 77 331 67 q 426 109 395 87 q 429 309 428 216 q 430 489 430 401 q 429 646 430 568 q 420 810 428 724 q 400 864 416 842 q 352 897 383 887 l 352 900 l 602 900 l 602 897 m 389 954 l 333 941 q 305 1037 321 987 q 273 1128 288 1086 q 235 1222 254 1176 l 372 1222 q 378 1140 375 1183 q 383 1055 380 1103 q 389 954 386 1006 z "},"":{"ha":629,"x_min":20,"x_max":602,"o":"m 602 897 q 532 798 532 874 q 528 679 530 739 q 527 625 528 653 q 527 570 527 597 q 526 515 526 542 q 526 464 526 488 q 526 370 526 413 q 527 286 526 328 q 527 202 527 245 q 527 111 527 160 q 546 71 529 87 q 602 47 564 54 l 602 43 l 433 -20 q 428 2 430 -12 q 426 34 427 16 q 348 -1 389 9 q 267 -12 306 -12 q 207 0 235 -12 q 155 37 178 12 q 118 98 132 61 q 100 184 103 135 q 94 332 96 256 q 92 485 93 407 q 89 645 92 564 q 81 810 87 726 q 63 864 78 842 q 20 897 48 887 l 20 900 l 264 900 l 264 897 q 216 861 233 885 q 198 798 198 836 q 195 652 196 725 q 194 587 194 621 q 193 519 193 553 q 192 452 193 485 q 192 389 192 418 q 198 224 192 287 q 218 126 205 161 q 253 79 232 91 q 304 67 275 67 q 363 77 331 67 q 426 109 395 87 q 429 309 428 216 q 430 489 430 401 q 429 646 430 568 q 420 810 428 724 q 400 864 416 842 q 352 897 383 887 l 352 900 l 602 900 l 602 897 m 235 954 q 241 1055 238 1006 q 246 1140 243 1103 q 252 1222 249 1183 l 389 1222 q 351 1128 370 1176 q 335 1084 343 1107 q 319 1037 327 1061 q 303 988 311 1013 q 291 941 296 964 l 235 954 z "},"":{"ha":629,"x_min":20,"x_max":602,"o":"m 602 897 q 532 798 532 874 q 528 679 530 739 q 527 625 528 653 q 527 570 527 597 q 526 515 526 542 q 526 464 526 488 q 526 370 526 413 q 527 286 526 328 q 527 202 527 245 q 527 111 527 160 q 546 71 529 87 q 602 47 564 54 l 602 43 l 433 -20 q 428 2 430 -12 q 426 34 427 16 q 348 -1 389 9 q 267 -12 306 -12 q 207 0 235 -12 q 155 37 178 12 q 118 98 132 61 q 100 184 103 135 q 94 332 96 256 q 92 485 93 407 q 89 645 92 564 q 81 810 87 726 q 63 864 78 842 q 20 897 48 887 l 20 900 l 264 900 l 264 897 q 216 861 233 885 q 198 798 198 836 q 195 652 196 725 q 194 587 194 621 q 193 519 193 553 q 192 452 193 485 q 192 389 192 418 q 198 224 192 287 q 218 126 205 161 q 253 79 232 91 q 304 67 275 67 q 363 77 331 67 q 426 109 395 87 q 429 309 428 216 q 430 489 430 401 q 429 646 430 568 q 420 810 428 724 q 400 864 416 842 q 352 897 383 887 l 352 900 l 602 900 l 602 897 m 357 1198 l 458 985 l 357 985 l 312 1153 l 267 985 l 165 985 l 267 1198 l 357 1198 z "},"":{"ha":629,"x_min":20,"x_max":602,"o":"m 602 897 q 532 798 532 874 q 528 679 530 739 q 527 625 528 653 q 527 570 527 597 q 526 515 526 542 q 526 464 526 488 q 526 370 526 413 q 527 286 526 328 q 527 202 527 245 q 527 111 527 160 q 546 71 529 87 q 602 47 564 54 l 602 43 l 433 -20 q 428 2 430 -12 q 426 34 427 16 q 348 -1 389 9 q 267 -12 306 -12 q 207 0 235 -12 q 155 37 178 12 q 118 98 132 61 q 100 184 103 135 q 94 332 96 256 q 92 485 93 407 q 89 645 92 564 q 81 810 87 726 q 63 864 78 842 q 20 897 48 887 l 20 900 l 264 900 l 264 897 q 216 861 233 885 q 198 798 198 836 q 195 652 196 725 q 194 587 194 621 q 193 519 193 553 q 192 452 193 485 q 192 389 192 418 q 198 224 192 287 q 218 126 205 161 q 253 79 232 91 q 304 67 275 67 q 363 77 331 67 q 426 109 395 87 q 429 309 428 216 q 430 489 430 401 q 429 646 430 568 q 420 810 428 724 q 400 864 416 842 q 352 897 383 887 l 352 900 l 602 900 l 602 897 m 361 1059 q 366 1086 361 1074 q 381 1108 372 1099 q 402 1123 390 1118 q 429 1128 414 1128 q 455 1123 443 1128 q 477 1108 468 1118 q 492 1086 487 1099 q 498 1059 498 1074 q 492 1033 498 1045 q 477 1011 487 1021 q 455 997 468 1002 q 429 991 443 991 q 380 1011 400 991 q 361 1059 361 1031 m 126 1059 q 132 1086 126 1074 q 146 1108 137 1099 q 168 1123 155 1118 q 194 1128 180 1128 q 221 1123 208 1128 q 243 1108 233 1118 q 258 1086 252 1099 q 263 1059 263 1074 q 258 1033 263 1045 q 243 1011 252 1021 q 221 997 233 1002 q 194 991 208 991 q 146 1011 165 991 q 126 1059 126 1031 z "},"":{"ha":495,"x_min":-31,"x_max":526,"o":"m 123 3 q 174 49 155 11 q 194 147 193 87 l 196 224 q 179 321 189 274 q 158 413 170 368 q 135 504 147 459 q 112 594 123 549 q 84 691 99 641 q 54 796 69 741 q 25 858 43 831 q -31 897 6 885 l -31 900 l 213 900 l 214 897 q 169 860 181 885 q 161 799 156 836 q 179 700 168 747 q 202 605 191 652 q 226 510 214 558 q 248 411 238 463 q 269 510 257 463 q 293 605 281 558 q 316 700 305 652 q 334 799 327 747 q 326 860 338 836 q 281 897 314 885 l 282 900 l 526 900 l 526 897 q 470 858 489 885 q 441 796 452 831 q 411 691 426 741 q 383 594 396 641 q 361 510 372 551 q 338 426 349 468 q 318 340 328 383 q 302 250 309 296 l 300 151 q 301 103 300 125 q 309 63 302 81 q 328 30 315 45 q 366 3 341 14 l 366 0 l 123 0 l 123 3 m 170 954 q 176 1055 174 1006 q 182 1140 179 1103 q 187 1222 184 1183 l 325 1222 q 287 1128 305 1176 q 271 1084 279 1107 q 254 1037 262 1061 q 239 988 246 1013 q 227 941 232 964 l 170 954 z "},"":{"ha":487,"x_min":29,"x_max":456,"o":"m 107 489 q 107 639 107 564 q 102 796 108 714 q 85 859 100 832 q 35 897 70 885 l 35 900 l 280 900 l 280 897 q 225 853 241 884 q 209 780 209 823 l 297 780 q 358 764 330 780 q 409 716 387 747 q 444 638 431 684 q 456 534 456 593 q 452 468 456 504 q 437 396 448 432 q 409 326 427 359 q 364 266 391 292 q 302 223 338 239 q 218 208 266 208 q 209 208 214 208 q 199 208 204 208 q 201 143 201 175 q 208 83 201 111 q 229 34 214 55 q 274 3 243 14 l 274 0 l 29 0 l 29 3 q 79 41 64 15 q 96 104 94 68 q 104 307 101 213 q 107 489 107 400 m 198 464 q 198 375 198 419 q 199 286 199 331 q 268 302 240 286 q 314 349 296 318 q 340 427 332 380 q 348 534 348 473 q 327 662 348 616 q 262 707 305 707 q 233 707 249 707 q 204 705 218 707 l 204 678 q 201 600 202 639 q 199 530 199 567 q 198 464 198 493 z "},"":{"ha":509,"x_min":22,"x_max":468,"o":"m 22 0 l 22 3 q 67 41 54 15 q 83 104 80 68 q 93 299 90 201 q 96 504 96 397 q 95 545 96 518 q 94 602 95 572 q 93 660 94 632 q 93 702 93 687 q 104 786 93 749 q 133 848 115 823 q 178 886 152 873 q 234 899 203 899 q 297 886 267 899 q 351 848 328 873 q 387 786 374 823 q 400 702 400 749 q 371 627 400 659 q 291 576 341 595 q 363 522 330 553 q 419 448 396 490 q 455 356 442 407 q 468 243 468 304 q 447 93 468 159 q 391 -20 426 26 q 310 -91 356 -66 q 214 -115 264 -115 l 210 -115 l 210 -41 q 281 -12 251 -38 q 330 54 311 14 q 358 143 349 94 q 367 241 367 192 q 358 341 367 291 q 332 431 349 391 q 289 497 315 471 q 229 526 263 524 l 229 603 q 261 615 248 605 q 283 639 275 625 q 295 670 292 653 q 299 704 299 688 q 296 746 299 724 q 285 785 292 767 q 267 813 278 802 q 241 825 256 825 q 219 809 229 825 q 203 755 210 793 q 194 654 197 718 q 191 496 191 591 l 191 288 q 191 203 191 242 q 193 130 191 164 q 201 64 195 95 q 218 3 206 33 l 218 0 l 22 0 z "},"":{"ha":463,"x_min":37,"x_max":444,"o":"m 168 456 l 53 527 q 80 604 62 575 q 120 648 98 633 q 166 668 142 663 q 215 673 191 673 q 341 612 299 673 q 382 434 382 552 q 381 327 382 372 q 381 250 381 282 q 381 198 381 218 q 380 164 380 177 q 380 142 380 151 q 380 127 380 134 q 382 92 380 111 q 391 55 385 73 q 410 24 397 38 q 444 3 422 10 l 444 0 l 338 0 q 315 26 323 9 q 302 62 307 42 q 290 40 298 54 q 267 13 281 26 q 232 -10 252 -1 q 186 -20 212 -20 q 119 -4 147 -20 q 73 38 91 12 q 45 99 54 64 q 37 170 37 133 q 51 263 37 216 q 93 346 66 309 q 157 406 119 383 q 240 429 194 429 q 284 425 263 429 q 279 513 284 479 q 265 568 275 548 q 241 594 256 587 q 208 602 227 602 q 180 596 191 602 q 162 581 169 591 q 152 559 155 572 q 149 532 149 547 q 154 494 149 513 q 170 458 160 474 l 168 456 m 197 52 q 240 72 223 52 q 266 119 256 91 q 280 180 276 148 q 284 238 284 212 l 284 368 q 245 374 264 374 q 197 358 218 374 q 161 317 176 342 q 140 257 147 291 q 132 188 132 223 q 136 136 132 161 q 149 93 140 112 q 169 63 157 75 q 197 52 181 52 m 313 707 l 257 694 q 229 790 245 740 q 197 881 212 840 q 159 975 178 929 l 296 975 q 302 893 299 937 q 307 808 304 856 q 313 707 310 760 z "},"":{"ha":463,"x_min":37,"x_max":444,"o":"m 168 456 l 53 527 q 80 604 62 575 q 120 648 98 633 q 166 668 142 663 q 215 673 191 673 q 341 612 299 673 q 382 434 382 552 q 381 327 382 372 q 381 250 381 282 q 381 198 381 218 q 380 164 380 177 q 380 142 380 151 q 380 127 380 134 q 382 92 380 111 q 391 55 385 73 q 410 24 397 38 q 444 3 422 10 l 444 0 l 338 0 q 315 26 323 9 q 302 62 307 42 q 290 40 298 54 q 267 13 281 26 q 232 -10 252 -1 q 186 -20 212 -20 q 119 -4 147 -20 q 73 38 91 12 q 45 99 54 64 q 37 170 37 133 q 51 263 37 216 q 93 346 66 309 q 157 406 119 383 q 240 429 194 429 q 284 425 263 429 q 279 513 284 479 q 265 568 275 548 q 241 594 256 587 q 208 602 227 602 q 180 596 191 602 q 162 581 169 591 q 152 559 155 572 q 149 532 149 547 q 154 494 149 513 q 170 458 160 474 l 168 456 m 197 52 q 240 72 223 52 q 266 119 256 91 q 280 180 276 148 q 284 238 284 212 l 284 368 q 245 374 264 374 q 197 358 218 374 q 161 317 176 342 q 140 257 147 291 q 132 188 132 223 q 136 136 132 161 q 149 93 140 112 q 169 63 157 75 q 197 52 181 52 m 159 707 q 165 808 162 760 q 170 893 168 856 q 176 975 173 937 l 313 975 q 275 881 294 929 q 259 837 267 861 q 243 790 251 814 q 228 741 235 766 q 215 694 220 717 l 159 707 z "},"":{"ha":463,"x_min":37,"x_max":444,"o":"m 168 456 l 53 527 q 80 604 62 575 q 120 648 98 633 q 166 668 142 663 q 215 673 191 673 q 341 612 299 673 q 382 434 382 552 q 381 327 382 372 q 381 250 381 282 q 381 198 381 218 q 380 164 380 177 q 380 142 380 151 q 380 127 380 134 q 382 92 380 111 q 391 55 385 73 q 410 24 397 38 q 444 3 422 10 l 444 0 l 338 0 q 315 26 323 9 q 302 62 307 42 q 290 40 298 54 q 267 13 281 26 q 232 -10 252 -1 q 186 -20 212 -20 q 119 -4 147 -20 q 73 38 91 12 q 45 99 54 64 q 37 170 37 133 q 51 263 37 216 q 93 346 66 309 q 157 406 119 383 q 240 429 194 429 q 284 425 263 429 q 279 513 284 479 q 265 568 275 548 q 241 594 256 587 q 208 602 227 602 q 180 596 191 602 q 162 581 169 591 q 152 559 155 572 q 149 532 149 547 q 154 494 149 513 q 170 458 160 474 l 168 456 m 197 52 q 240 72 223 52 q 266 119 256 91 q 280 180 276 148 q 284 238 284 212 l 284 368 q 245 374 264 374 q 197 358 218 374 q 161 317 176 342 q 140 257 147 291 q 132 188 132 223 q 136 136 132 161 q 149 93 140 112 q 169 63 157 75 q 197 52 181 52 m 281 951 l 382 738 l 281 738 l 236 906 l 191 738 l 90 738 l 191 951 l 281 951 z "},"":{"ha":463,"x_min":37,"x_max":444,"o":"m 168 456 l 53 527 q 80 604 62 575 q 120 648 98 633 q 166 668 142 663 q 215 673 191 673 q 341 612 299 673 q 382 434 382 552 q 381 327 382 372 q 381 250 381 282 q 381 198 381 218 q 380 164 380 177 q 380 142 380 151 q 380 127 380 134 q 382 92 380 111 q 391 55 385 73 q 410 24 397 38 q 444 3 422 10 l 444 0 l 338 0 q 315 26 323 9 q 302 62 307 42 q 290 40 298 54 q 267 13 281 26 q 232 -10 252 -1 q 186 -20 212 -20 q 119 -4 147 -20 q 73 38 91 12 q 45 99 54 64 q 37 170 37 133 q 51 263 37 216 q 93 346 66 309 q 157 406 119 383 q 240 429 194 429 q 284 425 263 429 q 279 513 284 479 q 265 568 275 548 q 241 594 256 587 q 208 602 227 602 q 180 596 191 602 q 162 581 169 591 q 152 559 155 572 q 149 532 149 547 q 154 494 149 513 q 170 458 160 474 l 168 456 m 197 52 q 240 72 223 52 q 266 119 256 91 q 280 180 276 148 q 284 238 284 212 l 284 368 q 245 374 264 374 q 197 358 218 374 q 161 317 176 342 q 140 257 147 291 q 132 188 132 223 q 136 136 132 161 q 149 93 140 112 q 169 63 157 75 q 197 52 181 52 m 288 753 q 251 757 269 753 q 215 767 233 762 q 178 776 197 772 q 141 781 160 781 q 100 773 117 781 q 79 751 83 766 l 52 760 q 64 811 53 789 q 92 846 75 832 q 134 866 110 860 q 184 873 157 873 q 223 868 203 873 q 263 859 243 864 q 300 849 282 854 q 332 845 317 845 q 373 852 357 845 q 394 874 389 859 l 421 866 q 409 814 420 836 q 380 779 398 793 q 339 759 363 766 q 288 753 315 753 z "},"":{"ha":463,"x_min":37,"x_max":444,"o":"m 168 456 l 53 527 q 80 604 62 575 q 120 648 98 633 q 166 668 142 663 q 215 673 191 673 q 341 612 299 673 q 382 434 382 552 q 381 327 382 372 q 381 250 381 282 q 381 198 381 218 q 380 164 380 177 q 380 142 380 151 q 380 127 380 134 q 382 92 380 111 q 391 55 385 73 q 410 24 397 38 q 444 3 422 10 l 444 0 l 338 0 q 315 26 323 9 q 302 62 307 42 q 290 40 298 54 q 267 13 281 26 q 232 -10 252 -1 q 186 -20 212 -20 q 119 -4 147 -20 q 73 38 91 12 q 45 99 54 64 q 37 170 37 133 q 51 263 37 216 q 93 346 66 309 q 157 406 119 383 q 240 429 194 429 q 284 425 263 429 q 279 513 284 479 q 265 568 275 548 q 241 594 256 587 q 208 602 227 602 q 180 596 191 602 q 162 581 169 591 q 152 559 155 572 q 149 532 149 547 q 154 494 149 513 q 170 458 160 474 l 168 456 m 197 52 q 240 72 223 52 q 266 119 256 91 q 280 180 276 148 q 284 238 284 212 l 284 368 q 245 374 264 374 q 197 358 218 374 q 161 317 176 342 q 140 257 147 291 q 132 188 132 223 q 136 136 132 161 q 149 93 140 112 q 169 63 157 75 q 197 52 181 52 m 285 812 q 290 839 285 827 q 305 861 296 852 q 326 876 314 871 q 353 882 338 882 q 379 876 367 882 q 401 861 392 871 q 416 839 411 852 q 422 812 422 827 q 416 786 422 798 q 401 765 411 774 q 379 750 392 755 q 353 745 367 745 q 304 764 324 745 q 285 812 285 784 m 50 812 q 56 839 50 827 q 70 861 61 852 q 92 876 79 871 q 118 882 104 882 q 145 876 132 882 q 167 861 157 871 q 182 839 176 852 q 187 812 187 827 q 182 786 187 798 q 167 765 176 774 q 145 750 157 755 q 118 745 132 745 q 70 764 90 745 q 50 812 50 784 z "},"":{"ha":463,"x_min":37,"x_max":444,"o":"m 168 456 l 53 527 q 80 604 62 575 q 120 648 98 633 q 166 668 142 663 q 215 673 191 673 q 341 612 299 673 q 382 434 382 552 q 381 327 382 372 q 381 250 381 282 q 381 198 381 218 q 380 164 380 177 q 380 142 380 151 q 380 127 380 134 q 382 92 380 111 q 391 55 385 73 q 410 24 397 38 q 444 3 422 10 l 444 0 l 338 0 q 315 26 323 9 q 302 62 307 42 q 290 40 298 54 q 267 13 281 26 q 232 -10 252 -1 q 186 -20 212 -20 q 119 -4 147 -20 q 73 38 91 12 q 45 99 54 64 q 37 170 37 133 q 51 263 37 216 q 93 346 66 309 q 157 406 119 383 q 240 429 194 429 q 284 425 263 429 q 279 513 284 479 q 265 568 275 548 q 241 594 256 587 q 208 602 227 602 q 180 596 191 602 q 162 581 169 591 q 152 559 155 572 q 149 532 149 547 q 154 494 149 513 q 170 458 160 474 l 168 456 m 197 52 q 240 72 223 52 q 266 119 256 91 q 280 180 276 148 q 284 238 284 212 l 284 368 q 245 374 264 374 q 197 358 218 374 q 161 317 176 342 q 140 257 147 291 q 132 188 132 223 q 136 136 132 161 q 149 93 140 112 q 169 63 157 75 q 197 52 181 52 m 236 1030 q 293 1021 265 1030 q 341 993 320 1011 q 376 947 363 975 q 389 884 389 920 q 376 821 389 848 q 341 775 363 793 q 292 747 319 757 q 236 738 264 738 q 180 747 208 738 q 131 775 153 757 q 96 821 109 793 q 83 884 83 848 q 96 947 83 920 q 131 993 109 975 q 179 1021 152 1011 q 236 1030 207 1030 m 236 789 q 277 798 260 789 q 306 819 294 806 q 323 849 317 832 q 329 883 329 865 q 323 919 329 901 q 305 950 317 937 q 276 972 294 964 q 236 981 259 981 q 196 972 213 981 q 166 951 178 964 q 149 920 155 937 q 142 884 142 903 q 148 850 142 867 q 165 820 154 833 q 195 799 177 807 q 236 789 212 790 z "},"":{"ha":717,"x_min":37,"x_max":681,"o":"m 532 231 l 681 218 q 664 112 681 157 q 620 38 646 68 q 560 -5 593 9 q 496 -20 528 -20 q 409 9 449 -20 q 340 94 368 37 q 310 51 326 71 q 275 14 294 30 q 234 -11 256 -1 q 186 -20 212 -20 q 119 -4 147 -20 q 73 38 91 12 q 45 99 54 64 q 37 170 37 133 q 51 263 37 216 q 93 346 66 309 q 157 406 119 383 q 240 429 194 429 q 284 425 263 429 q 279 513 284 479 q 265 567 275 548 q 241 594 256 587 q 208 601 227 601 q 180 595 191 601 q 162 581 169 590 q 152 559 155 571 q 149 532 149 547 q 155 492 149 513 q 171 454 161 471 l 53 527 q 80 604 62 575 q 120 648 98 633 q 166 669 142 664 q 215 673 191 673 q 294 650 260 673 q 347 579 328 626 q 496 673 407 673 q 565 653 534 673 q 621 594 597 633 q 659 497 644 555 q 677 364 673 439 l 390 264 q 429 102 399 153 q 507 52 460 52 q 544 60 529 52 q 569 82 559 68 q 584 114 579 96 q 588 149 588 131 q 574 192 588 171 q 532 228 560 213 l 532 231 m 197 52 q 240 71 223 52 q 266 120 256 91 q 280 181 276 149 q 284 238 284 213 l 284 368 q 245 374 264 374 q 197 358 218 374 q 161 317 176 342 q 140 257 147 291 q 132 188 132 223 q 136 138 132 162 q 149 94 140 113 q 169 63 157 75 q 197 52 181 52 m 387 324 q 435 343 406 332 q 509 375 465 355 q 552 398 534 387 q 585 418 570 410 q 556 557 578 512 q 496 602 534 602 q 415 532 444 602 q 387 327 387 463 l 387 324 z "},"":{"ha":501,"x_min":43,"x_max":484,"o":"m 425 191 l 458 99 q 381 10 426 40 q 282 -20 337 -20 q 188 3 231 -20 q 112 70 144 26 q 61 178 79 114 q 43 326 43 243 q 60 474 43 410 q 107 583 77 538 q 179 650 138 627 q 268 673 220 673 q 353 657 317 673 q 414 615 389 642 q 455 549 439 587 q 484 466 472 511 l 352 397 l 350 400 q 370 434 363 417 q 376 467 376 450 q 372 512 376 488 q 356 555 368 536 q 326 588 345 575 q 277 602 307 602 q 224 585 249 602 q 182 534 200 568 q 154 449 164 500 q 144 326 144 397 q 182 121 144 190 q 288 52 220 52 q 335 62 313 52 q 373 92 356 73 q 402 136 390 111 q 422 191 414 161 l 425 191 m 241 -37 l 237 2 l 294 2 l 296 -33 q 349 -42 325 -35 q 391 -61 374 -49 q 418 -89 408 -73 q 428 -125 428 -105 q 416 -180 428 -156 q 384 -220 404 -203 q 339 -244 364 -236 q 289 -252 315 -252 q 249 -247 269 -252 q 214 -232 230 -242 q 185 -205 197 -221 q 166 -169 172 -190 l 250 -127 l 250 -128 q 245 -157 245 -146 q 254 -180 245 -172 q 287 -189 263 -189 q 306 -186 296 -189 q 323 -175 315 -182 q 336 -155 331 -168 q 340 -125 340 -143 q 322 -87 340 -100 q 270 -75 303 -75 q 263 -75 267 -75 q 256 -76 259 -75 q 247 -77 252 -77 l 241 -37 z "},"":{"ha":475,"x_min":43,"x_max":439,"o":"m 290 231 l 439 218 q 421 112 439 157 q 377 38 404 68 q 318 -5 351 9 q 254 -20 286 -20 q 171 3 210 -20 q 104 71 132 26 q 59 179 75 115 q 43 327 43 243 q 59 475 43 410 q 104 583 75 539 q 171 650 132 627 q 254 673 210 673 q 323 653 292 673 q 378 594 355 633 q 417 497 402 555 q 435 364 431 439 l 148 264 q 187 102 157 153 q 264 52 218 52 q 302 60 287 52 q 327 82 317 68 q 341 114 337 96 q 346 149 346 131 q 332 192 346 171 q 290 228 318 213 l 290 231 m 144 324 q 193 343 164 332 q 267 375 222 355 q 310 398 292 387 q 342 418 328 410 q 314 557 336 512 q 254 602 292 602 q 173 532 202 602 q 144 327 144 463 l 144 324 m 317 707 l 260 694 q 232 790 249 740 q 200 881 216 840 q 162 975 182 929 l 300 975 q 305 893 302 937 q 311 808 308 856 q 317 707 313 760 z "},"":{"ha":475,"x_min":43,"x_max":439,"o":"m 290 231 l 439 218 q 421 112 439 157 q 377 38 404 68 q 318 -5 351 9 q 254 -20 286 -20 q 171 3 210 -20 q 104 71 132 26 q 59 179 75 115 q 43 327 43 243 q 59 475 43 410 q 104 583 75 539 q 171 650 132 627 q 254 673 210 673 q 323 653 292 673 q 378 594 355 633 q 417 497 402 555 q 435 364 431 439 l 148 264 q 187 102 157 153 q 264 52 218 52 q 302 60 287 52 q 327 82 317 68 q 341 114 337 96 q 346 149 346 131 q 332 192 346 171 q 290 228 318 213 l 290 231 m 144 324 q 193 343 164 332 q 267 375 222 355 q 310 398 292 387 q 342 418 328 410 q 314 557 336 512 q 254 602 292 602 q 173 532 202 602 q 144 327 144 463 l 144 324 m 161 707 q 168 808 165 760 q 173 893 170 856 q 178 975 176 937 l 316 975 q 278 881 296 929 q 262 837 270 861 q 245 790 254 814 q 230 741 237 766 q 218 694 223 717 l 161 707 z "},"":{"ha":475,"x_min":43,"x_max":439,"o":"m 290 231 l 439 218 q 421 112 439 157 q 377 38 404 68 q 318 -5 351 9 q 254 -20 286 -20 q 171 3 210 -20 q 104 71 132 26 q 59 179 75 115 q 43 327 43 243 q 59 475 43 410 q 104 583 75 539 q 171 650 132 627 q 254 673 210 673 q 323 653 292 673 q 378 594 355 633 q 417 497 402 555 q 435 364 431 439 l 148 264 q 187 102 157 153 q 264 52 218 52 q 302 60 287 52 q 327 82 317 68 q 341 114 337 96 q 346 149 346 131 q 332 192 346 171 q 290 228 318 213 l 290 231 m 144 324 q 193 343 164 332 q 267 375 222 355 q 310 398 292 387 q 342 418 328 410 q 314 557 336 512 q 254 602 292 602 q 173 532 202 602 q 144 327 144 463 l 144 324 m 284 951 l 386 738 l 284 738 l 239 906 l 195 738 l 93 738 l 195 951 l 284 951 z "},"":{"ha":475,"x_min":43,"x_max":439,"o":"m 290 231 l 439 218 q 421 112 439 157 q 377 38 404 68 q 318 -5 351 9 q 254 -20 286 -20 q 171 3 210 -20 q 104 71 132 26 q 59 179 75 115 q 43 327 43 243 q 59 475 43 410 q 104 583 75 539 q 171 650 132 627 q 254 673 210 673 q 323 653 292 673 q 378 594 355 633 q 417 497 402 555 q 435 364 431 439 l 148 264 q 187 102 157 153 q 264 52 218 52 q 302 60 287 52 q 327 82 317 68 q 341 114 337 96 q 346 149 346 131 q 332 192 346 171 q 290 228 318 213 l 290 231 m 144 324 q 193 343 164 332 q 267 375 222 355 q 310 398 292 387 q 342 418 328 410 q 314 557 336 512 q 254 602 292 602 q 173 532 202 602 q 144 327 144 463 l 144 324 m 288 812 q 294 839 288 827 q 308 861 299 852 q 330 876 317 871 q 356 882 342 882 q 383 876 370 882 q 405 861 395 871 q 420 839 414 852 q 425 812 425 827 q 420 786 425 798 q 405 765 414 774 q 383 750 395 755 q 356 745 370 745 q 308 764 328 745 q 288 812 288 784 m 54 812 q 59 839 54 827 q 74 861 64 852 q 95 876 83 871 q 121 882 107 882 q 148 876 136 882 q 170 861 161 871 q 185 839 180 852 q 191 812 191 827 q 185 786 191 798 q 170 765 180 774 q 148 750 161 755 q 121 745 136 745 q 73 764 93 745 q 54 812 54 784 z "},"":{"ha":294,"x_min":12,"x_max":277,"o":"m 110 351 q 110 458 110 414 q 106 531 109 502 q 98 578 104 561 q 81 603 92 595 q 53 614 70 612 q 12 616 36 616 l 12 619 l 209 673 q 201 510 201 600 q 201 326 201 421 q 201 262 201 288 q 201 213 201 236 q 203 164 201 190 q 207 101 204 139 q 226 40 210 64 q 277 3 242 15 l 277 0 l 32 0 l 32 3 q 81 41 66 15 q 99 104 96 68 q 102 158 100 135 q 105 201 104 182 q 107 236 106 220 q 109 269 108 252 q 110 306 109 286 q 110 351 110 325 m 222 707 l 166 694 q 138 790 155 740 q 106 881 121 840 q 68 975 87 929 l 205 975 q 211 893 208 937 q 216 808 214 856 q 222 707 219 760 z "},"":{"ha":294,"x_min":12,"x_max":277,"o":"m 110 351 q 110 458 110 414 q 106 531 109 502 q 98 578 104 561 q 81 603 92 595 q 53 614 70 612 q 12 616 36 616 l 12 619 l 209 673 q 201 510 201 600 q 201 326 201 421 q 201 262 201 288 q 201 213 201 236 q 203 164 201 190 q 207 101 204 139 q 226 40 210 64 q 277 3 242 15 l 277 0 l 32 0 l 32 3 q 81 41 66 15 q 99 104 96 68 q 102 158 100 135 q 105 201 104 182 q 107 236 106 220 q 109 269 108 252 q 110 306 109 286 q 110 351 110 325 m 68 707 q 74 808 71 760 q 79 893 77 856 q 85 975 82 937 l 222 975 q 184 881 203 929 q 168 837 176 861 q 152 790 160 814 q 137 741 144 766 q 124 694 130 717 l 68 707 z "},"":{"ha":294,"x_min":1,"x_max":294,"o":"m 111 351 q 110 458 111 414 q 107 531 110 502 q 99 578 104 561 q 82 603 93 595 q 54 614 71 612 q 12 616 37 616 l 12 619 l 210 673 q 202 510 202 600 q 201 326 201 421 q 201 262 201 288 q 202 213 201 236 q 203 164 202 190 q 208 101 205 139 q 227 40 210 64 q 277 3 243 15 l 277 0 l 33 0 l 33 3 q 82 41 67 15 q 100 104 97 68 q 103 158 101 135 q 105 201 104 182 q 107 236 106 220 q 109 269 109 252 q 110 306 110 286 q 111 351 111 325 m 192 951 l 294 738 l 192 738 l 147 906 l 102 738 l 1 738 l 102 951 l 192 951 z "},"":{"ha":294,"x_min":-39,"x_max":333,"o":"m 111 351 q 110 458 111 414 q 107 531 110 502 q 99 578 104 561 q 82 603 93 595 q 54 614 71 612 q 12 616 37 616 l 12 619 l 210 673 q 202 510 202 600 q 201 326 201 421 q 201 262 201 288 q 202 213 201 236 q 203 164 202 190 q 208 101 205 139 q 227 40 210 64 q 277 3 243 15 l 277 0 l 33 0 l 33 3 q 82 41 67 15 q 100 104 97 68 q 103 158 101 135 q 105 201 104 182 q 107 236 106 220 q 109 269 109 252 q 110 306 110 286 q 111 351 111 325 m 196 812 q 201 839 196 827 q 216 861 207 852 q 237 876 225 871 q 264 882 250 882 q 291 876 278 882 q 313 861 303 871 q 328 839 322 852 q 333 812 333 827 q 328 786 333 798 q 313 765 322 774 q 291 750 303 755 q 264 745 278 745 q 216 764 235 745 q 196 812 196 784 m -39 812 q -33 839 -39 827 q -19 861 -28 852 q 3 876 -9 871 q 29 882 15 882 q 56 876 43 882 q 78 861 68 871 q 93 839 87 852 q 98 812 98 827 q 93 786 98 798 q 78 765 87 774 q 56 750 68 755 q 29 745 43 745 q -19 764 1 745 q -39 812 -39 784 z "},"":{"ha":586,"x_min":31,"x_max":575,"o":"m 575 735 l 575 638 q 530 645 557 642 q 463 650 503 648 q 481 552 475 605 q 488 440 488 500 q 483 345 488 395 q 467 243 478 294 q 438 147 456 193 q 393 66 420 101 q 332 10 367 31 q 251 -11 296 -11 q 158 17 199 -11 q 89 88 117 44 q 46 186 60 132 q 31 296 31 241 q 42 395 31 348 q 76 479 53 443 q 133 538 98 516 q 215 560 168 560 q 255 554 233 560 q 297 534 277 547 q 332 503 317 522 q 349 459 346 484 l 256 382 q 274 419 269 403 q 280 450 280 436 q 274 471 280 463 q 258 484 267 479 q 238 491 249 489 q 220 492 228 492 q 179 476 197 492 q 151 432 162 460 q 134 369 140 405 q 129 295 129 334 q 137 212 129 254 q 160 137 145 170 q 198 82 176 103 q 251 61 221 61 q 299 78 278 61 q 334 124 319 96 q 357 191 348 153 q 372 270 367 229 q 380 353 378 311 q 382 433 382 395 q 376 546 382 490 q 357 651 370 602 q 267 650 302 651 q 212 644 232 648 l 212 734 q 261 728 231 731 q 334 723 290 724 q 292 793 317 767 q 235 819 267 819 q 199 808 216 819 q 171 779 183 797 q 153 739 159 761 q 146 693 146 716 q 153 653 146 673 q 177 618 161 633 l 175 614 l 87 673 q 60 730 60 695 q 74 785 60 756 q 110 838 87 814 q 163 878 133 862 q 228 893 193 893 q 349 850 294 893 q 439 722 404 806 q 519 725 486 722 q 575 735 553 727 z "},"":{"ha":547,"x_min":12,"x_max":536,"o":"m 467 401 q 467 314 467 354 q 468 237 467 275 q 470 159 469 199 q 473 74 471 120 q 490 30 475 48 q 536 3 505 12 l 536 0 l 325 0 l 325 3 q 359 31 349 11 q 372 77 370 51 q 375 191 374 140 q 376 277 376 241 q 374 409 376 349 q 366 511 373 469 q 346 577 359 553 q 309 600 333 600 q 267 587 286 600 q 232 551 247 574 q 209 495 218 528 q 200 423 200 463 l 200 335 q 201 204 200 269 q 206 74 203 140 q 220 30 208 48 q 256 3 232 12 l 256 0 l 35 0 l 35 3 q 85 31 70 11 q 102 77 100 51 q 108 203 106 144 q 110 319 110 262 q 109 449 110 397 q 98 531 107 500 q 69 575 89 562 q 12 588 49 588 l 12 591 l 195 673 q 189 630 190 654 q 189 581 189 606 q 218 627 202 609 q 252 655 235 645 q 285 669 269 665 q 316 673 302 673 q 427 604 387 673 q 467 401 467 535 m 326 753 q 288 757 307 753 q 252 767 270 762 q 216 776 234 772 q 178 781 197 781 q 137 773 154 781 q 116 751 121 766 l 89 760 q 101 811 90 789 q 130 846 112 832 q 171 866 147 860 q 222 873 195 873 q 261 868 241 873 q 300 859 281 864 q 337 849 319 854 q 369 845 355 845 q 410 852 394 845 q 431 874 426 859 l 458 866 q 446 814 457 836 q 418 779 435 793 q 376 759 400 766 q 326 753 353 753 z "},"":{"ha":491,"x_min":43,"x_max":448,"o":"m 144 327 q 172 121 144 191 q 248 52 199 52 q 322 121 297 52 q 347 327 347 191 q 322 532 347 463 q 248 600 297 600 q 172 532 199 600 q 144 327 144 463 m 43 327 q 59 475 43 410 q 102 583 75 539 q 167 650 130 627 q 248 673 204 673 q 326 650 289 673 q 389 583 362 627 q 432 475 416 539 q 448 327 448 410 q 432 179 448 243 q 389 71 416 115 q 326 3 362 26 q 248 -20 289 -20 q 167 3 204 -20 q 102 71 130 26 q 59 179 75 115 q 43 327 43 243 m 323 707 l 267 694 q 238 790 255 740 q 206 881 222 840 q 168 975 188 929 l 306 975 q 311 893 309 937 q 317 808 314 856 q 323 707 319 760 z "},"":{"ha":491,"x_min":43,"x_max":448,"o":"m 144 327 q 172 121 144 191 q 248 52 199 52 q 322 121 297 52 q 347 327 347 191 q 322 532 347 463 q 248 600 297 600 q 172 532 199 600 q 144 327 144 463 m 43 327 q 59 475 43 410 q 102 583 75 539 q 167 650 130 627 q 248 673 204 673 q 326 650 289 673 q 389 583 362 627 q 432 475 416 539 q 448 327 448 410 q 432 179 448 243 q 389 71 416 115 q 326 3 362 26 q 248 -20 289 -20 q 167 3 204 -20 q 102 71 130 26 q 59 179 75 115 q 43 327 43 243 m 168 707 q 174 808 172 760 q 180 893 177 856 q 185 975 182 937 l 323 975 q 285 881 303 929 q 269 837 277 861 q 252 790 260 814 q 237 741 244 766 q 224 694 230 717 l 168 707 z "},"":{"ha":491,"x_min":43,"x_max":448,"o":"m 144 327 q 172 121 144 191 q 248 52 199 52 q 322 121 297 52 q 347 327 347 191 q 322 532 347 463 q 248 600 297 600 q 172 532 199 600 q 144 327 144 463 m 43 327 q 59 475 43 410 q 102 583 75 539 q 167 650 130 627 q 248 673 204 673 q 326 650 289 673 q 389 583 362 627 q 432 475 416 539 q 448 327 448 410 q 432 179 448 243 q 389 71 416 115 q 326 3 362 26 q 248 -20 289 -20 q 167 3 204 -20 q 102 71 130 26 q 59 179 75 115 q 43 327 43 243 m 290 951 l 392 738 l 290 738 l 245 906 l 201 738 l 99 738 l 201 951 l 290 951 z "},"":{"ha":491,"x_min":43,"x_max":448,"o":"m 144 327 q 172 121 144 191 q 248 52 199 52 q 322 121 297 52 q 347 327 347 191 q 322 532 347 463 q 248 600 297 600 q 172 532 199 600 q 144 327 144 463 m 43 327 q 59 475 43 410 q 102 583 75 539 q 167 650 130 627 q 248 673 204 673 q 326 650 289 673 q 389 583 362 627 q 432 475 416 539 q 448 327 448 410 q 432 179 448 243 q 389 71 416 115 q 326 3 362 26 q 248 -20 289 -20 q 167 3 204 -20 q 102 71 130 26 q 59 179 75 115 q 43 327 43 243 m 297 753 q 260 757 278 753 q 223 767 241 762 q 187 776 205 772 q 150 781 169 781 q 109 773 125 781 q 87 751 92 766 l 60 760 q 73 811 62 789 q 101 846 83 832 q 142 866 119 860 q 193 873 166 873 q 232 868 212 873 q 272 859 252 864 q 309 849 291 854 q 340 845 326 845 q 381 852 366 845 q 403 874 397 859 l 430 866 q 418 814 429 836 q 389 779 407 793 q 348 759 372 766 q 297 753 324 753 z "},"":{"ha":491,"x_min":43,"x_max":448,"o":"m 144 327 q 172 121 144 191 q 248 52 199 52 q 322 121 297 52 q 347 327 347 191 q 322 532 347 463 q 248 600 297 600 q 172 532 199 600 q 144 327 144 463 m 43 327 q 59 475 43 410 q 102 583 75 539 q 167 650 130 627 q 248 673 204 673 q 326 650 289 673 q 389 583 362 627 q 432 475 416 539 q 448 327 448 410 q 432 179 448 243 q 389 71 416 115 q 326 3 362 26 q 248 -20 289 -20 q 167 3 204 -20 q 102 71 130 26 q 59 179 75 115 q 43 327 43 243 m 294 812 q 300 839 294 827 q 314 861 305 852 q 336 876 323 871 q 362 882 348 882 q 389 876 376 882 q 411 861 401 871 q 426 839 420 852 q 431 812 431 827 q 426 786 431 798 q 411 765 420 774 q 389 750 401 755 q 362 745 376 745 q 314 764 334 745 q 294 812 294 784 m 60 812 q 65 839 60 827 q 80 861 71 852 q 101 876 89 871 q 127 882 113 882 q 154 876 142 882 q 176 861 167 871 q 191 839 186 852 q 197 812 197 827 q 191 786 197 798 q 176 765 186 774 q 154 750 167 755 q 127 745 142 745 q 79 764 99 745 q 60 812 60 784 z "},"":{"ha":436,"x_min":37,"x_max":400,"o":"m 150 126 q 155 153 150 140 q 170 175 161 165 q 191 190 179 184 q 218 195 203 195 q 244 190 232 195 q 267 175 257 184 q 281 153 276 165 q 287 126 287 140 q 281 100 287 112 q 267 78 276 87 q 244 64 257 69 q 218 58 232 58 q 170 78 189 58 q 150 126 150 98 m 150 524 q 155 550 150 538 q 170 572 161 563 q 191 587 179 582 q 218 593 203 593 q 244 587 232 593 q 267 572 257 582 q 281 550 276 563 q 287 524 287 538 q 281 497 287 509 q 267 476 276 485 q 244 461 257 467 q 218 456 232 456 q 170 475 189 456 q 150 524 150 495 m 400 374 l 400 277 q 333 287 375 283 q 221 290 291 290 q 104 289 148 290 q 37 283 60 288 l 37 374 q 106 365 62 369 q 222 361 151 361 q 330 363 288 361 q 400 374 373 365 z "},"":{"ha":505,"x_min":19,"x_max":484,"o":"m 50 327 q 65 475 50 410 q 109 583 81 539 q 174 650 136 627 q 254 673 211 673 q 334 648 297 673 q 399 576 372 624 l 448 648 l 484 621 l 422 530 q 446 439 437 489 q 455 327 455 389 q 439 179 455 243 q 396 71 423 115 q 332 3 369 26 q 254 -20 296 -20 q 174 3 211 -20 q 109 71 137 26 l 55 -8 l 19 18 l 85 116 q 59 210 68 157 q 50 327 50 262 m 151 327 q 152 270 151 296 q 157 220 153 244 l 340 489 q 254 600 317 600 q 178 532 205 600 q 151 327 151 463 m 353 327 q 349 423 353 379 l 168 157 q 254 52 193 52 q 329 121 304 52 q 353 327 353 191 z "},"":{"ha":574,"x_min":-10,"x_max":575,"o":"m 478 320 q 479 179 478 234 q 490 93 481 125 q 518 50 498 62 q 575 38 538 38 l 575 35 l 391 -20 q 397 23 397 -1 q 398 73 398 47 q 358 26 380 44 q 315 -2 337 8 q 270 -16 292 -12 q 230 -20 248 -20 q 124 56 162 -20 q 85 279 85 131 q 84 430 85 371 q 75 524 83 490 q 46 571 66 557 q -10 584 27 584 l -10 587 l 208 669 q 198 650 202 660 q 192 625 195 640 q 188 589 189 610 q 185 539 186 569 q 184 469 184 509 q 184 376 184 429 q 185 244 184 303 q 194 142 187 184 q 216 76 201 100 q 258 53 231 53 q 304 66 282 53 q 344 108 327 80 q 371 179 361 136 q 381 279 381 221 q 380 430 381 371 q 370 524 379 490 q 342 571 361 557 q 286 584 323 584 l 286 587 l 503 669 q 494 647 498 659 q 487 618 490 635 q 483 576 484 601 q 480 516 481 552 q 478 433 479 481 q 478 320 478 385 m 361 707 l 305 694 q 277 790 294 740 q 245 881 260 840 q 207 975 227 929 l 345 975 q 350 893 347 937 q 355 808 353 856 q 361 707 358 760 z "},"":{"ha":574,"x_min":-10,"x_max":575,"o":"m 478 320 q 479 179 478 234 q 490 93 481 125 q 518 50 498 62 q 575 38 538 38 l 575 35 l 391 -20 q 397 23 397 -1 q 398 73 398 47 q 358 26 380 44 q 315 -2 337 8 q 270 -16 292 -12 q 230 -20 248 -20 q 124 56 162 -20 q 85 279 85 131 q 84 430 85 371 q 75 524 83 490 q 46 571 66 557 q -10 584 27 584 l -10 587 l 208 669 q 198 650 202 660 q 192 625 195 640 q 188 589 189 610 q 185 539 186 569 q 184 469 184 509 q 184 376 184 429 q 185 244 184 303 q 194 142 187 184 q 216 76 201 100 q 258 53 231 53 q 304 66 282 53 q 344 108 327 80 q 371 179 361 136 q 381 279 381 221 q 380 430 381 371 q 370 524 379 490 q 342 571 361 557 q 286 584 323 584 l 286 587 l 503 669 q 494 647 498 659 q 487 618 490 635 q 483 576 484 601 q 480 516 481 552 q 478 433 479 481 q 478 320 478 385 m 207 707 q 213 808 210 760 q 218 893 216 856 q 224 975 221 937 l 361 975 q 323 881 342 929 q 307 837 315 861 q 291 790 299 814 q 276 741 283 766 q 263 694 269 717 l 207 707 z "},"":{"ha":574,"x_min":-10,"x_max":575,"o":"m 478 320 q 479 179 478 234 q 490 93 481 125 q 518 50 498 62 q 575 38 538 38 l 575 35 l 391 -20 q 397 23 397 -1 q 398 73 398 47 q 358 26 380 44 q 315 -2 337 8 q 270 -16 292 -12 q 230 -20 248 -20 q 124 56 162 -20 q 85 279 85 131 q 84 430 85 371 q 75 524 83 490 q 46 571 66 557 q -10 584 27 584 l -10 587 l 208 669 q 198 650 202 660 q 192 625 195 640 q 188 589 189 610 q 185 539 186 569 q 184 469 184 509 q 184 376 184 429 q 185 244 184 303 q 194 142 187 184 q 216 76 201 100 q 258 53 231 53 q 304 66 282 53 q 344 108 327 80 q 371 179 361 136 q 381 279 381 221 q 380 430 381 371 q 370 524 379 490 q 342 571 361 557 q 286 584 323 584 l 286 587 l 503 669 q 494 647 498 659 q 487 618 490 635 q 483 576 484 601 q 480 516 481 552 q 478 433 479 481 q 478 320 478 385 m 329 951 l 431 738 l 329 738 l 284 906 l 239 738 l 138 738 l 239 951 l 329 951 z "},"":{"ha":574,"x_min":-10,"x_max":575,"o":"m 478 320 q 479 179 478 234 q 490 93 481 125 q 518 50 498 62 q 575 38 538 38 l 575 35 l 391 -20 q 397 23 397 -1 q 398 73 398 47 q 358 26 380 44 q 315 -2 337 8 q 270 -16 292 -12 q 230 -20 248 -20 q 124 56 162 -20 q 85 279 85 131 q 84 430 85 371 q 75 524 83 490 q 46 571 66 557 q -10 584 27 584 l -10 587 l 208 669 q 198 650 202 660 q 192 625 195 640 q 188 589 189 610 q 185 539 186 569 q 184 469 184 509 q 184 376 184 429 q 185 244 184 303 q 194 142 187 184 q 216 76 201 100 q 258 53 231 53 q 304 66 282 53 q 344 108 327 80 q 371 179 361 136 q 381 279 381 221 q 380 430 381 371 q 370 524 379 490 q 342 571 361 557 q 286 584 323 584 l 286 587 l 503 669 q 494 647 498 659 q 487 618 490 635 q 483 576 484 601 q 480 516 481 552 q 478 433 479 481 q 478 320 478 385 m 333 812 q 338 839 333 827 q 353 861 344 852 q 374 876 362 871 q 401 882 387 882 q 428 876 415 882 q 450 861 440 871 q 465 839 459 852 q 470 812 470 827 q 465 786 470 798 q 450 765 459 774 q 428 750 440 755 q 401 745 415 745 q 353 764 372 745 q 333 812 333 784 m 98 812 q 104 839 98 827 q 118 861 109 852 q 140 876 127 871 q 166 882 152 882 q 193 876 180 882 q 215 861 205 871 q 230 839 224 852 q 235 812 235 827 q 230 786 235 798 q 215 765 224 774 q 193 750 205 755 q 166 745 180 745 q 118 764 138 745 q 98 812 98 784 z "},"":{"ha":566,"x_min":11,"x_max":552,"o":"m 374 291 q 372 435 374 363 q 368 579 371 507 q 352 623 366 605 q 311 650 339 641 l 311 653 l 552 653 l 552 650 q 502 622 517 642 q 485 576 487 602 q 479 435 481 501 q 477 307 477 370 q 477 214 477 252 q 477 143 477 176 q 477 77 477 111 q 477 1 477 44 q 462 -155 477 -93 q 421 -256 447 -218 q 360 -310 395 -294 q 286 -326 326 -326 q 224 -316 257 -326 q 163 -284 191 -306 q 116 -227 135 -262 q 98 -141 98 -191 q 99 -122 98 -132 q 101 -102 100 -113 l 270 -68 l 271 -71 q 213 -117 231 -91 q 194 -170 194 -142 q 198 -197 194 -183 q 213 -222 203 -211 q 238 -241 222 -234 q 276 -249 254 -249 q 300 -247 288 -249 q 323 -237 312 -245 q 342 -211 334 -229 q 358 -164 351 -194 q 368 -87 364 -134 q 372 24 372 -41 q 277 -12 323 -12 q 197 4 233 -12 q 134 51 160 20 q 93 125 107 81 q 78 226 78 169 q 78 299 78 269 q 78 356 78 330 q 78 404 79 381 q 78 451 78 426 q 76 507 77 476 q 74 579 75 537 q 57 623 72 605 q 11 650 42 641 l 11 653 l 243 653 l 243 650 q 198 622 212 642 q 182 576 184 602 q 180 481 181 528 q 180 393 180 435 q 180 315 180 351 q 180 253 180 279 q 208 104 180 155 q 294 54 237 54 q 330 60 310 54 q 372 82 350 66 l 372 92 l 374 291 m 204 707 q 210 808 208 760 q 216 893 213 856 q 221 975 218 937 l 359 975 q 321 881 339 929 q 304 837 313 861 q 288 790 296 814 q 273 741 280 766 q 260 694 266 717 l 204 707 z "},"":{"ha":532,"x_min":-22,"x_max":488,"o":"m 77 453 q 76 609 77 545 q 73 716 76 673 q 65 785 71 760 q 48 823 59 810 q 20 840 37 836 q -22 843 3 843 l -22 846 l 176 901 q 172 845 174 879 q 170 771 171 811 q 168 686 169 730 q 168 600 168 642 q 180 620 172 608 q 203 643 189 632 q 238 663 218 654 q 284 672 258 671 q 373 646 335 673 q 437 571 411 619 q 475 458 463 524 q 488 315 488 392 q 473 178 488 238 q 429 75 457 117 q 362 11 401 33 q 276 -11 323 -11 q 248 -8 263 -11 q 217 2 233 -5 q 189 21 202 9 q 167 47 176 32 q 168 -61 167 -16 q 177 -136 168 -106 q 205 -180 185 -165 q 264 -194 225 -194 l 264 -197 l 66 -252 q 71 -186 69 -227 q 73 -96 72 -144 q 74 1 74 -48 q 75 92 75 51 l 75 239 q 76 346 76 292 q 77 453 77 400 m 273 610 q 236 601 254 610 q 204 573 218 591 q 181 526 191 554 q 171 461 172 498 q 168 397 169 427 q 166 338 167 367 q 166 281 166 309 q 165 222 165 252 q 176 127 165 161 q 202 77 187 93 q 233 58 217 61 q 258 54 249 54 q 387 315 387 54 q 378 442 387 387 q 355 534 370 497 q 319 591 340 572 q 273 610 298 610 z "},"":{"ha":566,"x_min":11,"x_max":552,"o":"m 374 291 q 372 435 374 363 q 368 579 371 507 q 352 623 366 605 q 311 650 339 641 l 311 653 l 552 653 l 552 650 q 502 622 517 642 q 485 576 487 602 q 479 435 481 501 q 477 307 477 370 q 477 214 477 252 q 477 143 477 176 q 477 77 477 111 q 477 1 477 44 q 462 -155 477 -93 q 421 -256 447 -218 q 360 -310 395 -294 q 286 -326 326 -326 q 224 -316 257 -326 q 163 -284 191 -306 q 116 -227 135 -262 q 98 -141 98 -191 q 99 -122 98 -132 q 101 -102 100 -113 l 270 -68 l 271 -71 q 213 -117 231 -91 q 194 -170 194 -142 q 198 -197 194 -183 q 213 -222 203 -211 q 238 -241 222 -234 q 276 -249 254 -249 q 300 -247 288 -249 q 323 -237 312 -245 q 342 -211 334 -229 q 358 -164 351 -194 q 368 -87 364 -134 q 372 24 372 -41 q 277 -12 323 -12 q 197 4 233 -12 q 134 51 160 20 q 93 125 107 81 q 78 226 78 169 q 78 299 78 269 q 78 356 78 330 q 78 404 79 381 q 78 451 78 426 q 76 507 77 476 q 74 579 75 537 q 57 623 72 605 q 11 650 42 641 l 11 653 l 243 653 l 243 650 q 198 622 212 642 q 182 576 184 602 q 180 481 181 528 q 180 393 180 435 q 180 315 180 351 q 180 253 180 279 q 208 104 180 155 q 294 54 237 54 q 330 60 310 54 q 372 82 350 66 l 372 92 l 374 291 m 330 812 q 336 839 330 827 q 350 861 341 852 q 372 876 359 871 q 398 882 384 882 q 425 876 412 882 q 447 861 437 871 q 462 839 456 852 q 467 812 467 827 q 462 786 467 798 q 447 765 456 774 q 425 750 437 755 q 398 745 412 745 q 350 764 370 745 q 330 812 330 784 m 96 812 q 101 839 96 827 q 116 861 106 852 q 137 876 125 871 q 163 882 149 882 q 190 876 178 882 q 212 861 203 871 q 227 839 222 852 q 233 812 233 827 q 227 786 233 798 q 212 765 222 774 q 190 750 203 755 q 163 745 178 745 q 115 764 135 745 q 96 812 96 784 z "},"":{"ha":631,"x_min":47,"x_max":609,"o":"m 419 618 q 443 653 435 633 q 450 693 450 673 q 441 739 450 716 q 417 779 433 761 q 380 808 402 797 q 334 819 359 819 q 279 803 304 819 q 234 761 254 788 q 199 697 214 734 q 174 618 184 661 q 158 528 163 575 q 153 433 153 480 q 163 296 153 362 q 191 177 172 229 q 239 93 210 125 q 307 62 268 62 q 385 78 351 62 q 441 120 418 94 q 445 274 445 208 q 439 387 444 340 q 418 441 435 419 q 371 474 402 464 l 371 477 l 609 477 l 609 474 q 539 376 539 452 q 538 313 539 349 q 536 239 537 277 q 536 165 536 201 q 539 101 536 130 q 558 40 543 64 q 609 3 574 15 l 609 0 l 473 0 q 446 31 453 9 q 287 -12 373 -12 q 192 19 236 -12 q 116 107 148 50 q 66 250 84 165 q 47 440 47 334 q 70 633 47 549 q 132 775 92 718 q 225 863 172 833 q 341 893 279 893 q 416 878 381 893 q 478 838 452 862 q 520 785 505 814 q 536 730 536 756 q 509 673 536 695 l 421 614 l 419 618 m 478 1159 q 463 1098 477 1124 q 428 1055 450 1072 q 380 1028 407 1037 q 325 1019 353 1019 q 270 1028 297 1019 q 221 1055 243 1037 q 186 1098 200 1072 q 172 1159 173 1124 l 231 1159 q 256 1118 233 1136 q 325 1097 279 1099 q 365 1103 348 1097 q 394 1117 382 1108 q 411 1136 406 1125 q 418 1160 417 1147 l 478 1159 z "},"":{"ha":536,"x_min":42,"x_max":522,"o":"m 441 1 q 426 -155 441 -93 q 384 -256 410 -218 q 320 -310 357 -294 q 243 -326 284 -326 q 190 -316 218 -326 q 138 -284 162 -306 q 98 -227 114 -262 q 82 -141 82 -191 q 83 -122 82 -132 q 85 -102 84 -113 l 241 -68 l 241 -71 q 194 -117 209 -91 q 178 -170 178 -142 q 182 -197 178 -183 q 193 -222 185 -211 q 212 -241 200 -234 q 240 -249 223 -249 q 264 -247 252 -249 q 287 -237 276 -245 q 307 -211 298 -229 q 322 -164 315 -194 q 332 -87 328 -134 q 336 24 336 -41 q 241 -12 287 -12 q 161 11 197 -12 q 98 75 124 33 q 57 177 71 117 q 42 314 42 237 q 58 457 42 391 q 105 570 73 522 q 183 645 136 618 q 294 671 231 671 q 342 667 313 671 q 402 661 372 663 l 522 661 l 522 658 q 466 615 484 645 q 448 544 448 585 q 448 462 448 508 q 446 365 447 416 q 445 262 446 314 q 443 161 444 210 q 441 72 442 113 q 441 1 441 30 m 337 238 q 335 420 338 326 q 329 602 333 514 q 312 607 321 605 q 298 610 304 610 q 235 590 264 610 q 186 534 207 571 q 155 441 166 496 q 144 314 144 386 q 258 54 144 54 q 294 60 274 54 q 336 82 314 66 l 336 92 l 337 238 m 432 867 q 417 807 431 833 q 382 763 404 781 q 334 736 361 745 q 279 727 307 727 q 224 736 251 727 q 175 763 197 745 q 140 807 154 781 q 125 867 127 833 l 185 867 q 210 826 187 844 q 279 805 233 808 q 319 811 302 806 q 348 825 336 817 q 365 845 359 833 q 372 868 371 856 l 432 867 z "},"":{"ha":310,"x_min":33,"x_max":277,"o":"m 277 897 q 208 798 208 874 q 204 679 205 739 q 203 625 203 653 q 202 570 203 597 q 202 515 202 542 q 201 464 201 488 q 202 281 201 372 q 208 101 202 191 q 227 40 210 64 q 277 3 243 15 l 277 0 l 33 0 l 33 3 q 82 41 67 15 q 100 104 97 68 q 107 307 104 213 q 111 489 111 400 q 110 646 111 568 q 100 810 109 724 q 80 864 97 842 q 33 897 64 887 l 33 900 l 277 900 l 277 897 m 86 1104 q 92 1131 86 1118 q 106 1153 97 1143 q 127 1168 115 1162 q 154 1173 140 1173 q 181 1168 168 1173 q 203 1153 193 1162 q 218 1131 212 1143 q 223 1104 223 1118 q 218 1078 223 1090 q 203 1056 212 1065 q 181 1042 193 1047 q 154 1036 168 1036 q 106 1056 125 1036 q 86 1104 86 1076 z "},"":{"ha":294,"x_min":12,"x_max":277,"o":"m 110 351 q 110 458 110 414 q 106 531 109 502 q 98 578 104 561 q 81 603 92 595 q 53 614 70 612 q 12 616 36 616 l 12 619 l 209 673 q 201 510 201 600 q 201 326 201 421 q 201 262 201 288 q 201 213 201 236 q 203 164 201 190 q 207 101 204 139 q 226 40 210 64 q 277 3 242 15 l 277 0 l 32 0 l 32 3 q 81 41 66 15 q 99 104 96 68 q 102 158 100 135 q 105 201 104 182 q 107 236 106 220 q 109 269 108 252 q 110 306 109 286 q 110 351 110 325 z "},"":{"ha":509,"x_min":26,"x_max":512,"o":"m 349 79 q 342 129 347 100 q 333 188 338 157 q 324 249 328 218 q 317 307 319 280 q 333 435 309 380 q 417 522 357 490 l 512 389 l 510 386 q 484 392 496 391 q 462 393 472 393 q 419 370 434 391 q 404 311 404 349 q 410 235 405 275 q 421 156 415 196 q 432 76 427 115 q 437 0 437 37 l 26 0 l 26 3 q 81 46 65 16 q 100 117 98 77 q 109 313 107 222 q 111 489 111 404 l 111 520 q 64 517 83 519 q 34 507 45 514 l 34 625 q 65 616 46 620 q 110 608 83 612 q 106 701 109 654 q 101 796 104 747 q 78 859 96 833 q 26 897 61 885 l 26 900 l 285 900 l 285 897 q 229 856 246 884 q 208 785 211 827 q 205 704 206 749 q 203 606 203 658 q 270 609 242 606 q 315 625 297 612 l 315 501 q 272 514 298 509 q 202 520 245 519 l 202 464 q 210 66 202 262 q 238 68 221 66 q 273 71 254 69 q 311 75 292 73 q 349 79 331 77 z "},"":{"ha":340,"x_min":25,"x_max":311,"o":"m 311 479 q 273 490 296 486 q 214 497 250 495 l 214 464 q 215 281 214 372 q 220 101 215 191 q 239 40 223 64 q 290 3 256 15 l 290 0 l 45 0 l 45 3 q 95 41 80 15 q 113 104 110 68 q 120 307 117 213 q 123 489 123 400 l 123 498 q 65 495 87 498 q 29 485 43 492 l 29 602 q 66 592 43 597 q 123 585 89 587 q 122 692 123 648 q 117 767 121 737 q 107 815 114 798 q 90 842 101 833 q 63 853 79 851 q 25 856 47 856 l 25 859 l 222 913 q 216 757 217 840 q 214 583 214 674 q 271 588 247 584 q 311 603 294 591 l 311 479 z "},"":{"ha":774,"x_min":47,"x_max":745,"o":"m 709 756 q 702 798 709 780 q 674 826 694 817 q 613 844 646 840 q 543 850 581 848 q 536 683 538 766 q 534 519 534 601 q 577 519 556 519 q 616 521 597 519 q 670 542 650 524 q 694 584 689 559 l 696 584 l 696 397 l 694 397 q 669 443 688 425 q 614 464 650 460 q 577 466 597 466 q 534 467 557 466 l 534 464 q 536 263 534 363 q 542 65 538 164 q 571 69 554 67 q 608 73 589 71 q 646 81 627 76 q 680 93 665 85 q 704 113 695 101 q 713 144 713 125 l 716 144 q 726 84 722 111 q 734 39 731 58 q 741 0 738 17 l 320 0 q 211 30 261 0 q 125 116 161 60 q 67 255 88 173 q 47 440 47 336 q 68 636 47 550 q 126 780 89 722 q 213 869 163 838 q 320 899 262 899 q 385 898 348 899 q 474 896 422 897 q 592 896 525 895 q 745 900 659 896 q 737 866 742 886 q 727 821 733 848 q 712 755 721 794 l 709 756 m 313 80 q 361 81 340 80 q 397 83 382 81 q 426 86 414 84 l 426 816 q 397 818 414 817 q 361 819 382 819 q 313 820 340 820 q 243 787 273 820 q 193 699 214 753 q 163 575 173 645 q 153 433 153 506 q 162 301 153 365 q 192 189 172 238 q 242 110 212 140 q 313 80 272 80 z "},"":{"ha":780,"x_min":43,"x_max":743,"o":"m 595 231 l 743 218 q 726 112 743 157 q 682 38 709 68 q 623 -5 655 9 q 559 -20 590 -20 q 469 7 510 -20 q 399 87 427 34 q 332 7 370 34 q 248 -20 293 -20 q 167 3 204 -20 q 102 71 130 26 q 59 179 75 115 q 43 327 43 243 q 59 475 43 410 q 102 583 75 539 q 167 650 130 627 q 248 673 204 673 q 331 646 292 673 q 398 567 370 619 q 469 646 427 619 q 559 673 510 673 q 628 653 596 673 q 683 594 659 633 q 721 497 707 555 q 739 364 736 439 l 452 264 q 492 102 461 153 q 569 52 522 52 q 607 60 591 52 q 632 82 622 68 q 646 114 642 96 q 650 149 650 131 q 636 192 650 171 q 594 228 623 213 l 595 231 m 144 327 q 172 121 144 191 q 248 52 199 52 q 322 121 297 52 q 347 327 347 191 q 322 532 347 463 q 248 600 297 600 q 172 532 199 600 q 144 327 144 463 m 449 324 q 498 343 469 332 q 571 375 527 355 q 614 398 596 387 q 647 418 633 410 q 618 557 640 512 q 559 602 596 602 q 478 532 507 602 q 449 327 449 463 l 449 324 z "},"":{"ha":441,"x_min":22,"x_max":420,"o":"m 192 60 q 229 68 212 60 q 258 91 245 77 q 277 123 270 105 q 283 159 283 140 q 266 254 283 209 q 222 341 248 298 q 164 425 195 383 q 107 511 134 467 q 63 602 81 555 q 45 704 45 650 q 60 778 45 743 q 102 840 75 813 q 168 883 129 867 q 256 899 207 899 q 337 877 295 899 q 420 814 379 855 l 325 659 l 322 661 q 329 713 329 688 q 321 762 329 741 q 301 798 313 783 q 275 819 290 812 q 248 827 261 827 q 208 819 226 827 q 176 798 189 811 q 155 766 163 785 q 148 728 148 748 q 166 641 148 686 q 212 551 184 597 q 271 459 239 506 q 331 366 303 412 q 376 272 358 319 q 395 180 395 226 q 381 106 395 141 q 340 45 367 71 q 275 3 313 18 q 186 -12 236 -12 q 106 10 148 -12 q 22 73 64 32 l 118 208 l 121 206 q 113 182 115 194 q 111 159 111 170 q 118 119 111 138 q 137 88 125 101 q 162 67 148 75 q 192 60 177 60 m 165 -37 l 161 2 l 218 2 l 220 -33 q 273 -42 249 -35 q 315 -61 298 -49 q 342 -89 332 -73 q 352 -125 352 -105 q 340 -180 352 -156 q 308 -220 328 -203 q 263 -244 288 -236 q 213 -252 239 -252 q 173 -247 193 -252 q 138 -232 154 -242 q 109 -205 121 -221 q 90 -169 96 -190 l 174 -127 l 174 -128 q 169 -157 169 -146 q 178 -180 169 -172 q 211 -189 187 -189 q 230 -186 220 -189 q 247 -175 239 -182 q 260 -155 255 -168 q 264 -125 264 -143 q 246 -87 264 -100 q 194 -75 227 -75 q 187 -75 191 -75 q 180 -76 183 -75 q 171 -77 176 -77 l 165 -37 z "},"":{"ha":357,"x_min":29,"x_max":332,"o":"m 163 52 q 186 58 176 52 q 205 75 197 64 q 217 97 213 85 q 222 123 222 110 q 208 177 222 148 q 175 237 195 205 q 131 302 155 268 q 87 372 107 336 q 54 447 67 408 q 40 525 40 485 q 54 584 40 557 q 91 631 68 611 q 143 662 113 650 q 203 673 172 673 q 272 658 238 673 q 332 609 305 643 l 259 501 l 257 503 q 261 526 261 513 q 257 553 261 539 q 245 577 253 566 q 227 595 237 588 q 203 602 216 602 q 176 596 189 602 q 153 582 163 591 q 137 560 143 573 q 131 531 131 547 q 145 476 131 506 q 180 412 159 446 q 225 342 201 378 q 270 269 249 306 q 305 196 291 232 q 319 125 319 159 q 306 66 319 93 q 273 20 294 39 q 224 -9 252 1 q 168 -20 197 -20 q 92 0 130 -20 q 29 66 55 20 l 102 153 l 104 151 q 98 127 98 141 q 103 101 98 114 q 116 77 108 87 q 137 59 125 66 q 163 52 149 52 m 126 -37 l 121 2 l 178 2 l 181 -33 q 234 -42 210 -35 q 276 -61 258 -49 q 303 -89 293 -73 q 313 -125 313 -105 q 300 -180 313 -156 q 269 -220 288 -203 q 224 -244 249 -236 q 174 -252 199 -252 q 134 -247 153 -252 q 98 -232 115 -242 q 70 -205 82 -221 q 51 -169 57 -190 l 134 -127 l 135 -128 q 130 -157 130 -146 q 139 -180 130 -172 q 172 -189 148 -189 q 191 -186 181 -189 q 208 -175 200 -182 q 220 -155 216 -168 q 225 -125 225 -143 q 207 -87 225 -100 q 155 -75 188 -75 q 148 -75 152 -75 q 140 -76 144 -75 q 132 -77 136 -77 l 126 -37 z "},"":{"ha":441,"x_min":22,"x_max":420,"o":"m 192 60 q 229 68 212 60 q 258 91 245 77 q 277 123 270 105 q 283 159 283 140 q 266 254 283 209 q 222 341 248 298 q 164 425 195 383 q 107 511 134 467 q 63 602 81 555 q 45 704 45 650 q 60 778 45 743 q 102 840 75 813 q 168 883 129 867 q 256 899 207 899 q 337 877 295 899 q 420 814 379 855 l 325 659 l 322 661 q 329 713 329 688 q 321 762 329 741 q 301 798 313 783 q 275 819 290 812 q 248 827 261 827 q 208 819 226 827 q 176 798 189 811 q 155 766 163 785 q 148 728 148 748 q 166 641 148 686 q 212 551 184 597 q 271 459 239 506 q 331 366 303 412 q 376 272 358 319 q 395 180 395 226 q 381 106 395 141 q 340 45 367 71 q 275 3 313 18 q 186 -12 236 -12 q 106 10 148 -12 q 22 73 64 32 l 118 208 l 121 206 q 113 182 115 194 q 111 159 111 170 q 118 119 111 138 q 137 88 125 101 q 162 67 148 75 q 192 60 177 60 m 176 985 l 75 1198 l 176 1198 l 221 1029 l 266 1198 l 368 1198 l 266 985 l 176 985 z "},"":{"ha":356,"x_min":28,"x_max":330,"o":"m 162 52 q 185 58 174 52 q 203 75 195 64 q 216 97 212 85 q 220 123 220 110 q 207 177 220 148 q 173 237 193 205 q 130 302 153 268 q 86 372 106 336 q 52 447 66 408 q 39 525 39 485 q 53 584 39 557 q 89 631 66 611 q 141 662 112 650 q 202 673 171 673 q 270 658 237 673 q 330 609 304 643 l 258 501 l 256 503 q 260 526 260 513 q 256 553 260 539 q 244 577 252 566 q 225 595 236 588 q 202 602 215 602 q 175 596 188 602 q 152 582 161 591 q 136 560 142 573 q 130 531 130 547 q 143 476 130 506 q 178 412 157 446 q 223 342 199 378 q 269 269 248 306 q 303 196 290 232 q 317 125 317 159 q 305 66 317 93 q 271 20 292 39 q 223 -9 250 1 q 167 -20 196 -20 q 91 0 128 -20 q 28 66 54 20 l 100 153 l 102 151 q 96 127 96 141 q 101 101 96 114 q 115 77 106 87 q 136 59 123 66 q 162 52 148 52 m 134 738 l 33 951 l 134 951 l 179 783 l 224 951 l 326 951 l 224 738 l 134 738 z "},"":{"ha":495,"x_min":-31,"x_max":526,"o":"m 123 3 q 174 49 155 11 q 194 147 193 87 l 196 224 q 179 321 189 274 q 158 413 170 368 q 135 504 147 459 q 112 594 123 549 q 84 691 99 641 q 54 796 69 741 q 25 858 43 831 q -31 897 6 885 l -31 900 l 213 900 l 214 897 q 169 860 181 885 q 161 799 156 836 q 179 700 168 747 q 202 605 191 652 q 226 510 214 558 q 248 411 238 463 q 269 510 257 463 q 293 605 281 558 q 316 700 305 652 q 334 799 327 747 q 326 860 338 836 q 281 897 314 885 l 282 900 l 526 900 l 526 897 q 470 858 489 885 q 441 796 452 831 q 411 691 426 741 q 383 594 396 641 q 361 510 372 551 q 338 426 349 468 q 318 340 328 383 q 302 250 309 296 l 300 151 q 301 103 300 125 q 309 63 302 81 q 328 30 315 45 q 366 3 341 14 l 366 0 l 123 0 l 123 3 m 296 1059 q 302 1086 296 1074 q 316 1108 307 1099 q 338 1123 326 1118 q 364 1128 350 1128 q 391 1123 378 1128 q 413 1108 404 1118 q 428 1086 422 1099 q 433 1059 433 1074 q 428 1033 433 1045 q 413 1011 422 1021 q 391 997 404 1002 q 364 991 378 991 q 316 1011 336 991 q 296 1059 296 1031 m 62 1059 q 67 1086 62 1074 q 82 1108 73 1099 q 103 1123 91 1118 q 130 1128 115 1128 q 156 1123 144 1128 q 178 1108 169 1118 q 193 1086 188 1099 q 199 1059 199 1074 q 193 1033 199 1045 q 178 1011 188 1021 q 156 997 169 1002 q 130 991 144 991 q 81 1011 101 991 q 62 1059 62 1031 z "},"":{"ha":460,"x_min":-9,"x_max":475,"o":"m 193 464 q 235 642 216 554 q 272 823 254 730 q 189 818 231 821 q 113 806 147 815 q 56 778 78 796 q 35 728 35 760 l 29 728 q 30 781 29 751 q 31 838 30 811 q 34 900 33 869 l 475 900 l 475 897 q 412 859 437 885 q 375 796 388 833 q 329 640 347 715 q 291 489 310 564 q 248 313 269 403 q 204 117 227 222 q 201 77 200 94 q 280 82 240 79 q 354 95 321 85 q 409 123 387 104 q 433 172 431 141 l 439 172 q 433 119 437 149 q 427 62 430 89 q 419 0 423 31 l -9 0 l -8 3 q 57 44 32 16 q 95 115 83 73 q 121 200 108 155 q 147 289 134 244 q 171 378 159 334 q 193 464 183 422 m 188 985 l 86 1198 l 188 1198 l 233 1029 l 277 1198 l 379 1198 l 277 985 l 188 985 z "},"":{"ha":435,"x_min":18,"x_max":424,"o":"m 170 350 q 210 501 193 441 q 234 586 227 561 q 167 582 201 585 q 105 571 133 579 q 59 547 77 563 q 42 504 41 531 l 37 503 q 37 550 37 524 q 39 599 37 576 q 41 653 39 626 l 424 653 l 424 649 q 358 608 382 635 q 319 543 334 580 q 295 462 304 506 q 275 372 286 418 q 243 243 260 308 q 210 102 227 178 q 207 85 208 94 q 207 68 206 76 q 274 72 240 68 q 335 83 307 75 q 381 107 363 92 q 401 150 399 123 l 407 151 q 402 104 405 130 q 397 55 399 78 q 390 0 394 28 l 18 0 l 18 3 q 74 39 52 14 q 108 100 96 65 q 140 225 124 160 q 170 350 155 290 m 175 738 l 73 951 l 175 951 l 220 783 l 264 951 l 366 951 l 264 738 l 175 738 z "},"":{"ha":347,"x_min":-26,"x_max":353,"o":"m 141 102 q 129 203 134 159 q 119 284 123 248 q 111 349 115 320 q 104 405 107 378 q 98 459 101 434 q 91 510 94 485 q 84 561 87 535 q 77 615 81 586 q 45 617 57 616 q 25 620 33 618 q 12 623 17 621 l 7 663 l 71 663 q 66 788 62 735 q 83 874 69 840 q 121 925 97 909 q 178 941 145 941 q 250 928 211 941 q 337 884 290 915 l 268 739 l 266 740 q 267 769 269 751 q 256 809 264 791 q 239 840 249 827 q 217 860 229 853 q 194 867 205 867 q 176 861 184 867 q 163 832 168 854 q 159 771 158 811 q 168 663 159 730 l 216 663 q 279 664 253 663 q 321 667 305 665 q 353 670 340 668 l 320 595 q 299 603 312 600 q 269 609 288 606 q 221 611 250 611 l 173 611 q 189 471 180 549 q 210 290 197 393 q 216 234 212 267 q 224 172 220 202 q 233 101 228 138 q 236 -17 241 33 q 214 -99 231 -67 q 172 -147 198 -132 q 113 -163 146 -163 q 50 -153 81 -163 q -26 -119 18 -143 l 42 26 l 44 25 q 43 -4 41 14 q 52 -35 45 -21 q 67 -60 58 -50 q 87 -76 77 -71 q 107 -82 98 -82 q 126 -76 117 -82 q 141 -51 136 -70 q 147 5 146 -31 q 141 102 148 41 z "},"":{"ha":524,"x_min":-54,"x_max":539,"o":"m 347 101 q 341 172 344 137 q 334 244 338 208 q 301 247 319 245 q 258 251 283 248 q 219 255 237 253 q 189 258 202 256 q 184 216 186 239 q 179 168 182 193 q 173 116 176 142 q 165 64 170 90 q 158 21 161 43 q 148 -21 154 -1 q 132 -58 142 -41 q 104 -88 121 -75 q 62 -108 87 -100 q 0 -115 37 -115 l -54 -27 l -52 -25 q -6 -37 -27 -37 q 38 -9 22 -37 q 64 68 55 18 q 81 164 73 109 q 96 277 90 219 q 109 391 103 336 q 119 489 114 447 q 135 646 127 568 q 146 810 142 724 q 138 860 149 838 q 103 892 127 882 l 93 897 l 92 900 l 428 900 l 427 897 l 416 892 q 381 860 392 882 q 374 810 371 838 q 386 646 378 724 q 404 489 394 568 q 425 307 414 400 q 454 104 436 213 q 483 41 463 68 q 538 3 502 15 l 539 0 l 295 0 l 294 3 q 339 40 327 15 q 347 101 351 64 m 259 303 q 297 303 279 303 q 328 304 314 304 l 314 464 q 310 499 313 477 q 305 550 308 522 q 299 610 302 578 q 294 673 296 642 q 279 833 286 747 l 246 833 q 231 678 238 751 q 224 615 227 647 q 218 555 221 583 q 213 503 215 526 q 209 464 210 479 q 201 377 204 416 q 194 303 198 338 l 259 303 m 224 999 l 168 985 q 139 1081 156 1031 q 107 1173 123 1131 q 69 1267 89 1221 l 207 1267 q 212 1185 210 1228 q 218 1099 215 1147 q 224 999 220 1051 m 412 999 l 356 985 q 328 1081 345 1031 q 296 1173 311 1131 q 258 1267 277 1221 l 395 1267 q 401 1185 398 1228 q 406 1099 404 1147 q 412 999 409 1051 z "},"":{"ha":463,"x_min":37,"x_max":444,"o":"m 168 456 l 53 527 q 80 604 62 575 q 120 648 98 633 q 166 668 142 663 q 215 673 191 673 q 341 612 299 673 q 382 434 382 552 q 381 327 382 372 q 381 250 381 282 q 381 198 381 218 q 380 164 380 177 q 380 142 380 151 q 380 127 380 134 q 382 92 380 111 q 391 55 385 73 q 410 24 397 38 q 444 3 422 10 l 444 0 l 338 0 q 315 26 323 9 q 302 62 307 42 q 290 40 298 54 q 267 13 281 26 q 232 -10 252 -1 q 186 -20 212 -20 q 119 -4 147 -20 q 73 38 91 12 q 45 99 54 64 q 37 170 37 133 q 51 263 37 216 q 93 346 66 309 q 157 406 119 383 q 240 429 194 429 q 284 425 263 429 q 279 513 284 479 q 265 568 275 548 q 241 594 256 587 q 208 602 227 602 q 180 596 191 602 q 162 581 169 591 q 152 559 155 572 q 149 532 149 547 q 154 494 149 513 q 170 458 160 474 l 168 456 m 197 52 q 240 72 223 52 q 266 119 256 91 q 280 180 276 148 q 284 238 284 212 l 284 368 q 245 374 264 374 q 197 358 218 374 q 161 317 176 342 q 140 257 147 291 q 132 188 132 223 q 136 136 132 161 q 149 93 140 112 q 169 63 157 75 q 197 52 181 52 m 219 707 l 163 694 q 135 790 151 740 q 102 881 118 840 q 64 975 84 929 l 202 975 q 208 893 205 937 q 213 808 210 856 q 219 707 216 760 m 408 707 l 351 694 q 323 790 340 740 q 291 881 307 840 q 253 975 273 929 l 391 975 q 396 893 393 937 q 401 808 399 856 q 408 707 404 760 z "},"":{"ha":524,"x_min":-54,"x_max":539,"o":"m 347 101 q 341 172 344 137 q 334 244 338 208 q 301 247 319 245 q 258 251 283 248 q 219 255 237 253 q 189 258 202 256 q 184 216 186 239 q 179 168 182 193 q 173 116 176 142 q 165 64 170 90 q 158 21 161 43 q 148 -21 154 -1 q 132 -58 142 -41 q 104 -88 121 -75 q 62 -108 87 -100 q 0 -115 37 -115 l -54 -27 l -52 -25 q -6 -37 -27 -37 q 38 -9 22 -37 q 64 68 55 18 q 81 164 73 109 q 96 277 90 219 q 109 391 103 336 q 119 489 114 447 q 135 646 127 568 q 146 810 142 724 q 138 860 149 838 q 103 892 127 882 l 93 897 l 92 900 l 428 900 l 427 897 l 416 892 q 381 860 392 882 q 374 810 371 838 q 386 646 378 724 q 404 489 394 568 q 425 307 414 400 q 454 104 436 213 q 483 41 463 68 q 538 3 502 15 l 539 0 l 295 0 l 294 3 q 339 40 327 15 q 347 101 351 64 m 259 303 q 297 303 279 303 q 328 304 314 304 l 314 464 q 310 499 313 477 q 305 550 308 522 q 299 610 302 578 q 294 673 296 642 q 279 833 286 747 l 246 833 q 231 678 238 751 q 224 615 227 647 q 218 555 221 583 q 213 503 215 526 q 209 464 210 479 q 201 377 204 416 q 194 303 198 338 l 259 303 m 334 1019 q 327 1042 333 1031 q 310 1062 321 1053 q 281 1076 298 1070 q 241 1082 264 1081 q 172 1061 195 1079 q 147 1019 149 1042 l 87 1019 q 102 1080 89 1054 q 137 1124 116 1106 q 186 1151 159 1141 q 241 1160 213 1160 q 296 1151 269 1160 q 344 1124 323 1141 q 379 1080 366 1106 q 394 1019 393 1054 l 334 1019 z "},"":{"ha":463,"x_min":37,"x_max":444,"o":"m 168 456 l 53 527 q 80 604 62 575 q 120 648 98 633 q 166 668 142 663 q 215 673 191 673 q 341 612 299 673 q 382 434 382 552 q 381 327 382 372 q 381 250 381 282 q 381 198 381 218 q 380 164 380 177 q 380 142 380 151 q 380 127 380 134 q 382 92 380 111 q 391 55 385 73 q 410 24 397 38 q 444 3 422 10 l 444 0 l 338 0 q 315 26 323 9 q 302 62 307 42 q 290 40 298 54 q 267 13 281 26 q 232 -10 252 -1 q 186 -20 212 -20 q 119 -4 147 -20 q 73 38 91 12 q 45 99 54 64 q 37 170 37 133 q 51 263 37 216 q 93 346 66 309 q 157 406 119 383 q 240 429 194 429 q 284 425 263 429 q 279 513 284 479 q 265 568 275 548 q 241 594 256 587 q 208 602 227 602 q 180 596 191 602 q 162 581 169 591 q 152 559 155 572 q 149 532 149 547 q 154 494 149 513 q 170 458 160 474 l 168 456 m 197 52 q 240 72 223 52 q 266 119 256 91 q 280 180 276 148 q 284 238 284 212 l 284 368 q 245 374 264 374 q 197 358 218 374 q 161 317 176 342 q 140 257 147 291 q 132 188 132 223 q 136 136 132 161 q 149 93 140 112 q 169 63 157 75 q 197 52 181 52 m 329 727 q 322 750 328 739 q 305 770 317 762 q 276 784 293 779 q 236 790 259 789 q 167 769 190 787 q 142 728 144 751 l 83 728 q 98 788 84 762 q 133 832 111 814 q 181 859 154 850 q 236 868 208 868 q 291 859 264 868 q 339 832 318 850 q 374 788 361 814 q 389 728 388 762 l 329 727 z "},"":{"ha":443,"x_min":28,"x_max":415,"o":"m 212 50 q 283 56 251 52 q 344 74 315 60 q 373 103 363 83 q 380 146 382 122 l 382 146 q 397 80 391 107 q 408 35 404 52 q 415 0 412 14 l 28 0 l 28 3 q 81 41 62 15 q 102 104 99 67 q 111 306 109 210 q 113 489 113 403 q 112 640 113 565 q 102 796 111 715 q 81 859 99 833 q 28 897 62 885 l 28 900 l 415 900 q 408 865 412 886 q 397 820 404 848 q 382 754 391 793 l 380 754 q 373 797 382 778 q 344 826 363 817 q 283 844 315 840 q 212 850 251 848 q 206 683 208 766 q 203 519 204 601 q 247 519 226 519 q 286 521 267 519 q 340 542 321 524 q 364 585 359 559 l 366 585 l 366 399 l 364 399 q 339 443 359 425 q 284 464 319 460 q 247 466 267 466 q 203 467 227 466 l 203 464 q 206 256 203 363 q 212 50 208 149 m 210 999 l 154 985 q 126 1081 142 1031 q 94 1173 109 1131 q 56 1267 75 1221 l 193 1267 q 199 1185 196 1228 q 204 1099 201 1147 q 210 999 207 1051 m 399 999 l 342 985 q 314 1081 331 1031 q 282 1173 298 1131 q 244 1267 264 1221 l 382 1267 q 387 1185 385 1228 q 393 1099 390 1147 q 399 999 395 1051 z "},"":{"ha":475,"x_min":43,"x_max":439,"o":"m 290 231 l 439 218 q 421 112 439 157 q 377 38 404 68 q 318 -5 351 9 q 254 -20 286 -20 q 171 3 210 -20 q 104 71 132 26 q 59 179 75 115 q 43 327 43 243 q 59 475 43 410 q 104 583 75 539 q 171 650 132 627 q 254 673 210 673 q 323 653 292 673 q 378 594 355 633 q 417 497 402 555 q 435 364 431 439 l 148 264 q 187 102 157 153 q 264 52 218 52 q 302 60 287 52 q 327 82 317 68 q 341 114 337 96 q 346 149 346 131 q 332 192 346 171 q 290 228 318 213 l 290 231 m 144 324 q 193 343 164 332 q 267 375 222 355 q 310 398 292 387 q 342 418 328 410 q 314 557 336 512 q 254 602 292 602 q 173 532 202 602 q 144 327 144 463 l 144 324 m 222 707 l 166 694 q 138 790 155 740 q 106 881 121 840 q 68 975 87 929 l 205 975 q 211 893 208 937 q 216 808 214 856 q 222 707 219 760 m 411 707 l 355 694 q 327 790 343 740 q 294 881 310 840 q 256 975 276 929 l 394 975 q 399 893 397 937 q 405 808 402 856 q 411 707 408 760 z "},"":{"ha":443,"x_min":28,"x_max":415,"o":"m 212 50 q 283 56 251 52 q 344 74 315 60 q 373 103 363 83 q 380 146 382 122 l 382 146 q 397 80 391 107 q 408 35 404 52 q 415 0 412 14 l 28 0 l 28 3 q 81 41 62 15 q 102 104 99 67 q 111 306 109 210 q 113 489 113 403 q 112 640 113 565 q 102 796 111 715 q 81 859 99 833 q 28 897 62 885 l 28 900 l 415 900 q 408 865 412 886 q 397 820 404 848 q 382 754 391 793 l 380 754 q 373 797 382 778 q 344 826 363 817 q 283 844 315 840 q 212 850 251 848 q 206 683 208 766 q 203 519 204 601 q 247 519 226 519 q 286 521 267 519 q 340 542 321 524 q 364 585 359 559 l 366 585 l 366 399 l 364 399 q 339 443 359 425 q 284 464 319 460 q 247 466 267 466 q 203 467 227 466 l 203 464 q 206 256 203 363 q 212 50 208 149 m 320 1019 q 314 1042 319 1031 q 296 1062 308 1053 q 267 1076 284 1070 q 227 1082 250 1081 q 158 1061 181 1079 q 134 1019 136 1042 l 74 1019 q 89 1080 75 1054 q 124 1124 102 1106 q 172 1151 145 1141 q 227 1160 199 1160 q 282 1151 255 1160 q 331 1124 309 1141 q 366 1080 352 1106 q 380 1019 379 1054 l 320 1019 z "},"":{"ha":475,"x_min":43,"x_max":439,"o":"m 290 231 l 439 218 q 421 112 439 157 q 377 38 404 68 q 318 -5 351 9 q 254 -20 286 -20 q 171 3 210 -20 q 104 71 132 26 q 59 179 75 115 q 43 327 43 243 q 59 475 43 410 q 104 583 75 539 q 171 650 132 627 q 254 673 210 673 q 323 653 292 673 q 378 594 355 633 q 417 497 402 555 q 435 364 431 439 l 148 264 q 187 102 157 153 q 264 52 218 52 q 302 60 287 52 q 327 82 317 68 q 341 114 337 96 q 346 149 346 131 q 332 192 346 171 q 290 228 318 213 l 290 231 m 144 324 q 193 343 164 332 q 267 375 222 355 q 310 398 292 387 q 342 418 328 410 q 314 557 336 512 q 254 602 292 602 q 173 532 202 602 q 144 327 144 463 l 144 324 m 332 727 q 326 750 332 739 q 308 770 320 762 q 279 784 296 779 q 239 790 262 789 q 171 769 193 787 q 146 728 148 751 l 86 728 q 101 788 87 762 q 136 832 115 814 q 184 859 157 850 q 239 868 212 868 q 294 859 267 868 q 343 832 321 850 q 378 788 364 814 q 393 728 391 762 l 332 727 z "},"":{"ha":311,"x_min":-16,"x_max":328,"o":"m 278 897 q 208 798 208 874 q 205 679 206 739 q 204 625 204 653 q 203 570 203 597 q 202 515 203 542 q 202 464 202 488 q 202 281 202 372 q 208 101 203 191 q 227 40 211 64 q 278 3 243 15 l 278 0 l 33 0 l 33 3 q 83 41 68 15 q 100 104 98 68 q 108 307 105 213 q 111 489 111 400 q 110 646 111 568 q 101 810 109 724 q 81 864 98 842 q 33 897 64 887 l 33 900 l 278 900 l 278 897 m 139 999 l 83 985 q 55 1081 71 1031 q 22 1173 38 1131 q -16 1267 4 1221 l 122 1267 q 127 1185 125 1228 q 133 1099 130 1147 q 139 999 136 1051 m 328 999 l 271 985 q 243 1081 260 1031 q 211 1173 227 1131 q 173 1267 193 1221 l 311 1267 q 316 1185 313 1228 q 321 1099 319 1147 q 328 999 324 1051 z "},"":{"ha":295,"x_min":-24,"x_max":319,"o":"m 111 351 q 110 458 111 414 q 107 531 110 502 q 99 578 104 561 q 82 603 93 595 q 54 614 71 612 q 12 616 37 616 l 12 619 l 210 673 q 202 510 202 600 q 201 326 201 421 q 201 262 201 288 q 202 213 201 236 q 203 164 202 190 q 208 101 205 139 q 227 40 210 64 q 277 3 243 15 l 277 0 l 33 0 l 33 3 q 82 41 67 15 q 100 104 97 68 q 103 158 101 135 q 105 201 104 182 q 107 236 106 220 q 109 269 109 252 q 110 306 110 286 q 111 351 111 325 m 130 707 l 74 694 q 46 790 62 740 q 14 881 29 840 q -24 975 -5 929 l 113 975 q 119 893 116 937 q 124 808 121 856 q 130 707 127 760 m 319 707 l 262 694 q 234 790 251 740 q 202 881 218 840 q 164 975 184 929 l 302 975 q 307 893 304 937 q 313 808 310 856 q 319 707 315 760 z "},"":{"ha":310,"x_min":2,"x_max":309,"o":"m 277 897 q 208 798 208 874 q 204 679 205 739 q 203 625 203 653 q 202 570 203 597 q 202 515 202 542 q 201 464 201 488 q 202 281 201 372 q 208 101 202 191 q 227 40 210 64 q 277 3 243 15 l 277 0 l 33 0 l 33 3 q 82 41 67 15 q 100 104 97 68 q 107 307 104 213 q 111 489 111 400 q 110 646 111 568 q 100 810 109 724 q 80 864 97 842 q 33 897 64 887 l 33 900 l 277 900 l 277 897 m 248 1019 q 242 1042 248 1031 q 224 1062 236 1053 q 195 1076 212 1070 q 155 1082 178 1081 q 86 1061 109 1079 q 62 1019 64 1042 l 2 1019 q 17 1080 3 1054 q 52 1124 31 1106 q 100 1151 73 1141 q 155 1160 127 1160 q 210 1151 183 1160 q 259 1124 237 1141 q 294 1080 280 1106 q 309 1019 307 1054 l 248 1019 z "},"":{"ha":294,"x_min":-6,"x_max":300,"o":"m 111 351 q 110 458 111 414 q 107 531 110 502 q 99 578 104 561 q 82 603 93 595 q 54 614 71 612 q 12 616 37 616 l 12 619 l 210 673 q 202 510 202 600 q 201 326 201 421 q 201 262 201 288 q 202 213 201 236 q 203 164 202 190 q 208 101 205 139 q 227 40 210 64 q 277 3 243 15 l 277 0 l 33 0 l 33 3 q 82 41 67 15 q 100 104 97 68 q 103 158 101 135 q 105 201 104 182 q 107 236 106 220 q 109 269 109 252 q 110 306 110 286 q 111 351 111 325 m 240 727 q 234 750 239 739 q 216 770 228 762 q 187 784 204 779 q 147 790 170 789 q 78 769 101 787 q 54 728 56 751 l -6 728 q 9 788 -5 762 q 44 832 22 814 q 92 859 65 850 q 147 868 119 868 q 202 859 175 868 q 251 832 229 850 q 286 788 272 814 q 300 728 299 762 l 240 727 z "},"":{"ha":634,"x_min":47,"x_max":588,"o":"m 588 440 q 566 251 588 334 q 507 109 544 167 q 421 19 469 50 q 320 -12 373 -12 q 211 19 261 -12 q 125 107 161 50 q 67 250 88 165 q 47 440 47 334 q 68 633 47 549 q 126 775 89 718 q 213 863 163 833 q 320 893 262 893 q 424 863 375 893 q 509 775 473 833 q 567 633 546 718 q 588 440 588 549 m 313 68 q 386 99 355 68 q 438 182 418 130 q 470 301 459 234 q 480 438 480 368 q 470 577 480 509 q 438 697 459 644 q 386 782 417 750 q 313 814 354 814 q 243 781 273 814 q 193 695 214 749 q 163 573 173 642 q 153 433 153 505 q 157 341 153 386 q 170 255 161 296 q 192 180 179 214 q 223 121 205 146 q 263 82 241 96 q 313 68 286 68 m 300 999 l 244 985 q 216 1081 233 1031 q 184 1173 199 1131 q 146 1267 165 1221 l 283 1267 q 289 1185 286 1228 q 294 1099 292 1147 q 300 999 297 1051 m 489 999 l 433 985 q 405 1081 421 1031 q 372 1173 388 1131 q 334 1267 354 1221 l 472 1267 q 477 1185 475 1228 q 483 1099 480 1147 q 489 999 486 1051 z "},"":{"ha":491,"x_min":43,"x_max":448,"o":"m 144 327 q 172 121 144 191 q 248 52 199 52 q 322 121 297 52 q 347 327 347 191 q 322 532 347 463 q 248 600 297 600 q 172 532 199 600 q 144 327 144 463 m 43 327 q 59 475 43 410 q 102 583 75 539 q 167 650 130 627 q 248 673 204 673 q 326 650 289 673 q 389 583 362 627 q 432 475 416 539 q 448 327 448 410 q 432 179 448 243 q 389 71 416 115 q 326 3 362 26 q 248 -20 289 -20 q 167 3 204 -20 q 102 71 130 26 q 59 179 75 115 q 43 327 43 243 m 229 707 l 172 694 q 144 790 161 740 q 112 881 127 840 q 74 975 94 929 l 212 975 q 217 893 214 937 q 222 808 220 856 q 229 707 225 760 m 417 707 l 361 694 q 333 790 349 740 q 300 881 316 840 q 262 975 282 929 l 400 975 q 406 893 403 937 q 411 808 408 856 q 417 707 414 760 z "},"":{"ha":634,"x_min":47,"x_max":588,"o":"m 588 440 q 566 251 588 334 q 507 109 544 167 q 421 19 469 50 q 320 -12 373 -12 q 211 19 261 -12 q 125 107 161 50 q 67 250 88 165 q 47 440 47 334 q 68 633 47 549 q 126 775 89 718 q 213 863 163 833 q 320 893 262 893 q 424 863 375 893 q 509 775 473 833 q 567 633 546 718 q 588 440 588 549 m 313 68 q 386 99 355 68 q 438 182 418 130 q 470 301 459 234 q 480 438 480 368 q 470 577 480 509 q 438 697 459 644 q 386 782 417 750 q 313 814 354 814 q 243 781 273 814 q 193 695 214 749 q 163 573 173 642 q 153 433 153 505 q 157 341 153 386 q 170 255 161 296 q 192 180 179 214 q 223 121 205 146 q 263 82 241 96 q 313 68 286 68 m 410 1019 q 404 1042 410 1031 q 386 1062 398 1053 q 357 1076 374 1070 q 317 1082 340 1081 q 249 1061 271 1079 q 224 1019 226 1042 l 164 1019 q 179 1080 165 1054 q 214 1124 193 1106 q 262 1151 235 1141 q 317 1160 290 1160 q 372 1151 345 1160 q 421 1124 399 1141 q 456 1080 442 1106 q 471 1019 469 1054 l 410 1019 z "},"":{"ha":491,"x_min":43,"x_max":448,"o":"m 144 327 q 172 121 144 191 q 248 52 199 52 q 322 121 297 52 q 347 327 347 191 q 322 532 347 463 q 248 600 297 600 q 172 532 199 600 q 144 327 144 463 m 43 327 q 59 475 43 410 q 102 583 75 539 q 167 650 130 627 q 248 673 204 673 q 326 650 289 673 q 389 583 362 627 q 432 475 416 539 q 448 327 448 410 q 432 179 448 243 q 389 71 416 115 q 326 3 362 26 q 248 -20 289 -20 q 167 3 204 -20 q 102 71 130 26 q 59 179 75 115 q 43 327 43 243 m 338 727 q 332 750 338 739 q 314 770 326 762 q 286 784 302 779 q 245 790 269 789 q 177 769 199 787 q 152 728 154 751 l 92 728 q 107 788 94 762 q 142 832 121 814 q 191 859 163 850 q 245 868 218 868 q 300 859 273 868 q 349 832 328 850 q 384 788 370 814 q 399 728 397 762 l 338 727 z "},"":{"ha":522,"x_min":33,"x_max":596,"o":"m 456 45 q 471 9 463 26 q 490 -22 479 -8 q 513 -43 500 -35 q 542 -52 526 -52 q 565 -47 553 -52 q 593 -32 578 -43 l 596 -34 l 547 -149 q 472 -136 504 -149 q 418 -99 441 -122 q 381 -45 396 -76 q 357 22 367 -14 l 255 399 q 245 396 253 397 q 230 394 238 395 q 213 392 221 393 q 203 391 205 391 q 204 320 203 357 q 205 246 204 283 q 206 172 205 208 q 208 101 207 135 q 227 40 210 64 q 277 3 243 15 l 277 0 l 33 0 l 33 3 q 82 41 67 15 q 100 104 97 68 q 107 307 104 213 q 111 489 111 400 q 110 646 111 568 q 100 810 109 724 q 80 864 97 842 q 33 897 64 887 l 33 900 l 273 900 q 352 887 315 900 q 415 848 389 873 q 458 784 442 822 q 473 696 473 746 q 437 528 473 596 q 340 429 400 460 q 392 241 366 335 q 456 45 418 146 m 201 525 q 201 498 201 511 q 201 469 201 485 q 324 526 286 469 q 361 696 361 583 q 337 794 361 760 q 262 827 312 827 q 235 827 250 827 q 208 825 219 827 l 208 798 q 204 700 205 749 q 202 611 203 658 q 201 525 201 564 m 277 999 l 220 985 q 192 1081 209 1031 q 160 1173 176 1131 q 122 1267 142 1221 l 260 1267 q 265 1185 262 1228 q 271 1099 268 1147 q 277 999 273 1051 m 465 999 l 409 985 q 381 1081 397 1031 q 349 1173 364 1131 q 311 1267 330 1221 l 448 1267 q 454 1185 451 1228 q 459 1099 456 1147 q 465 999 462 1051 z "},"":{"ha":413,"x_min":10,"x_max":415,"o":"m 187 581 q 240 648 207 624 q 310 673 273 673 q 365 657 338 673 q 415 610 392 642 l 342 491 l 340 492 q 345 522 345 503 q 342 549 345 534 q 333 575 339 563 q 319 594 328 587 q 297 602 310 602 q 263 589 281 602 q 232 553 246 576 q 208 497 218 530 q 199 423 199 465 q 199 248 199 334 q 205 74 199 161 q 254 3 208 20 l 254 0 l 34 0 l 34 3 q 84 31 68 11 q 101 77 99 51 q 106 203 104 144 q 109 319 109 262 q 107 463 109 406 q 97 553 106 519 q 67 601 87 587 q 10 615 47 615 l 10 618 l 194 673 q 188 630 189 654 q 187 581 187 606 m 192 707 l 136 694 q 107 790 124 740 q 75 881 91 840 q 37 975 57 929 l 175 975 q 180 893 178 937 q 186 808 183 856 q 192 707 189 760 m 380 707 l 324 694 q 296 790 313 740 q 264 881 279 840 q 226 975 245 929 l 363 975 q 369 893 366 937 q 374 808 372 856 q 380 707 377 760 z "},"":{"ha":522,"x_min":33,"x_max":596,"o":"m 456 45 q 471 9 463 26 q 490 -22 479 -8 q 513 -43 500 -35 q 542 -52 526 -52 q 565 -47 553 -52 q 593 -32 578 -43 l 596 -34 l 547 -149 q 472 -136 504 -149 q 418 -99 441 -122 q 381 -45 396 -76 q 357 22 367 -14 l 255 399 q 245 396 253 397 q 230 394 238 395 q 213 392 221 393 q 203 391 205 391 q 204 320 203 357 q 205 246 204 283 q 206 172 205 208 q 208 101 207 135 q 227 40 210 64 q 277 3 243 15 l 277 0 l 33 0 l 33 3 q 82 41 67 15 q 100 104 97 68 q 107 307 104 213 q 111 489 111 400 q 110 646 111 568 q 100 810 109 724 q 80 864 97 842 q 33 897 64 887 l 33 900 l 273 900 q 352 887 315 900 q 415 848 389 873 q 458 784 442 822 q 473 696 473 746 q 437 528 473 596 q 340 429 400 460 q 392 241 366 335 q 456 45 418 146 m 201 525 q 201 498 201 511 q 201 469 201 485 q 324 526 286 469 q 361 696 361 583 q 337 794 361 760 q 262 827 312 827 q 235 827 250 827 q 208 825 219 827 l 208 798 q 204 700 205 749 q 202 611 203 658 q 201 525 201 564 m 387 1019 q 380 1042 386 1031 q 362 1062 374 1053 q 334 1076 351 1070 q 294 1082 317 1081 q 225 1061 248 1079 q 200 1019 202 1042 l 140 1019 q 155 1080 142 1054 q 190 1124 169 1106 q 239 1151 212 1141 q 294 1160 266 1160 q 349 1151 321 1160 q 397 1124 376 1141 q 432 1080 418 1106 q 447 1019 446 1054 l 387 1019 z "},"":{"ha":413,"x_min":10,"x_max":415,"o":"m 187 581 q 240 648 207 624 q 310 673 273 673 q 365 657 338 673 q 415 610 392 642 l 342 491 l 340 492 q 345 522 345 503 q 342 549 345 534 q 333 575 339 563 q 319 594 328 587 q 297 602 310 602 q 263 589 281 602 q 232 553 246 576 q 208 497 218 530 q 199 423 199 465 q 199 248 199 334 q 205 74 199 161 q 254 3 208 20 l 254 0 l 34 0 l 34 3 q 84 31 68 11 q 101 77 99 51 q 106 203 104 144 q 109 319 109 262 q 107 463 109 406 q 97 553 106 519 q 67 601 87 587 q 10 615 47 615 l 10 618 l 194 673 q 188 630 189 654 q 187 581 187 606 m 302 727 q 295 750 301 739 q 278 770 290 762 q 249 784 266 779 q 209 790 232 789 q 140 769 163 787 q 115 728 117 751 l 56 728 q 71 788 57 762 q 105 832 84 814 q 154 859 127 850 q 209 868 181 868 q 264 859 237 868 q 312 832 291 850 q 347 788 334 814 q 362 728 361 762 l 302 727 z "},"":{"ha":629,"x_min":20,"x_max":602,"o":"m 602 897 q 532 798 532 874 q 528 679 530 739 q 527 625 528 653 q 527 570 527 597 q 526 515 526 542 q 526 464 526 488 q 526 370 526 413 q 527 286 526 328 q 527 202 527 245 q 527 111 527 160 q 546 71 529 87 q 602 47 564 54 l 602 43 l 433 -20 q 428 2 430 -12 q 426 34 427 16 q 348 -1 389 9 q 267 -12 306 -12 q 207 0 235 -12 q 155 37 178 12 q 118 98 132 61 q 100 184 103 135 q 94 332 96 256 q 92 485 93 407 q 89 645 92 564 q 81 810 87 726 q 63 864 78 842 q 20 897 48 887 l 20 900 l 264 900 l 264 897 q 216 861 233 885 q 198 798 198 836 q 195 652 196 725 q 194 587 194 621 q 193 519 193 553 q 192 452 193 485 q 192 389 192 418 q 198 224 192 287 q 218 126 205 161 q 253 79 232 91 q 304 67 275 67 q 363 77 331 67 q 426 109 395 87 q 429 309 428 216 q 430 489 430 401 q 429 646 430 568 q 420 810 428 724 q 400 864 416 842 q 352 897 383 887 l 352 900 l 602 900 l 602 897 m 295 999 l 239 985 q 211 1081 227 1031 q 178 1173 194 1131 q 140 1267 160 1221 l 278 1267 q 283 1185 281 1228 q 289 1099 286 1147 q 295 999 292 1051 m 484 999 l 427 985 q 399 1081 416 1031 q 367 1173 382 1131 q 329 1267 349 1221 l 467 1267 q 472 1185 469 1228 q 477 1099 475 1147 q 484 999 480 1051 z "},"":{"ha":574,"x_min":-10,"x_max":575,"o":"m 478 320 q 479 179 478 234 q 490 93 481 125 q 518 50 498 62 q 575 38 538 38 l 575 35 l 391 -20 q 397 23 397 -1 q 398 73 398 47 q 358 26 380 44 q 315 -2 337 8 q 270 -16 292 -12 q 230 -20 248 -20 q 124 56 162 -20 q 85 279 85 131 q 84 430 85 371 q 75 524 83 490 q 46 571 66 557 q -10 584 27 584 l -10 587 l 208 669 q 198 650 202 660 q 192 625 195 640 q 188 589 189 610 q 185 539 186 569 q 184 469 184 509 q 184 376 184 429 q 185 244 184 303 q 194 142 187 184 q 216 76 201 100 q 258 53 231 53 q 304 66 282 53 q 344 108 327 80 q 371 179 361 136 q 381 279 381 221 q 380 430 381 371 q 370 524 379 490 q 342 571 361 557 q 286 584 323 584 l 286 587 l 503 669 q 494 647 498 659 q 487 618 490 635 q 483 576 484 601 q 480 516 481 552 q 478 433 479 481 q 478 320 478 385 m 267 707 l 211 694 q 183 790 199 740 q 151 881 166 840 q 113 975 132 929 l 250 975 q 256 893 253 937 q 261 808 258 856 q 267 707 264 760 m 456 707 l 399 694 q 371 790 388 740 q 339 881 355 840 q 301 975 321 929 l 439 975 q 444 893 441 937 q 450 808 447 856 q 456 707 452 760 z "},"":{"ha":629,"x_min":20,"x_max":602,"o":"m 602 897 q 532 798 532 874 q 528 679 530 739 q 527 625 528 653 q 527 570 527 597 q 526 515 526 542 q 526 464 526 488 q 526 370 526 413 q 527 286 526 328 q 527 202 527 245 q 527 111 527 160 q 546 71 529 87 q 602 47 564 54 l 602 43 l 433 -20 q 428 2 430 -12 q 426 34 427 16 q 348 -1 389 9 q 267 -12 306 -12 q 207 0 235 -12 q 155 37 178 12 q 118 98 132 61 q 100 184 103 135 q 94 332 96 256 q 92 485 93 407 q 89 645 92 564 q 81 810 87 726 q 63 864 78 842 q 20 897 48 887 l 20 900 l 264 900 l 264 897 q 216 861 233 885 q 198 798 198 836 q 195 652 196 725 q 194 587 194 621 q 193 519 193 553 q 192 452 193 485 q 192 389 192 418 q 198 224 192 287 q 218 126 205 161 q 253 79 232 91 q 304 67 275 67 q 363 77 331 67 q 426 109 395 87 q 429 309 428 216 q 430 489 430 401 q 429 646 430 568 q 420 810 428 724 q 400 864 416 842 q 352 897 383 887 l 352 900 l 602 900 l 602 897 m 405 1019 q 398 1042 404 1031 q 381 1062 393 1053 q 352 1076 369 1070 q 312 1082 335 1081 q 243 1061 266 1079 q 218 1019 220 1042 l 159 1019 q 174 1080 160 1054 q 209 1124 187 1106 q 257 1151 230 1141 q 312 1160 284 1160 q 367 1151 340 1160 q 415 1124 394 1141 q 450 1080 437 1106 q 465 1019 464 1054 l 405 1019 z "},"":{"ha":574,"x_min":-10,"x_max":575,"o":"m 478 320 q 479 179 478 234 q 490 93 481 125 q 518 50 498 62 q 575 38 538 38 l 575 35 l 391 -20 q 397 23 397 -1 q 398 73 398 47 q 358 26 380 44 q 315 -2 337 8 q 270 -16 292 -12 q 230 -20 248 -20 q 124 56 162 -20 q 85 279 85 131 q 84 430 85 371 q 75 524 83 490 q 46 571 66 557 q -10 584 27 584 l -10 587 l 208 669 q 198 650 202 660 q 192 625 195 640 q 188 589 189 610 q 185 539 186 569 q 184 469 184 509 q 184 376 184 429 q 185 244 184 303 q 194 142 187 184 q 216 76 201 100 q 258 53 231 53 q 304 66 282 53 q 344 108 327 80 q 371 179 361 136 q 381 279 381 221 q 380 430 381 371 q 370 524 379 490 q 342 571 361 557 q 286 584 323 584 l 286 587 l 503 669 q 494 647 498 659 q 487 618 490 635 q 483 576 484 601 q 480 516 481 552 q 478 433 479 481 q 478 320 478 385 m 377 727 q 371 750 376 739 q 353 770 365 762 q 324 784 341 779 q 284 790 307 789 q 215 769 238 787 q 191 728 193 751 l 131 728 q 146 788 132 762 q 181 832 159 814 q 229 859 202 850 q 284 868 256 868 q 339 859 312 868 q 388 832 366 850 q 422 788 409 814 q 437 728 436 762 l 377 727 z "},"":{"ha":441,"x_min":22,"x_max":420,"o":"m 192 60 q 229 68 212 60 q 258 91 245 77 q 277 123 270 105 q 283 159 283 140 q 266 254 283 209 q 222 341 248 298 q 164 425 195 383 q 107 511 134 467 q 63 602 81 555 q 45 704 45 650 q 60 778 45 743 q 102 840 75 813 q 168 883 129 867 q 256 899 207 899 q 337 877 295 899 q 420 814 379 855 l 325 659 l 322 661 q 329 713 329 688 q 321 762 329 741 q 301 798 313 783 q 275 819 290 812 q 248 827 261 827 q 208 819 226 827 q 176 798 189 811 q 155 766 163 785 q 148 728 148 748 q 166 641 148 686 q 212 551 184 597 q 271 459 239 506 q 331 366 303 412 q 376 272 358 319 q 395 180 395 226 q 381 106 395 141 q 340 45 367 71 q 275 3 313 18 q 186 -12 236 -12 q 106 10 148 -12 q 22 73 64 32 l 118 208 l 121 206 q 113 182 115 194 q 111 159 111 170 q 118 119 111 138 q 137 88 125 101 q 162 67 148 75 q 192 60 177 60 m 127 -357 q 139 -261 136 -304 q 143 -184 142 -218 q 141 -124 143 -151 q 136 -76 139 -98 l 274 -76 q 249 -163 262 -117 q 221 -253 237 -202 q 184 -357 204 -303 l 127 -357 z "}}}
